<svg xmlns="http://www.w3.org/2000/svg" width="1080" height="1080" fill="#c3191c" xmlns:v="https://vecta.io/nano"><path d="M890.4 618.7l-42.1-114.9c2.7.1 2.1-1.5 2.6-3.5.7-2.2.7-2.2 0-3.3-.5-1-2.3 1.5-4.4 1.7l-16.9-46.3q.7.2 1.5 0c3.1-.5 4.9-1.6 4.9-1.6s.2-3.2-3.3-3.3c-1.6-.2-3.3.6-4.4 1.5l-4.1-11.4h41.4l21.1 57.6q-.6 0-1.1.2c-1.8.9 0 3.3 0 3.3s.8-.7 1.9-1.4l8.3 23c-.8-.3-1.8-.3-2-.2-.5.3 0 1.7 0 1.7s-.5.7 2.7.1l13.9 37.9 6-16.5c.7 1.3.9 2.1 2.2 1.6 1.8-.7 3.3-1.6 3.3-1.6v1.6s.9 3.5 2.4 2.6c-.2.4 0 .9.9.7 2-.1.7-1.9 0-1.6 2.2-3.2 1.7-5 1.7-5s-2-2.5-3.3-1.6c-1.4.8-1.7-1.7-1.7-1.7s4.2-.1 3.3-1.6l-1.6-3.3s1.8.2 0-1.7c-1-1-1.5-1.9-2-2.5l10.1-27.4q.1.2.1.2v1.6s.7 1.1 3.3 0c2.7-1.1 0-1.6 0-1.6s-.9-2.2-3-1.8l1.4-3.5v.3s.1.8 1.6 1.7c1.5.8 3.5 2.7 3.3 0-.1-2.8 1.7-3.3 1.7-3.3h1.6l1.7 3.3s-2.2.6-1.7 1.6c.6 1 3.4 1.7 3.4 1.7s1.9-1.4 1.6 1.6-1.6 3.3-1.6 3.3h-1.7v1.7h-1.7s1.8 1.8 3.4 1.6c1.5-.1 2.7 0 3.3-1.6.5-1.7 1.3-.6 1.6-3.3.3-2.8 1.7-4.3 0-5-1.6-.7-1.6-2.2-3.3-1.6-1.6.5-1.6-1.7-1.6-1.7-.9-.8-1.7-3.3-1.7-3.3l3.3-1.6v1.6c.7-1.1 2.2 2.2 2.6 2.3q0 .5.7 1c1.7 1.1 2.8-1.3 1.7-1.6-.7-.2-1.7 0-2.2.3q.2-.5-.3-3c1.5 1.3 2.3 2.8 2.5 1 .1-1.9-1.7-3.3-1.7-3.3s-.7 0-1.4.2q-.1-.9-.2-1.8c-3.2-14.4-5-1.2-5 0 0 1.1-3.3 1.6-3.3 1.6s1.8-.8-1.7 0c-1.3.3-2.3.8-3.1 1.5l1.2-3.1q.1 0 .3 0c2.8-.2 4.9 2.4 4.9 0v-5s.6-2.2 0-3.3c-.5-1.1.3-2.5-1.6-1.7l16.8-46.2c3.3.7 4.7 0 4.7 0v-3.3l1.6 1.6s.3 2.8 3.3 0c3-2.7 5.5.6 5-3.3-.6-3.8-1.7-4.9-1.7-4.9s-2.5.1-1.6-1.7c.8-1.8 2.3-3.7 3.3-3.3 1 .3.1.2 3.3 1.7 3.1 1.5 3.3-.3 4.9 0 1.7.3 1.5.1 3.3 0 1.8-.2 2 .5 1.7-1.7s1-3.1-1.7-3.3c-2.6-.1-4.4 2-3.3-1.6 1.3-3.6-.6-3.9 1.7-6.6 2.3-2.8-1.1-3.9-1.7-6.6-.5-2.8.6-4.3-1.6-3.3-2.2.9-1.7.3-1.7 4.9 0 4.7.7 6.3-1.6 6.6s-2.5-2.2-3.3-1.6c-.8.5-2.5 1.6-3.3 3.3-.7 1.5-1-.2-2.6-.2l7.5-20.6q.5.7 1.7 1c2.3.2 1.9-.6 3.3-1.7 1.3-1.1-.7-1.9-3.3-1.7q-.6 0-.8.2l1.5-4.1h41.4l-.8 2.2c-1.7-.6-2.6-1.3-3.3.1-.9 1.6-.6 1.6 0 3.3.5 1.5-.9 4.1.7 3.6l-20 54.9c-.5 0-1.2-.3-2.2-.7-3.3-1.5-2.2.8-3.3 0s-.7-1.1-3.3 0 0 .8-1.7 1.7c-1.6.8-1.3-1.3-3.3 0-1.9 1.1 0 1.5 0 3.3s-.6 2.2-1.6 4.9c-1 2.8 1.3 1.5 3.3 1.7 1.9.1 1.6-3.3 1.6-3.3s-.5-.3-1.6-3.3 1.8-.7 4.9-1.7c3.2-1 .3 1.8 0 5l-.1 1.6c-.5.3-1.9 1.4-3.2 3.3-1.3 2.4-1.1 1.4 0 3.3 1.3 2 1.5.9 1.7 3.3.1 2 0 2 .8 2.7l-2.6 7.1c-.7-1.2-1.5-1.5-1.5-1.5s-2.2-3.2-1.7 0c.6 3.1 1.7 4.9 1.7 4.9q0 0 .3-.2l-3.1 8.6c-1.5.2-2.2-.1-2.2-.1l-1.6-1.6s-.7.1-1.4.8c.6-.7 1.1-1.5 1.4-2.5 1-2.6-.8-1-1.7-1.7-.8-.6-2.2 3.6-1.6 5 .3.8 1 .5 1.6-.3q-.5.8 0 2c1 2.4-3 6.4 1.7 4.9q1-.3 1.6-.7l-2.2 6.2c-.2-.4-.5-.5-1.1-.5-1.5 0-4 .5-1.6 1.6.8.6 1.6.6 2.2.6l-5.7 15.3c-.7-1.7-2-2.5-3.1-2.7q0 0-.2 0c0-.9-.5-1.9-1.5-1.6-1.8.7-3.4.1-1.6 1.6.8.7 1.5 1 1.9 1.4-.8 1.4-1.4 3.7-1.9 3.6-1.7-.3-1.7 1.6-1.7 1.6 1.1 0-1-2.1 2.3-.8 3.4 1.4 2 2.5 4.3.8l-1.5 4.3c0-.7-.1-1-.1-1s-.6-1.6-3.3-1.6c-2.8 0-.9-5.1-3.3 0-2.5 5.1-3.3 4.9-3.3 4.9-.6-2.3 0-3.3 0-3.3v-1.6s5.2.5 1.6-1.7c-3.6-2.1-4.9-1.6-4.9-1.6v1.5c-.2 0-.7 0-1.7.1-2.3.6-3.8 0-3.3 1.7.5 1.6 1.7 1.6 1.7 1.6l-.9.9q-.3.3-.8.8c-1.6 1.5-1.6 3.3-1.6 3.3s-.9 1.9 1.6 1.6v1.7c0 2.2-1.8 2.2 0 3.3a24.55 24.55 0 0 0 3.3 1.7s4 1.1 1.7 1.6c-2.4.5.2 1.7-1.7 1.7s-3.3 1.6-3.3 1.6c.5 1-1 2.2 1.7 1.7 2.6-.6 3.3-1.7 3.3-1.7l1.6 3.3c.8.2.8.5 3.3 0q.5-.1.8-.1l-3 8.4q-.4 0-1.1 0c-4.3.1-2.6.3-4.9 1.6-2.4 1.4-.9 1.8-1.7 3.3s-2.3 3.3-3.3 1.7c-1-1.7 0-2-1.7-1.7-1.6.3-.5-1.8-1.6 1.7-.7 2.2-1.4 2.5-1.9 3.1 0-.9-.4-1.8-1.4-1.5 1.5-2.2 4-2.6 1.6-3.3-2.3-.7-3.8-.9-3.3-1.6q.2-.2.3-.3c1.2.6 2.2 1.2 3 .3 1.4-1.5-1.1-1.8 0-3.3 1.2-1.5 3.3-1.7 3.3-1.7s2.5 2.6 1.7 3.3-1.7 2 0 1.7 3 1.9 3.3-1.7 3.2-2.7 1.7-4.9c-1.6-2.2-.6-3.6-3.3-3.3-2.8.3-3.4-1.5-5 0-1.7 1.5-2.5 1.9-3.3 1.6-.7-.3-1.4-1.1-2.3-1.5q.1 0 .6-.1c4-.9 4.9 1.1 5-1.7s-.7-3-1.7-3.3c-.9-.3-1.5-.1 0-1.6 1.6-1.5 3.1 1.6 3.3 0 .3-1.7.3-1.7 1.7-1.7s2.2.3 3.3 0 2.5-.1 0-1.6c-2.5-1.6-2.6-2.8-5-1.7-2.3 1.1-3.3 0-3.3 0v-1.6l1.7-1.7h1.6s-.5-.1-1.6-1.7c-.8-.9-2.6-4.1-2.6-2.3s-.6-.7-.7-1c-.3-1.1 0-3.1-1.7-1.6l-1.6 1.6 3.3 3.3v1.7s-3.5-1.7-3.3 1.7c.1 3.3-1.5 4.6 0 4.9s.8.5 1.6 1.7c.9 1.1 2 .8 0 1.6-1.9.8-1.6 1.7-1.6 1.7-.3.8-1.5.5 0 1.6.8.7 0 1.4-.2 1.7-1.3 0 .2-1.4-1.5-1.7-1.6-.3-3.8-1.8-3.3 1.7.6 3.4 0 4.9 0 4.9s-4.1 1.5-1.6 1.7c2.5.1 5.1 1.3 4.9-1.7-.1-3 1.7-1.6 1.7-1.6s2.6.5 1.6 1.6c-.9 1.1-3.4 2.5-1.6 3.3q.3.2.7.3c-1.8.8-2.4 1.4-2.4 1.4.3 1.9 0 6 1.7 4.9 1-.8 1.5.6 2.2.7-.6.8.3 1.8 1.1 2.6-2.2 4.8.1-.5-4.1-.1s-4.2 1.9-2.5-1.5c.8-1.8-.8-3.9-3.3-3.3-2.5.5-3.3 1.6-3.3 1.6s-5.8.9-3.3 1.7 3.3 0 3.3 0l1.6 1.6v1.7s-1.5 3.6 1.7 3.3c3.1-.3 4.9 0 4.9 0s0 .7 1.7 1.6c1.6 1 1.1 4.7 3.3 3.3 2.2-1.3 1.6-1.6 3.3-3.3 1.6-1.6 3 .6 5-1.6 1.9-2.2-.2-2.2-.6-4-.3-1.9 1.1-2.9 1.1-2.9s.8 4.4 2.8 3.6c1.3-.5.6-3.5.6-3.5-.1-.6 1-.8 2.4-1.2l-2.5 6.6-.5-.3v1.7l-1 3q-.4.1-.7.3c-1.6 1.1-1.6 0-1.6 0s-.6-1.4-1.7-1.7c-1.1-.2-3 1.8-1.7 3.3 1.4 1.6 1.7 1.7 1.7 1.7s-.5.5 0 1.6c.1.6 1 .6 1.8.3l-1 2.9c-2.2-.4-4.1-1.5-4.1-1.5s.5-1.4-1.7-1.7c-2-.2-3.3 0-3.3 0s-.6-1.7-1.6-1.6-1.5 0-1.7 1.6c-.1 1.7-3.8 3.4 0 3.4 3.9 0 3.3-1.7 5-1.7 1.6 0 3.3 1.7 3.3 1.7s-1.8 3.8 1.6 3.3q.7-.2 1.4-.2l-1.9 4.8c-.3-1.1-1-2.2-1.1-3-.5-1.9-.3-2.6-1.7-1.6-1.3.9-.8 3.1-1.6 6.6-.8 3.4.3 0 3.3 0q.3 0 .5 0l-4.8 13c-.4-.9-.8-1.5-1.8-.9-2.3.9-3.5-.6-.8-1.7 2.6-1.1 2.8-1.9 2.8-1.9-.9-1.4-3.5-2.2-4.2-.4 0 0 .6 1.8-1.6 1.8s-3.3 1.6-3.3 1.6-.2-2.5-1.7 0-4.2 2-1.6 3.3c2.6 1.4 3 0 4.9 0 2 0 2 .9 3.3 1.7 1 .7 1.5 1.3 2.4 1l-4.2 11.2-.6-.1v57.5c-1.7.4-3.2.4-4.2-.2-1.1-.9-3.3 0-3.3 0s1-.9 0-1.7c-.9-.8-3.6.5-3.3 1.7.3 1.1 1.7 2.3 0 3.3-1.6.9 1.1-2.7-1.6-1.7s-4.2-1-3.5 1.4c-.7.1-1.6 1.1-3.1 3.6.8-2.4 0-3.3 0-3.3l-1.7-1.7s2.8.5 3.3-1.6c.6-2.2.7-3.9-1.6-3.4-2.4.6-3.3 1.4-3.3 3.4 0 1.9 1.3 5.2-1.7 3.3-3-2-3.3-1.4-3.3 0v3.3s-.7-2.2-1.6 0c-1 2.1-1.8 3.4 0 3.3 1.8-.2 3.3 1.6 3.3 1.6s3 5.3 3.3 1.7c.4-3.6-1.7-2.5 0-5 1.3-2.2 2.1-.1 3-1-.9 1.7-.4 2.4.3 2.5-.6.2-1 .7-1.7 1.8-1.5 2.8 1.5 2.2 1.7 3.3.1 1.1 0 2-1.7 1.7-1.6-.3-2.2-1.8-3.3 0s-1.9.9-1.6 3.3c.2 2.3 0 .7-1.7 1.6-1.6 1-3.3 0-3.3 0s-2.5.3-1.6 3.3c.8 3 3.1 1.4 4.9 3.3 1.8 2 1.9 2.4 5 1.7 3-.7 1.3-.6 1.6-1.7s2.2-1.6 3.3-1.6c.8 0 1.8.3 3 .3 0 .4 0 .8.3 1.3 1.4 1.7-.7-.5 0 3.3l1.5 6.1c-.4-.8-1.2-2.8-1.5.5-.3 4.2-1.9 8 1.7 6.6 3.6-1.3 5.8 2 4.9-1.6-.8-3.6-2.7-3.8-1.6-5 1.1-1.1.7 1.4 3.3-1.6s3.3-3.3 3.3-6.6c0-2.8.8-2 2.5-2.8v27.6q-.6 0-.9 0c-1.5.1-3.1.1-1.6 1.6.7.7 1.5 1.5 2.5 2v121.1l-25.5-25.6c3.8-.3 1.5-5 1.5-5s-1.9-.3-4.9 1.7l-10.1-10.2V762q.8.4 1.8.9c2.5 1.2.8 2.5 3.3 1.7s1.7-5 1.7-5h-5c-1 0-1.5 0-1.8-.1v-4.8q0 0 .1 0c2.5.5 1.7-.7 5 1.6 3.3 2.4 1 0 3.3 0s-1.5-2.6-3.3-3.3-3 0-5-1.6q-.1 0-.1-.2v-14c1.5.1 3.2.7 5.1 1 4.4.9 2.3-2.8 3.3-5s-.8-2.2-3.3-1.6c-2.5.5-.8 2.3-3.3 3.3-1 .3-1.5.3-1.8.1v-13.6c1.9-.6 3.6-1.3 3.4.2-.2 2.2-4.1 4-1.6 5s2.8-2.8 3.3-5c.5-2.1.8-1.7 1.7 0l1.6 3.4c1.5-1.2 4 .1 1.7-3.4-2.4-3.4-3.9-.9-3.3-3.3.5-2.3 3.1-1.5 1.6-3.3s-2.2-.5-3.3 0c-1.1.6-2.5 1.2-3.3 0-.3-.5-1-.9-1.8-1.5v-25.9c1-.1 2.1-.5 3.4-.6 3.4-.3 0-3.3 0-3.3s-1.1-.2-3.4 0v-3.3q.1 0 .1 0c2-.7.7-.9 3.3-1.7 2.4-.7-.6-2.2-3.4-1.9v-13q0 0 .1 0c1.7.6 2.5-1.5 3.3-3.3.9-1.8-1.6-.8-3.3 0q-.1 0-.1.2zm-32.9-144.8c2 1.6 0-3.3 0-3.3s-1.9 1.6 0 3.3zm3.6 9.5c-1.8-2.1-2.8 2.7-2.8 2.7s-5.9-3.2-3.1 1c2.2 2.9 5.6 0 5.6 0s2.8-.8.3-3.7zm16.2-2.9c2.8.9.7-4-1.6-3.3-2.4.6-1.1 2.3 1.6 3.3zm-9.9 4.9c-.8 1-.7 2.4 0 3.3.7 1 2.6-.8 5-3.3 2.3-2.5-1.7-1.6-1.7-1.6s-.7-1.4-3.3-1.7c-2.6-.4.8 2.4 0 3.3zm-14.8-1.6c-2.2-.4-3.5 1.5-1.7 1.6 1.8.2 3.8-1.3 1.7-1.6zm19.8 6.6s.3 1.1 3.3 1.6 1.6-3.3 1.6-3.3-1.1-.9-3.3-1.6-.5 1.5-1.6 3.3zm6.6 8.2c2.3.5.1-2.8-1.7-3.3s-.6 2.8 1.7 3.3zm-26.4-11.5c-.6.1-1.2.7-1.8 1.2-.2-.4-.6-1.1-1.5-1.2-1.6-.4-3.4.8-1.7 1.6 1 .5 1.8.5 2.5.3-.7.8-.8 1.5.8 1.4 3.3-.4 5-1.7 5-1.7-1.2-.8-1.8-2.3-3.3-1.6zm-5 4.9c1.5.2.8-1.3 0-1.6-.8-.4-1.5 1.5 0 1.6zm5 3.3c1.3 0 .1-2.6-1.7-1.6 0 0 .3 1.6 1.7 1.6zm3.9-3.1c2.7.1 4.5-2 2.7-1.8q-1 0-2.4.3c0-.5-.4-.7-.9-.3-1.5 1-5 4.4-1.7 3.3 1.1-.4 1.8-1 2.3-1.5zm63.8 41.1v3.3s-.6.7-1.5.2l1.3-3.6q.2.1.2.1zm23.1 9.9c-1 0-5.1 1.2-1.7 1.7 3.5.4 2.7-1.7 1.7-1.7zm0-3.3c-2.2.7-4.3 1.7-1.7 1.7 2.7 0 3.9-2.3 1.7-1.7zm3.3 5c-1.8.1 0 1.6 0 1.6s1.8-1.8 0-1.6zm-14.9-6.6c-.9-.4-4.4 1-1.6 1.6 2.9.7 2.6-1.3 1.6-1.6zm-1.6 3.3s-1 2.3 0 1.6c1-.6 0-1.6 0-1.6zm-3.3-3.3c-1.4-.2-4.3.8-1.7 1.6 2.7.9 3.3 1.7 3.3 1.7s-.3-3.2-1.6-3.3zm-1.7-5s.7 1.1 1.7 3.3c1 2.1 1.1.5 3.3-1.6 2.2-2.2.5-4.7 0-3.3-.2.1 0 2.6-.3.3-.4-2.1-1.9-1.2-3-.3-1.5 1.1-1.7 1.6-1.7 1.6zm3.3-8.2s-1.6 2.1 0 1.6c1.7-.5 0-1.6 0-1.6zm14.9-1.7c-1.9-.1-4.7 0-3.3 1.7 1.4 1.6 2.5 2.7 3.3 1.6.8-1.2 1.9-3.1 0-3.3zM912 569.7l1.7 1.6s-1.4 1.8 1.6 3.3.7-2 0-3.3-.5-3-1.6-3.3c-1.1-.4-1.7 1.7-1.7 1.7zm1.7-3.3s1.1-1.8 0-1.7c-1.1.2 0 1.7 0 1.7zm3.3 1.6s.9.4 1.6 3.3c.7 2.8.2 1.3 1.7 0s0-1.3 0-3.3.5-1.6-1.7-1.6-1.6 1.6-1.6 1.6zm4.9 5s.6.9 1.7 1.6 2.3 0 1.6 1.7c0 0 .6 1.2-1.6 1.6-2.2.3-.2 1.3 0 3.3.1 2 1.6 0 1.6 0s1.7-2.3 1.7 0c0 2.4.1 2.1 1.6 5 1.5 2.7 1-.8 1.7-1.7.7-.8.3-1.3 0-3.3s-.3-1.2-1.7-1.6c-.6-.2-.9-.9-.9-1.5.1-.7.4-1.4.9-1.8 1.4-1.4-1.3-2.1-1.6-3.3-.3-1.4-1.7-2.1-3.3-1.7-1.7.3-.2.5-1.7 1.7zm-3.3-11.6c2.8 1.5.6-2.9-1.6-3.3-2.2-.5-1.1 1.8 1.6 3.3zm21.5 16.5c2.5.7 0-2.8-1.7-3.3-1.6-.5-.8 2.6 1.7 3.3zm-8.3-1.6c2.8.7 1.3-4.2 0-3.3-1.1.8-2.7 2.6 0 3.3zm-1.6-3.3c2.2.1.7-2.5-1.7-1.7-2.3.8-.5 1.5 1.7 1.7zm-46.3 9.9v1.6s.9.7 1.7 0q.3-.4.7-.5c.7-.4 1.5-.8 2.6-1.1 1.6-.6 0-2.1-1.7-1.7-1.6.3-1.1 1.1-3.3 1.7zm8.3 1.6c-1.9 2 .5.5 3.3 1.7 2.8 1.1 2.2 1.2 1.7 3.3-.6 1.9 1.3.8 4.9 1.6 3.6.9 3.2-.5 3.3-3.3.2-2.8-2.5.5-3.3 0s-3.3-3.3-3.3-3.3-.7-2.8-3.3-3.3-1.4 1.3-3.3 3.3zm11.6 1.7c2.4 1.1-.6-3.9-1.7-3.3-1.1.4-.8 2.1 1.7 3.3zm9.9 3.3s-4.7 1-1.7 1.6c3 .7 1.7-1.6 1.7-1.6zm-3.3 4.9s-1.7 2.1 0 1.7c1.6-.5 0-1.7 0-1.7zm6.6 5s-1.7 1.9 0 1.6c1.6-.3 0-1.6 0-1.6zm-3.3-16.5c-2.4-.6-5.8.3-3.3 1.6l4.2 2.7c0 .1.2.5.7.6 2 .9 2.4 3.6 3.3 1.7 1-2.1 2.2-2.6 0-3.3-1.1-.4-2.5-.2-3.3.3q0-.2 0-.3c-.1-2.4.7-2.9-1.6-3.3zm8.2 8.2c-2.2-.5-3.8 1.7-1.6 1.7s3.8-1.2 1.6-1.7zm5 0c2.9.7 1.5-2.4-1.7-3.3-3.1-.8-1.1 2.7 1.7 3.3zm-3.3 3.3c-2.5-.4-5 1-3.3 1.7 1.6.7 2.5 2.9 3.3 1.6s2.5-3 0-3.3zm11.5-1.6s-2.4.8-1.6 1.6c.8.9.7 2.7 1.6 1.7 1-1 0-3.3 0-3.3zm-74.3-112.3c-.8-.2-2.2 1.9 0 1.6 2.2-.4 0-1.6 0-1.6zm-13.2 14.8s1-2.3 0-1.6 0 1.6 0 1.6zm26.4 0c-1.8-.5-3.6 1.5-1.6 1.7 1.9.1 3.4-1.2 1.6-1.7zm0 3.3c-.9-.1-1.3 1.2 0 1.7 1.4.4 1-1.5 0-1.7zm-1.6 3.3c-1.1-.3-1.5 1.7 0 1.7s1.1-1.4 0-1.7zm6.6-1.6s-.8-.5-1.7 1.6-.9 2.5-1.6 3.3c-.7.9.7 5.3 3.3 3.3s4.4-.5 3.3-3.3-1.1-4.9-3.3-4.9zm8.2 8.2c2.7 1 .6-2.8-1.6-3.3s-1 2.1 1.6 3.3zm-16.5-8.2s-3.8.8-1.6 1.6c2.2.9 1.8-3.1 1.6-1.6zm-16.5 8.2l-1.6 1.7a6.3 6.3 0 0 0 1.6 1.7c1 .6 3.3 0 3.3 0s0 .1-1.6 1.6c-1.7 1.5 1.5 1.5 3.3 0q.3-.1.5-.5c.1.4.4.5 1.1.5 2.5.3 2-3 .7-2.2q-.4.2-.7.6c0-.2-.5-2.9-1.6-3.4-1.2-.5-1.7-.1-3.3 0-1.8.2-1.7 0-1.7 0zm8.3 10c3 .1-1.7-3.3-1.7-3.3-1.6.2-1.3 3.1 1.7 3.3zm-1.7 3.3c1-.2 1.8-1.7 0-1.7s-1 1.8 0 1.7zm6.6-5c2.5-1.4 1.7 0 1.7 0s.3 1.5 0 3.3 1.6-.1 3.3 0c1.6.2 1.6-1.6 1.6-1.6s1.4.1 1.7 1.6c.1.4.3.7.8.7-.8.1-1.9.6-2.5 1-1.1.6 0 1.6 0 1.6h-3.3c-1.1 0-1.1 1.3-1.6 3.3-.6 2 1.6.3 4.9 0 3.3-.4 1.7-1.6 1.7-1.6v-1.7s.7.2 1.6-1.6q.5-1-.3-1c.9-.3 2-.5 3.6-.7 3.3-.4 0-1.6 0-1.6s2.5-.4 5-1.7c2.5-1.5 1.1-2 0-3.3-1.1-1.4-2.2-1.4-5-1.6-2.7-.4-1.6.9-1.6 3.3v1.6c-.3.2-2.2 1.3-5 0-1.6-.8-1.9-.7-1.9-.5-.4-.5-1.4-1.3-3-1.1-2.5.2-1.5-1-3.3 0-1.8.9-.9 2.9 1.6 1.6zm21.5 1.7c-1.4-.2-7.3-.4-5 1.6 2.4 2 6 3.3 6.6 1.7.7-1.7-.2-3.2-1.6-3.3zm-5 8.2c.6 2.1 3.9-1.2 5-1.6 0 0-.8-1.8-1.7-1.7-.8.2-3.8 1.1-3.3 3.3zm11.6-1.6c-.8.3-1.8 1.6 0 1.6s.8-2.2 0-1.6zm-16.5 3.3c-2.2 0-3.2 1.1-1.7 1.6s3.9-1.6 1.7-1.6zm6.6 16.5c-1.5.7-6.5-.7-3.3 1.6q4.7 3.5 4.9 1.7c.2-1.2 0-4-1.6-3.3zm4.9-1.7c-1.9.5-3.3.7-1.6 1.7 1.8 1 3.3 0 3.3 0s.3-2.2-1.7-1.7zm0-3.3c-1.6 0-4.1 1.8-1.6 1.7 2.5-.4 3.3-1.7 1.6-1.7zm1.7-3.3c-1.1-.4-4 1.8-1.7 1.7 2.4-.4 2.8-1.4 1.7-1.7zm1.6-4.9c-1.9 1.2-2.7 3.1-1.6 3.3 1.1.1 1.4.8 3.3 0s4.1 1.6 3.3-1.7-.3-5.5-1.6-4.9c-1.4.3-2.4 2.1-3.4 1.6-.9-.5-.2-.7-1.6-1.6-1.4-1.2-3.3 0-3.3 0-.8-.4-1.7 0-1.7 0s-5.1 0-3.3 1.6c1.8 1.7.7 1.3 3.3 1.7 2.7.3 3.3 0 3.3 0s5.3-1.4 3.3 0zm5 4.9s-4.1 1-1.6 1.7c2.4.7 2.4 1.1 3.3 0 .8-1.4-1.7-1.7-1.7-1.7zm-28.1 16.5c-1.1 0-4.8 1.3-1.6 1.7 3.1.3 2.7-1.7 1.6-1.7zm5 11.6c-.6.3-1.7 2 0 1.7 1.8-.4.5-2.1 0-1.7zm4.9 13.2c2-.5.7-2.3-1.6-1.6-2.2.7-.3 2.1 1.6 1.6zm97.5-117.2c-2.3-.6-5.9-.2-3.3 1.6s5.6-1.2 3.3-1.6zm1.6 8.2c1.7 1.1 1.3.3 1.7-1.6.5-2.1.3-1.7-1.7-1.7-1.9 0-1.6 2.1 0 3.3zm-3.3 0c-1.6.4-4.1-.5-3.3 1.7.9 2-.9 2.7 1.7 3.3 2.6.4 1.9 1.6 3.3 0 1.3-1.7 0-3.3 0-3.3s0-2.2-1.7-1.7zM988 454s.7.2 2.6.2l-1.8 4.9c-1.1-.6-.8-5.1-.8-5.1zm-21.5-1.6c1.7.1 0-1.7 0-1.7s-1.6 1.4 0 1.7zm18.2-16.5c-.8.7-4.1.9-1.7 1.6 2.5.7 2.5-2.3 1.7-1.6zm4.9-8.3c1.7.3 1.2-3.7 0-3.3-1.1.3-1.6 2.9 0 3.3zm-24.7 13.2c1.9 3.6 3.3-1.5 4.9-3.3 1.7-1.8-1.1-.7-3.3-1.6-2.2-1-1.6-1.7-1.6-1.7-2.2.5-2 2.9 0 6.6zm-5-3.3s-4.8 2.8-1.6 3.3c3.1.5 3.3-1.6 3.3-1.6zm9.9 6.6s1.3-.2 1.6 3.3c.3 3.4 2.7.8 5 1.6 2.3.9.7-.9 1.6-3.3 1-2.3-1.6-1.6-1.6-1.6s1.1-.8 1.6-1.7c.6-.8 2-1.2 3.3-1.6 1.4-.6-1.6-1.2-1.6-1.7s-1.7-1.5 0-3.3c1.6-1.8 0-3.3 0-3.3s-.3-1.8-1.7-4.9c-1.3-3.2 1.7-1.7 1.7-1.7h3.3s-.2-1.1 0-3.3c.1-2.3-1.5-.4-3.3 0v1.7s-.8-.2-1.7 0c-.8.1-2 .5-3.3 3.3-1.1 2.6 1.7 1.6 1.7 1.6v3.3c0 .8-1.1 1.3-3.3 1.7-2.2.3 0 2.1 1.6 3.3 1.7 1.1 1 1.2 1.7 3.3.7 1.9-1.5 1.1-3.3 1.6s0-2.4-1.7-1.6c-1.6.8-1.6 3.3-1.6 3.3zm3.3-11.6c2.3 0 .1-2.3-1.7-1.6 0 0-.6 1.6 1.7 1.6zm21.5-11.5c-1 .3-2.5 1.1-1.7 1.6.8.4.3 2.5 1.7 1.7 1.3-.9 1.6-.4 1.6-1.7s-.7-2-1.6-1.6zm3.3 1.6c-.7-.8-.9 1-1.7 1.7-.8.5-1.6.4-1.6 1.6 0 1.1 1.3.8 0 1.7-1.4.8-1.8.5-1.7 1.6.1 1-3.3 1.8 0 1.7 3.3-.2 1.7 1.1 3.3 0 .7-.6.7-.4.7-.2.1-.4.4-.7 1-1.5 2.3-3.1 1.6-3.8 1.6-4.9 0-1.3 1-1.3 0-1.7-1-.5-1 .8-1.6 0zm-5-6.6c-.8-.5-3.8 1.8-1.6 1.7 1.3-.2 1.6 0 1.6 0 .1-.4.7-1.4 0-1.7zm-6.6-9.9s-.3 1.8 0 5c.3 3.1 1.5.2 3.3 0 1.8-.4 2.6-.9 3.3-1.7s.7-2.2-1.6-3.3l-3.4-1.7s0-1.5-1.6-1.6c-1.7-.3 0 3.3 0 3.3zm-1.7 5s-3.9 1.1-1.6 1.6c2.3.4 1.6-1.6 1.6-1.6zm-21.4 9.9l1.6 1.6-1.6 2.9c.1-.3-.2-1.1-1.7-2.9q-.3-.5-.7-.7l1.3-3.3c.4 1.5 1.1 2.4 1.1 2.4zm0 4.5q0 0 0 .3zm23.1-29.6l-1.7 1.6s-3.3-.5-1.6 1.7c1.6 2.1 2.9 3.3 3.3 1.6.5-1.6 1.6-2.1 1.6-3.3s-1.6-1.6-1.6-1.6zm5-1.7s-1.8 1.5 0 1.7c1.7.1 0-1.7 0-1.7zm6.6 5c.8.1 1.5-1.5 0-1.7-1.5-.1-.9 1.4 0 1.7zm4.9 4.9s-1.6 2 0 1.7c1.7-.4 0-1.7 0-1.7zm-9.9-18.1c-1.6-.9-3.8.4-1.6 1.6 2.1 1.1 3.3-.8 1.6-1.6zm14.9-1.7c-1.5-.4-6.6-.5-3.3 1.7 3.3 2.1 4.9 1.6 4.9 1.6s-.1-3-1.6-3.3zm-33.1 36.4c-.9-.6-4.1.8-1.6 1.6s2.6-1.2 1.6-1.6zm-16.5 113.9c-1.2.5-1.6 0-1.6 0s-2.5.2-1.7-1.6 1.7-1.7 1.7-1.7h2.7c-.3.2-.4.5.6 1.7q.6.8 1.3 1.1l-.8 2.2c-.7-1.2-1.2-2.1-2.2-1.7zm3.3-6.6l1.7-1.6h.8l-1.1 3.3c-1.5-.6-1.4-1.7-1.4-1.7zm-16.5-8.2s-4.3 1.5-1.6 1.6c2.6.2 1.6-1.6 1.6-1.6zm1.7-1.7c-.9-.4-2 1.5 0 1.7 1.9.1.8-1.4 0-1.7zm5.2 7.9c-.8-.3-1.3-.5-1.8.2l-.1-3.1h1.6l1.7 1.6zm6.3-9.6c2.2-.4.1-2.1-1.7-1.7-1.9.6-.7 2.2 1.7 1.7zm-9.9 0s1.1.8 3.3 0c2.1-.8-.6-2.5-1.7-1.7-1.2.9-1.6 1.7-1.6 1.7zm4.9-6.6c-1.5.7-4.1 1.2-1.6 1.6 2.4.6 1.6-1.6 1.6-1.6zm-23.1 9.9s-3.8 1.2-1.7 1.7 2.8 1.2 3.4 0c.4-1.2-1.7-1.7-1.7-1.7zm3.3 0s1 .1 3.3 1.7c2.2 1.5 2.5-1.7 5-1.7 2.4 0 1.6-3.3 1.6-3.3s-.8-1.9-3.3-1.7c-2.5.4 0 1.4-1.6 1.7-1.7.4-2.5.5-3.3 0-.9-.4-1.7 3.3-1.7 3.3zm-3.3-3.3c1.3-.1.8-2.6 0-1.7-.8 1-1.4 1.8 0 1.7zm16.5-5s-4.1 1.3-1.6 1.7c2.4.5 3.3 0 3.3 0zm6.6-8.3c-1.1.7-1.7 4.6 0 3.3 1.6-1.1.9-3.9 0-3.3zm-13.2 6.6c-1.7-.9-2.2-.9-3.3 0-1.3 1-1.7 1.7-1.7 1.7l-1.6-1.7 1.6-1.6-1.6-1.7h-1.7v3.3h-1.6l-1.7 1.7c1.7 1 2.1 2.5 3.3 1.6 1.1-.8 1.7 0 1.7 0s2.7 3.1 3.3 1.7c.4-1.3 1.6-1.7 1.6-1.7s3.3-2.3 1.7-3.3zm0-6.6l-1.7 1.7v1.6h1.7l1.6-1.6zm0-1.7c2.5-.3 0-1.6 0-1.6s-2.5 2 0 1.6zm-1.6-16.5q-.6.2-1.1.4l1.2-3c.8.7 1.5 1 1.5 1s.4 1.2-1.6 1.6zm23.1 0c-2.2-.1-4.1.7-1.7 1.7 2.5.9 3.8-1.5 1.7-1.7zm3.3 1.7s1.3 0 3.3-1.7c1.9-1.6.4-2.5-1.7-1.6-2.1.8-1.6 3.3-1.6 3.3zm11.6-8.3c-2.5.4-4 3.3-1.7 3.3q3.3 0 3.3 0s.8-3.6-1.6-3.3zm-16.6-11.5c-1.9 1.2-4.1 1.6-3.3 3.3.9 1.6-2.7 3.6 0 3.3s1.8.1 3.3-1.7c1.4-1.8 1.8-6.1 0-4.9zm0-8.3c-2.4.5-3.3 2-3.3 3.3 0 1.4-3.7 3.8 1 3 4.6-1 4-3 4-3s.8-3.7-1.7-3.3zm-9.9 0c-2.3.5-4 3.3-1.6 3.3 2.2 0 2.9 2.2 3.3 0 .3-2.1.7-3.7-1.7-3.3zm5 6.6s-3.6.5-1.1 2.2c2.3 1.6 1.1-2.2 1.1-2.2zm-31.4 320.4c2.2 1 1-3.1 0-3.3-1.1-.1-2.5 2.4 0 3.3zm-28.1-3.3c2.6 1.4.6-3.6-1.6-3.3-2.4.4-1.1 2.1 1.6 3.3zm3.3 14.9c3.3.4 1.1-3.5-1.6-3.3-2.9.1-1.9 3 1.6 3.3zm0 13.2c2.1 1.2 2-2.5 0-3.3s-2.2 2.2 0 3.3zm9.9 3.3c2 1.2 1.7-2.9 0-3.3-1.9-.3-2 2.2 0 3.3zm9.9-4.9c2.3.6 2.3-2.5 0-3.3-2.4-.9-2.3 2.6 0 3.3zm6.6-3.3c2-.5 1-2.5-1.6-1.7-2.7.8-.4 2.2 1.6 1.7zm-1.6 6.6c1.6 1.5 1.8-3 0-3.3-1.9-.3-1.9 1.8 0 3.3zm3.3 4.9c1 .8 1.9-2.8 0-3.3-2-.4-1.1 2.5 0 3.3zm0 11.6c2.9.7 1.1-3.5-1.7-3.3-2.8.1-1.3 2.6 1.7 3.3zm-11.6 3.3c1.2 1.3 2.1-3.6 0-3.3-2.1.4-1.2 2 0 3.3zm-13.2-6.6c3.1-1.3.6-2-1.6-1.7-2.5.4-1.7 3 1.6 1.7zm0-21.5c1.1 0 1.8-1.5 0-1.7-1.9-.1-1.2 1.7 0 1.7zm24.8 8.3c.6.6 1-1.5 0-1.7-1.1-.1-.8 1 0 1.7zm-3.3 11.5c1.3.4 1.3-1.1 0-1.6-1.4-.5-1.4 1.3 0 1.6zm-23.1-107.3c-.3 1.6.4 2 1.6 1.6 1.1-.3 0-3.3 0-3.3l3.3 1.7c.9.5-1.3-3.8-3.3-3.3s-1.5 1.6-1.6 3.3zm3.3 6.6c1.2 1.2.9-3.3 0-3.3-1.1 0-1.4 2.2 0 3.3zm4.9 4.9c1.4-.3 1.3-2.3 0-1.6s-1.6 2 0 1.6zm3.3-4.9c.6 2 .5 2.2 3.3 1.6 2.8-.4-1.9-1.2-1.6-3.3.1-1.9-1.1-3.3-1.7-3.3-.8 0-.6 3 0 5zm9.9 1.6c1.7-.3 3-2.5 1.7-1.6-1.4.8-3.6 2-1.7 1.6zm0 5c3.8.7-.2-2.8-1.6-3.3-1.7-.5-2.2 2.6 1.6 3.3zm-16.5 1.6s-1.3.6 0 1.7c1.3 1.2 0-1.7 0-1.7zm1.7 3.3s-4.7 3.7-1.7 3.3c2.9-.3 3.8-4.1 1.7-3.3zm-11.6 6.6c-1.6 1.3.2 1.8 3.3 3.3s2.6-1.1 3.3-3.3c.6-2.1 0-4.4-1.6-3.3l-5 3.3zm18.2 6.6c2.1 4 1.4-1.8 3.3-3.3 1.8-1.5-.8-3.4-3.3-3.3-2.7.2-2.2 2.7 0 6.6zm0-8.2c2.2.4 2.8-.7 6.6 0 3.7.7 2.8 1.2 4.9 0 2.1-1.1-2-2.3-3.3-3.3s-3.3-5.9-4.6-3.3c-1.4 2.8-2.2 1.8-3.6 3.3-1.7 1.5-2.3 3 0 3.3zM902 752.5c2 1 2.1-3.2 0-3.3-2.2-.2-2 2.3 0 3.3zm0 5c-.7 1.6-.9 2.8 1.7 3.3 2.5.5.8-1.2 3.3-1.7 2.2-.4 0-4.8-3.3-5-3.6-.1-1.1 1.7-1.7 3.4zm-1.6 11.5c3 2.1-.6-2.8-1.7-3.3-1.2-.4-1.5 1.4 1.7 3.3zm3.3 1.7c-1.5.6-2.1 5.3 0 3.3 1.9-2 1.4-4 0-3.3zm6.6 1.6s.4 1.4 3.3 0c2.8-1.2-1.7-1.6-1.7-1.6s.6-2.7-1.6-1.7c-2.4 1-.3 1.5 0 3.3zm9.9-4.9c1.9-.2.6-1.5-1.7-1.7-2.4-.1-.3 1.8 1.7 1.7zm-14.9 14.8c2.6.9.6-4-1.6-3.3-2.5.7-1.1 2.5 1.6 3.3zm-6.6 6.6c-1.9 1 1.4 1.4 5 1.7 3.3.4.6-2.8-1.7-3.3s-1.5.7-3.3 1.6zm6.6 5c-.4 1.5-1 5.5 2 4.3 1.3-.5-.2-7.9.8-5.8 1 2 .3-2.2.5-3.5.9-5.4-1.6-1.6-1.6-1.6l-1.7 6.6zm-6.6-114c-1.6.6-3.5 3.3-1.6 3.3 1.8 0 3-.3 3.3-1.6.1-1.3-1.7-1.7-1.7-1.7zm28.1 11.6c-1.7 1.2-1.5 2.2-1.7 3.3-.2 1.2 0 3.3 0 3.3l-1.6 1.6s-.5-1.9-1.7-3.3q-.3-.3-.5-.4.2-.4.5-1.2c1.6-4 1.7-3.6 1.7-6.6q-.1-4.4 1.6-3.3c1.2.8-2.7 2.6 0 3.3 1.8.5 3.1 2.3 4.2 2.5v1.5c-.7-.7-1.7-1.4-2.5-.7zm-29.7 14.8c2.6.2 0-2.3-1.7-1.6-1.9.7-1.1 1.5 1.7 1.6zm-1.7 5s1.1-2.5 0-1.6c-1.2.8 0 1.6 0 1.6zm21.5-12.4c-.8 0-1.7-.8-1.7-.8s-1.2-2.8 1.7-3.3c1-.2 1.3-.8 1.4-1.7q0 0 .2 0c.9.6 1.3 1.5 1.7 2.4q-.8-.2-1.7.9c-.8 1.3-1.5 1.3-1.6 2.5zm-2.5-11.2q-.4.2-.8.5c-1.7 1-.8-2 0-3.3.4-.8.8-2.1 1.1-2.9 1 .9 2.2 1.2 2.2 1.2s-1.1 2.9-1.7 3.3c-.4.4-.6.7-.8 1.2zm10.7 30.2c1 1 2-3.6 0-3.3-2 .4-1 2.3 0 3.3zm-18.1-6.6c-1.4 3.3-.7.5 1.6 3.3 2.3 2.9 3.9-1.3 5-4.9.8-3.6-1.1-3-3.3-3.4-2.4-.2-2.1 1.7-3.3 5zm-14.9-62.8c2.9.4 1.3-2.7 0-3.3-1.3-.4-3 3 0 3.3zm6.6 3.3c2.6-.4-.2-2-1.6-1.6-1.5.5-1.1 2.2 1.6 1.6zm3.3 6.6c-2.7-.2-5.5-.1-4.9 1.7.4 1.8 1.9 4.1 3.3 3.3 1.2-.8.4.4 1.6-1.6 1.1-2 2.5-3 0-3.4zm-4.9 5s-4.8.4-3.3 1.7c1.4 1.3 1.9 2.8 3.3 1.6 1.2-1.1 1.6-3.3 1.6-3.3zm3.3 5c1.3 0 1.3-2.1 0-1.7-1.3.5-1.3 1.7 0 1.7zm3.3 0c-1.3 2 2.1.4 5 0 2.8-.3-.6-4-3.3-3.3-2.9.6-.4 1.3-1.7 3.3zm8.3-3.3l1.9 1.2s1.1-3.6-.3-2.9c-1.6.7-1.6 1.7-1.6 1.7zm0 3.3c-.8.8-2.1 5.3 0 3.3 1.9-2 .6-4.2 0-3.3zm-13.5 10.3c1-1.1.3-2.5-1.2-1.9-1.4.6.1 3.3 1.2 1.9z"/><g fill-rule="evenodd"><path d="M719.7 438.9c16.3.2 31.6 3.6 45.5 9.7 0 .4-.2.5-.2.5s2.8 4.3 3.3 6.6c.6 2.4-1.6 5-1.6 5v4.9s2.2 4.3 6.6 3.3c4.4-.9 4.9-3.3 4.9-3.3l.3 5.7 2.1 3.1s1.1-2.8 2.6-3.8 3.4 5.6 4.9 4.9c1.7-.6 1.2-.5 0-3.3-1.1-2.7-3.3-4.9-3.3-4.9l3.3-1.7s1.8.3 1.8-2.6c28.7 21.6 47.1 56 47.1 94.6 0 34.1-14.3 64.8-37.2 86.4-.6-2.3-2.6-4-3.4-3.3-1.4 1-1.5 2.3 0 3.3.7.3.3 1.8 0 3.2q-5.8 4.9-12.2 9.2l66.7 66.9c-1.4.7-6.5 3.2-3.3 3.3s5.5-2.6 5 0c-.6 2.6-3.3 3.3-3.3 3.3v3.3s-4.9-.8-3.4 1.7c1.6 2.4-.9 5.6 3.4 3.3 4.2-2.4 3.8 0 4.9-3.3s1.8 2.6 1.7-5q0-1-.2-1.8l3.3 3.2q-1 .8-1.5 1.9c-1.1 2.3-4.7 2.3-3.3 5 1.4 2.6 3.3 3.3 3.3 3.3s2.3.6 1.7 3.3c-.7 2.6-5.7 1.9-1.7 3.3 4 1.3 1 4.2 3.3 4.9s3.3-4.9 3.3-4.9 4 .8 5 3.3c.9 2.5 0 4.9 0 4.9s3.8 4.8 4.9 0 0-6.6 0-6.6l-6.6-3.3 1.7-3.3s.9.3 1.6 0l6.6 6.6v24.7c-2.2-.4-3.3-.4-1.6 1.8q1 1.3 1.6 1.9v26.7l-10.2-10.2c.9-.3 1.4-.8 2-1.9 1.1-2.7-1.1-3.3-3.3-3.3-.7 0-1.7.5-2.7 1.1l-29.8-29.9c.9-1.3 1.1-2.6 1.1-2.6s-.2-3.5-1.7-3.3c-1.1.1-1.6 1.5-2.4 3.1l-1.5-1.6c.9-.2.8-1 2.3-3.2 2.2-3.3.7-3.3 0-4.9-.7-1.7-3.3 1.6-3.3 1.6h-3.3s3.1-2.5 4.9-4.9c1.5-2 1.7-3 1.7-3.3 0 .5.1 2.6 1.6 3.3 1.8.8 2.8-2.4 5-6.6 2.2-4.3-1.5-2-3.3-3.3-1.8-1.4-3.3 1.6-3.3 1.6s-2.2-3.3-5-3.3c-2.7 0-1.3 0-3.3 1.7-1.9 1.6-3.3 3.3-3.3 3.3s-.5-2.4-3.3 1.6c-.8 1.1-1.1 1.8-1.3 2.5l-5.8-5.6 3.8-3.5c4.8-4 1.4-2.6 3.3-6.6 2-4 .2-2.3-3.3-3.3-3.4-1-1.1 1.8-1.6 5-.6 3.1-2 .8-5 1.6-2.2.5-2.6 0-3.4.3l-4-3.7q.5-.7.8-1.5c1-2.2-1.5-1-2.6-.3l-51.4-51.5c-8.5 1.9-17 3-26 3.2V705c-2.6-.4-5.4-.2-4.2 1.8 1.1 1.8 3 4.4 4.2 4v60.9L684.9 737q.5-.2.8-.5c2.7-2.2 1.8-2.8 1.7-4.9 0 0-1.8-1.8-5 0-.9.6-1.3 1.1-1.5 1.5l-.3-.4V515q1 .2 1.8.2c4-.2 0-3.3 0-3.3s-.5-1.1-1.8-1.7v-11.4q0-.1.2-.1c1.5-1 1.8-1.8 3.3-3.3s1.1-1.8 0-3.3c-1-1.2-1.7-.6-3.5-.2v-1.5q0 0 .2 0c2.2.2 1.6-1.8-.2-2.8v-48.7zm78.9 118.7c0-35.5-23.1-65.7-55.1-76.3.5-.8.6-2.5 0-4.1-1.3-3-2.8 0-1.6 3.3q0 .1.1.3-5.8-1.7-11.9-2.6c1.6-1.5 1.9-2.7 1.9-2.7s-2.1-2.3-3.3-1.6c-1.4.7-1.1 1-1.7 3.3q-.2.3-.2.7-3.5-.6-6.9-.6V496c-1.1-.1-2.4-.1-4.4-.6-3.2-.9-3.6.5-6.6 0-3.2-.6-1.3-.3-3.4-1.7s-3.1-1.6-8.2-1.6c-5.2 0-4.4 3.3-1.7 4.9 2.7 1.7 6-.3 8.3 0 2.2.3 4.3.8 9.9 5 3.5 2.4 5 2.4 6.1 1.6v16.5c-1-.6-2.2-1.3-2.8-1.6-1.5-.7-3 1.6-1.6 4.9.8 2 2.7 1.5 4.4.3v114.2c43.7-.8 78.7-36.3 78.7-80.3zm-394.3 32.6q0-1 0-2.1a124.81 124.81 0 0 1 7.2-.2c11.9-.2 3.5-1.2 8.3-3.3 4.7-2.2.3-.7 3.3-3.3 2.9-2.7.3-.9-1.6-3.4-2.1-2.4-2.8.7-5 3.4-2.3 2.6-2 1.7-5 3.3-3 1.5-2.3-2-4.9-3.3-1.1-.6-1.5-.7-2.1-.9q.6-8.9 2.2-17.6 1.3.1 3.2.3c4.4.1 3.9-2.6 1.6-3.3-2.1-.7-2.3.5-4.3.1 9.4-46.9 40.1-85.9 81.7-106.4-.3 1.4-.1 3.2 1.9 2.2 1.7-.8 2-1.6 2-2.3q.5.5 1.3.7c3.5.7 6 1.6 6.6 0 .6-1.7 1.7-3.3 1.7-3.3l-2.3-2.4c17.4-6.9 36.6-10.7 56.5-10.7 34.4 0 66 11.4 91.6 30.4-1.1 1.1-.5 2.5-.5 2.5.9.1 1.3 1 2 1.2q-1 0-2 .4c-2.1.9-8.1 4.5-3.3 5 4.7.5 3.9 1.5 3.3 3.3s-3 3.3 0 3.3 4.5-1 5-3.3c.4-2.3 4.3-1 1.6-3.3s-4.9-1.7-4.9-1.7l3.3-3.3s-1.1-.4-2.2-.4q.3-.2.5-1.2 0-.2 0-.2 4.2 3.2 7.9 6.6l-29.7 29.6c-12.6-10.9-27.7-19.2-44.2-23.5 1.1-1.1-1.2-2.9-3.3-2.6-1.2.1-1.7.8-1.7 1.5q-.5 0-1.1-.1.6-.7 1.1-1.4c2.2-3.2 1.1-.8 1.7-3.3.4-2.5-.7-2.3-5-1.7-4.4.7-2.2 1.5-1.6 5q0 .3.1.5-9.1-1.5-18.6-1.5c-33.8 0-64.1 15.2-84.5 39.1q-.5-.1-1.1-.1c-3 0-5.5 1.8-3.3 3.3q.6.5 1.3 1c-14.4 18.7-23 41.9-23 67.4 0 61 49.5 110.5 110.6 110.5q1.3 0 2.4 0c0 .2.4.6 1.2 1.1 2.8 1.8 1.9 3 3.3 1.7 1-1 .1-2.4-.8-3q6-.3 12.1-1.3 0 .3.3 1c.4 1.8-1.7 6 1.6 3.3 3.3-2.8 3.3-3.3 3.3-3.3s-1.1-1-2.5-1.5c20.7-4 39.1-13.5 54-27.1l29.6 29.5q-4.3 4-8.9 7.9c0-.4-.6-.6-1.2-.6-2.1 0-2.1.3-1.6 1.7q.1.3.1.8-10.4 8.1-22.3 14.3c0-.1-.4-.2-.9-.2-2.4-.2-3.7.5-3.3 1.6q.1.5.3.7-9.8 4.8-20 8.1-.2-.2-.2-.5c-.5-1.8-1.3-2.5-1.6-3.3-.4-.9-1.7 0-1.7 0s-2.8 1.5-1.6 1.6c1.1.2-1.4-.3 0 1.7.4.8 1 1.3 1.4 1.6q-2.5.7-5.1 1.4c-.3-.6-1-.9-1.3-1.4-.8-1.1-2 .5-3.3 0s-.5-.1 0-1.6 2-.6 1.7-1.7c-.4-1.1-.6-1-3.3-1.6-2.9-.7-1.9-.2-1.7-1.7s.3-.5 1.7 0c1.2.5 1.8-.1 3.3-1.6 1.4-1.6.4-1 0-1.7l-1.7-1.6s1 .6 1.7-1.7c.6-2.3 1.1-1.4 1.6-3.3s-1.2-1.1-1.6-1.7l-.8-.2c.2-.6-.3-1.1-.9-1.4-.7-.3-1.2.7-.8 1.4q-.4 0-.8.2c-1.7 1 0 1.7 0 1.7h-1.7l-1.6-3.3s-.7.7-1.7 1.6c-1.1 1 0 1.6-1.6 1.7-1.7.1.1-1.8-1.7-1.7-1.9.2.2.7-1.6 1.7-1.9 1-1.7 1.6-1.7 1.6s-1.1 2.5 0 5c1 2.5 2.8-.7 5-1.6 2.1-1 1.6-.2 3.3 1.6 1.6 1.8-.4-.1-1.7 3.3-1.3 3.5-1.1 1.1-1.6 3.3-.7 2.2.8.7 3.3 0 2.4-.7 1.6 0 1.6 0s.3 1 0 3.3c-.4 2.3-.7-.7-1.6 0-1.1.7-1.5 1-3.3 3.3q-.6.6-.6.8-12.1 2-24.5 2c-84.2 0-152.3-68.3-152.3-152.4zm87.8-137.8h-.8q.4-.1.8-.5 0 .4 0 .5zm284.5 19.8s-5.4 3.4-1.7 3.4c3.6 0 1.7-3.4 1.7-3.4zm-79.3 229.6c3.1.2 1.4-3.4-1.7-3.3-3.1.2-1.5 3.2 1.7 3.3zm18.2 1.7c2.7-.2 1.2-4-1.7-3.3-3 .7-1.2 3.4 1.7 3.3zm-5 8.2c-1.5.2-2 4.2 0 3.3 2-.8 1.4-3.4 0-3.3zm-8.2 1.7s-1.1 1.4-1.7 3.3c-.7 1.9.6 4 1.7 5 .9.9 4.9-1.7 4.9-1.7s-.7-1.6-3.3-1.6c-2.7 0-1.6-5-1.6-5zm-5 1.6s-4.4 4-1.7 3.4c2.7-.7 1.7-3.4 1.7-3.4zm-1.7-4.9c-2.7 1-4.5 2.6-1.6 3.3 2.8.7 3.3 0 3.3 0s1-4.3-1.7-3.3zM689 725c-1.9-.7-4.3-1.5-3.3 1.6 1 3.2.6 5.3 3.3 3.3 2.7-1.9 1.8-4.3 0-4.9zm24.8-8.3s-5.5 4-1.6 3.3c3.7-.7 1.6-3.3 1.6-3.3zm1.7 36.3c-2.1.2-4.8 3.3-1.7 3.3s3.6-3.4 1.7-3.3zm72.6-71s-5.3 3.6-1.6 3.3c3.6-.3 1.6-3.3 1.6-3.3zm-13.2-39.6c-2.3-.3-5.3 2.7-1.6 3.3 3.6.5 3.9-3 1.6-3.3zm28.1-8.3c-3.8 1.5-7.3 1.5-3.3 3.3 3.9 1.8 5-1.6 5-1.6s2.1-3.2-1.7-1.7zm-9.9 11.6s-2 2.7 0 3.3c1.9.5 0-3.3 0-3.3zm0 28.1c-3 .1-8 3.3-3.3 3.3 4.6 0 6.2-3.5 3.3-3.3zm1.7 13.2c-2.8-.3-4.6 4.1-1.7 3.3 2.8-.9 1.7-3.3 1.7-3.3zm-5 9.9s.3 2.5 3.3 4.9c2.9 2.5 2.1-1.6 5 0 2.7 1.7 4.4 1 9.9-3.3 5.4-4.2.5-1.8 0-4.9-.7-3.2.4-2.6-1.7-3.3-2.2-.7-1.5-1.5-3.3 0-1.9 1.5-2.3 3.8-4.9 3.3-2.8-.6-2.9-.2-6.7 0-3.8.1-1.6 3.3-1.6 3.3zm-5-6.6c-2.3 0-3.9 3.6-1.6 3.3 2.2-.3 3.9-3.3 1.6-3.3zm0 9.9s.5 1.8 0 4.9c-.5 3.2 1.4.7 5-1.6 3.4-2.3-2-2.8-5-6.6-3-3.9 0 3.3 0 3.3zm-1.6 1.6c3.7 0-1.4-5.6-3.3-4.9-2.1.7-.5 4.9 3.3 4.9zm18.2 23.2s1.8.5 3.3 0c1.4-.6 1.1-4-1.7-3.3-2.9.6-1.6 3.3-1.6 3.3zm6.6 1.6c1.8.2 0-3.3 0-3.3s-1.9 3.2 0 3.3zm23.1-1.6c3.6-1.8 1.4-3.3 0-5-1.5-1.6-.7-1.9-5 0s-1.6 5-1.6 5 2.9 1.8 6.6 0zm1.6 3.3s-4.6-.9-3.3 1.6.5 6.1 3.3 3.3 0-4.9 0-4.9zm10-3.3s-5.5 3.6-1.7 3.3c3.7-.3 1.7-3.3 1.7-3.3zm0 14.8s-6.5 1.5-3.4 3.3 4.8 4.3 5 1.7c.1-2.6-1.6-5-1.6-5zm18.1-1.6v-3.3l.8-.9 1.7 1.7c-1.2 1.4-2.5 2.5-2.5 2.5zm3.3 16.5s-5.3 2.5-3.3 3.3 3.9 1.6 5 0c.9-1.7-1.7-3.3-1.7-3.3zm-8.2-5c-2.8.2-4.8 2.8-1.7 3.3 3.1.6 4.3-3.4 1.7-3.3zm-1.7 6.6s-3.7 1-1.6 3.3c1.9 2.4 3.4 6.5 4.9 3.3 1.4-3.1-3.3-6.6-3.3-6.6zm6.6 11.6c-2.2-.3-3.3 1.7-3.3 1.7s-1.2-1.8-3.3 0c-2.2 1.8-5.5 2.6-1.6 3.3 3.7.6 7.3-1 8.2-1.7 1-.7 2.1-3 0-3.3zm6.6-6.6c-1.9.8-4.5 4.3-1.6 5 2.7.6 4.9 0 4.9 0 .5-2.4-1.5-5.8-3.3-5zm1.7 8.3c-1.9-.2-7.2-.6-3.3 1.6 3.7 2.2 5.1-1.5 3.3-1.6zm-5 4.9c-2.7.5-6.8 3.6-3.3 3.3s5.9-3.8 3.3-3.3zm9.9 11.6c-3.5 0-8.5.8-4.9 1.6 3.4.8 2.6 3.6 4.9 1.7 2.3-2 3.5-3.3 0-3.3zm-9.9-3.3s-2.7 4.1 0 3.3c2.6-.9 0-3.3 0-3.3zm9.9 8.2s-5.2 4-1.6 3.3c3.4-.6 1.6-3.3 1.6-3.3zm-303.9-54.5s1.1-1.9 0-1.6c-1.2.3 0 1.6 0 1.6zm11.6-8.2c1.6-.2 1.1-1 0-1.7-1.2-.7-1.7 1.8 0 1.7zm13.2-1.7c-.8 0-2.5.7-1.7 1.7.9.9-.3 3.4 1.7 1.6 1.9-1.8.8-3.3 0-3.3zm-1.7-3.3c-1-.1-.8 1.9 0 1.7.9-.3 1-1.5 0-1.7zm10 6.6s-1.7 2 0 1.7c1.6-.3 0-1.7 0-1.7zm-6.7-6.6c0 1.8.3-.1 1.7 0 1.3.2.8-.8 1.7-1.6.8-.9-.9-2.2-1.7-1.7s-1.7 1.5-1.7 3.3zm0-6.6c.5-1.5 1.7-1.9 0-1.7-1.6.3-3.1 1.2-1.6 1.7.6.1.8.5 1.1.7-.5.7-.1 1.2.5 1 .9-.3 1.3-.2 1.7-1.7.3-1.5-.5-1-1.7 0zm-1.6-6.6c2.1 1.5 1.6 0 1.6 0s.3-1.5 0-3.3.5-.3-1.6 0c-2.2.3.1-1-1.7 0-1.9 1-.5 1.8 1.7 3.3zm8.3 1.6c.4 1.2 1.8-.2 1.6 0-.2.3-.4 1.8 0 3.3.3 1.6.4.3 3.3-1.6 2.8-1.9-.2-2.3 0-3.3 0 0-1.2-.7-3.3-1.7-.7-.2-.8-.5-1.1-.6 0 .1-.1.4-.5.6-1.7 1-.6 2.2 0 3.3zm1.6 14.9c-1.1 1.5 1.3.7 3.3 0s.4-.7 1.7-1.6c1.1-1-.4-2-1.7-1.7-1.4.3-2.3 1.8-3.3 3.3zm8.3-4.9c-.6-.6-.9.9 0 1.6.8.7.9 1 1.6 0 .6-1-1.2-1.1-1.6-1.6zm0 3.3s-3.9.5-1.7 1.6c2.1 1.1 2.9 1 3.3 0 .3-1-1.6-1.6-1.6-1.6zm6.6 0c-2.1-.3-2.2.9-1.7 1.6s.6.5 1.7 0c.9-.5 1.9-1.4 0-1.6zm-3.3-6.6c-.9 0-2.9-.2-1.7 1.6 1.1 1.8 2.1 3.3 3.3 1.7 1.1-1.7 1.7-3.3 1.7-3.3-1.2-.3-2.5 0-3.3 0zm1.6-5c-1.3.8-4.1 4.4-1.6 3.3 2.4-1.1 2.9-4.1 1.6-3.3zm3.3 8.3c-1.2.2-1.3 2.1 0 1.6s1.1-1.9 0-1.6zm-8.2-6.7c-1.1-.2-1.3 2.2 0 1.7 1.1-.5.9-1.4 0-1.7zm-3.3-18.1c-1.3.1-2.5 0-1.7 1.6.8 1.7-.5 3.2 1.7 1.7 2-1.5 3.3-3.3 3.3-3.3s4.4 2.3 1.6 0c-2.9-2.4-2-2.5-3.3-1.7-1.3.9-.5 1.5-1.6 1.7zm-1.7 4.9c-.8-.1-1.1 2 0 1.7 1-.3.8-1.5 0-1.7zm9.9 1.7c-1.2 1-.5 1.5 0 3.3s1.7-.8 3.3-1.7c1.7-.8-.4-2.7-1.6-3.3-1.4-.5-.6.7-1.7 1.7zm3.3 3.3c-1.2.5-3.3 0-1.6 1.6 1.6 1.7-.9 3.2 1.6 3.3 2.5.2 2 1.2 3.3 0 1.3-1.1 3.8 1.2 1.7-1.6-2.2-2.8-3.9-3.8-5-3.3zm3.3-3.3c-1.5.5-3 .7-1.6 1.6 1.2 1 1.6 0 1.6 0s1.4-2.1 0-1.6zm11.6 6.6s-4.5 4.3-1.7 3.3 4.3-3.3 1.7-3.3zm4.9-8.3s0 .2 1.7 1.7c1.6 1.5 1.6-1.7 1.6-1.7s0-.9-1.6-1.6c-1.7-.7-1.7 1.6-1.7 1.6zm6.7 0s.4-.3 1.6-1.6c1.1-1.4 1.1-.2 1.7-1.7.4-1.5-1.3 0-3.3 0-2.2 0-.9 1.7 0 3.3zm-5-4.9s-1.5 2.2 0 1.6c1.4-.5 1.9-2.2 0-1.6zm-9.9-18.2c-1.2-.1-3.9 1.5-1.7 1.7 2.1.1 2.8-1.5 1.7-1.7zm-166.8-21.5c1.2.2 1.9-1.6 0-1.6 0 0-1.4 1.5 0 1.6zm-18.2-31.3c1.3-.3 1-2.5 0-1.7-1.1.8-1.4 1.9 0 1.7zm79.3 92.5c1.6-.2 1.1-2.2 0-1.7-1.2.5-1.7 1.8 0 1.7zm3.3 1.6s.8.7 3.3 0 .4-1.9-1.7-1.6c-2.2.2-1.6 1.6-1.6 1.6zm38-16.5c-1.5.1-2.2.1-1.7 1.6s-1.2 4 1.7 1.7c2.7-2.3 1.4-3.5 0-3.3zm13.2-5c-.8.3-1.9 1.8 0 1.7 1.8-.2.8-2 0-1.7zm1.6 8.3c-1.3.5-3.7 1-1.6 1.6 1.9.7 3.3 0 3.3 0s-.4-2.1-1.7-1.6zm0 3.3c-2-.2-3.5 1.6-1.6 1.6 1.8 0 3.6-1.5 1.6-1.6zm3.3-6.6c-1.3 1-2 4.3 0 3.3s1.7.1 1.7-1.7-.4-2.6-1.7-1.6zm-9.9 11.5c-2-.1-3.3 1.8-1.6 1.7 1.6-.1 3.6-1.5 1.6-1.7zm-3.3 6s-.4 2.2 1.1.9c1.4-.9 0-2.6-1.1-.9zm-4.9-1c-1.4-.7-4.2 1.5-1.7 1.7 2.5.1 2.9-1 1.7-1.7zm-109-61.1c2 .8 2.7-3.5 0-3.3-2.9.1-2.2 2.5 0 3.3zm127.1 67.7c2.1-1 3.1 1.7 1.7 1.7h-1.7s-2.2-.7 0-1.7zM684.1 502l3.3 3.3s2.1-1.5 1.6-5c-.5-3.4-.3-2.7-3.3-1.6s-1.6 3.3-1.6 3.3zm31.4 51.2c3.4 1.8.6-5.3-1.7-5s-1.9 3.2 1.7 5zm-6.6 23.1c-1.5 1.9.9 2.3 3.3 5 2.2 2.6 2.2-1.2 4.9-5 2.6-3.8 1.7-3.3 1.7-3.3s-1.5.1-6.6-1.7c-5.2-1.7-1.9 3.1-3.3 5zm-21.5-128.8c2.8.3 1.8-4.2-1.7-3.3-3.5.8-1.2 3 1.7 3.3zm62.8 33c2.9.3 1.1-4.1-1.7-3.3 0 0-1.4 3 1.7 3.3zm11.5 6.6c1.3.8 2-4.1 0-3.3s-1.3 2.5 0 3.3zm9.9 0c2.3.7 1.1-4-1.6-3.3-2.9.7-.7 2.6 1.6 3.3zm9.9-3.3s2.1-3.3-1.6-3.3c-3.9 0 1.6 3.3 1.6 3.3zm-6.6 5c-1.2 1.5-1.2 3.1 3.3 1.6s1.2-1 3.3-3.3-.5-1.9-3.3-1.6-2.2 1.8-3.3 3.3zm14.9 1.6c-1.9 3 .4 4.8 1.6 3.3s.2-6.3-1.6-3.3zm9.9-3.3s-4.4-.8-3.3 1.7c1 2.4 1.4 5.7 3.3 3.3 1.8-2.5 0-5 0-5zm-280.8-34.7c1.4.7 1.4-3.3 0-3.3-1.5 0-1.5 2.6 0 3.3zm193.3 117.3c3 .8 1.4-3.2-1.7-3.3-3.1-.2-1.5 2.5 1.7 3.3zm-11.6-31.4c2.8 1 1-2.8-1.6-3.3-2.8-.5-1.3 2.3 1.6 3.3zM626.3 464c-.7 1.8 2.9 1.8 3.3 0 .3-1.8-2.7-1.8-3.3 0zm-56.2 0c2.9 1 2.6-2.5 0-3.3-2.7-.8-3 2.3 0 3.3zm-8.2 8.2s4.5-3.3 1.6-3.3c-3 0-1.6 3.3-1.6 3.3zm33 3.4c-1.4 0-5.5 4.2-1.7 3.3 3.8-1 3-3.3 1.7-3.3zm-104.1-6.7c2.8.7.5-4.1-1.6-3.3-2.2.9-1.2 2.7 1.6 3.3zm-4.9 3.3c2.6 1.2.6-3.4-1.7-3.3-2.3.2-1 2.2 1.7 3.3zm-3.3 8.3c2.1 1.7 1.9-5.2 0-4.9-2.1.2-2.2 3.3 0 4.9zm8.2-9.9c-2.1 1.8.2 5.1 1.7 3.3 1.4-1.8.4-5.1-1.7-3.3zm-67.7 77.6c3.8.7 2.3-4-1.6-3.3-4 .7-2.2 2.6 1.6 3.3zm-9.9 16.5c-.5 2.2 3.6 4.5 3.3 1.7-.4-2.8-2.9-3.8-3.3-1.7zm218-72.6c2.7 1.1 3.1-3.2 0-3.3-3.1-.2-2.7 2.2 0 3.3zm-8.2-26.5c-2.2 2.4-1.2 3.3 1.2 2.4 1.5-.7.9-4.7-1.2-2.4zm-294.7 32.3c6.9 6.1 12.7 18.2 12.4 26.1-.4 8.2-4.4 14.7-11.1 14.7-6.6 0-11.6-3.6-12.5-10.2-.7-4.4.9-9.8 1.3-15q1.4.1 3.5-.3c7.5-1.2 3-1.1 4.9-3.3 2-2.1-1.1-2.2-4.9-3.3-2.4-.7-3 .4-3.9 1.5q-.3-1.5-.9-2.8c-3.2-6.3-28-12.7-39.7-8.7-11.7 3.8-21.3 13.2-20.5 33 .8 18.4 17.7 26.1 22 29.9s15.7 4.8 14.9 11.5c-.7 5.7-11.4 6.5-21.2 10.3-8.5 3.5-32.2 19.6-37.2 57.4-2.4 19.7 4.7 48.9 24.8 62.8 20.8 14.3 47.2 14.3 66.1 6.3 15.2-6.3 28.5-24.5 32-41.9 2.7-12.6 2.5-39.4-12.6-50.3-6.6-4.9-25.5-8.2-35 6.6-1.9 3.2-3.7 5.5-5.5 7.3-1.1-.7-1.8-1.6.1-2.3 3.6-1 .7-2.2-3.3-1.7-3 .6-.5 4.2 1 6.1-1.9 1.2-3.7 1.9-5.8 1.9-4.4.3-12.9-8.3-3.6-15.8 4.9-3.9 13.7-9.1 26.6-13.6 10.9-3.8 24.8-5.8 42-13.8 1 .5 1.2 1.2 2.6 2.2 2 1.5-2.2 6.6 1.7 5 3.8-1.7 4.1-5.4 4.9-1.7.7 3.4 6.1 3.4 5.9 1.5-.6-5.2-3.7-2.3-2.6-4.8 1.8-4.1-5.1-.7-6.6-3.3-.4-.7-.7-1.1-.7-1.7q1.7-.8 3.3-1.8 2.1-1.1 3.9-2.4c1.9.8 3.4.9 3.4.9l1.7-3.3-1.8-.5c16.6-16.1 17.6-46-2.1-40.8-4.9 1.5-6.6 7.3-4.1 19 1.4 6.2-6.5 12-15.7 10.6-5.1-.8-13.2-9.9-7-20.9 8.1-14.7 24.1-21.2 35.5-17.4 7.3 2.5 12 7.9 15 17 3.3 10.4-1 21.9-5 28.1-3.9 6.3-14.1 16.1-16.5 26.4-2.3 10.5 5.5 18.6 8.1 35.5 2.1 13.6 1 35.4-14.1 56.3-16.3 22.7-47.5 32.9-74.6 33.3-13.8.1-28.5-2.9-47.1-11.6-23.4-11.2-35.8-28.4-40.6-42.5-4.8-13.6-6.6-36.5.8-52.8 11-24.1 35.2-39.3 46.3-45.4 4.1-2.4 11.7-4.2 4.9-8.3-6.7-4.1-14.2-10.3-19-17.8-6.9-10.7-8.4-32.6 6.8-48.3 15.4-15.7 34.2-18.4 45.9-17.3 13.9 1.3 23.3 5.8 32.9 14.4zm54.7 86.3c1.8.7 3.1-3.8 0-3.3-3.2.7-1.8 2.8 0 3.3zm-67.7-85.8c.3 2.3 3.1 2.3 3.3 0 .1-2.4-3.6-2.4-3.3 0zm61.1 140.3c3.4.7 1.2-3-1.7-3.3-3-.1-1.8 2.8 1.7 3.3z"/><path d="M862.6 304.6l32.2-87.5c3.3.5 2.1 1.8 4.4-.2 2.5-1.9 3.3-1.6 3.3-1.6s-.1 2.7 1.7 1.6c1.7-1.1 3.3-1.1 1.6-3.3-1-1.5-1-2.9-1.6-3.3h3.3c0-1.9-.2-3.8-1.7-3.3-1.1.4-3.6 2.5-2.6 3.2q-.4 0-.7.1c-2.6.8-4 .3-5 1.7q-.6.9-1.3 1.3l4.1-11.5c.8 0 1.2.2 2.2.2 1.4 0 1.7-1.6 1.7-1.6l1.6-1.7 1.7 3.3s-.6 3.2 1.6 1.7 3.5-1.1 3.3-3.3c-.1-2.2.5-1.7 1.7-3.3 1.1-1.7 2.4.4 3.3-1.7.8-2.1 3.8-.5 1.6-3.3-2.2-2.7-3-3.8-4.9-3.3-2 .6-5.5-.9-5 1.7s1.7 4.4 0 4.9c-1.6.6-3.3 0-3.3 0s-1.4.6 0-1.6 0-3.3 0-3.3-.1-.3-1.1-.3l15.7-42.7q1.4 0 3.6 0c2.7.2 1.8-1.6 1.6-3.3-.1-1.6-1.6-1.6-1.6-1.6s-1.1 1.1-2.4 1.5l19.7-53.4h41.6l-29.3 79.8c-.4-.5.2-2-1.5-1.5-2 .4-2.5.3-3.4 1.7-.8 1.2.6.8-1.6 1.6s-3.3 1.7-3.3 1.7l1.6 1.6s0 1.1 1.7 0c1.6-1.1 1.6-3.3 1.6-3.3l1.7 1.7s-.3 3.1 1.1 1.9l-3.7 10.3c-.8-.8-1.5-1.2-4-.7-3.3.7-5 1.7-5 1.7v1.6s-2.3 2-3.3 1.7c-.9-.3-3.4.4-1.6 1.6s3.1 3.6 4.9 1.7c1.8-2.1.7-2.2 1.7-3.3.3-.3.3-.6.3-.6 0 .3-.2.6 1.3.6 1.8-.2 2.7 1.2 3.9 1l-83.1 226.1-62.1-169-61.7 169-110.8-301.4h41.5l27.9 75.9c-2.6-.4-7.4 2.8-3.3 3.3 1.8.2 3.4.2 4.4.2l5.5 14.7c-1.7.3-2.2 1.9 0 3.3.5.3 1 .3 1.1 0l33.4 91 62-169.2zm-280.5-57.9V286h-99.4v92.8h92.6c-.8 1.5-1.5 3.3-1.5 3.3.5.7-1.6 1.7-1.6 1.7s-1.8 1.9 0 3.3c1.8 1.3 1.5 1.2 3.3 0 1.8-1.1-.5-3.5 1.6-3.3 2.2.1 3.2-1.1 3.3-1.7.2-.4 0-3.3 0-3.3h28.2c-.1.4 0 .8-.1 1.7-.4 1.6-1.7 3.3-1.7 3.3s-1.9-.7-1.6 0c.4.7 1.6 1.6 1.6 1.6s.2.2 0 1.7c-.1 1-1.5 2.6-1.2 3.3q-.3 0-.4 0c-1.7.1-2.9 4-1.9 5.1-1.7 1.3-2.4 2.9.2 3.1 4.6.7 6.4 6 6.7 1.7.3-4.1-.3-7-3-6.6.9-1.5.2-2.6-.8-3.2q.2 0 .4-.1c3.1-1 3.1-2.6 3.4-3.3s0 0 1.6-1.7c1.7-1.6.5-.4 1.7-3.3.5-1.2 1.3-2.5 1.8-3.3h2.3c-.2.6-.5 1.1-.8 1.7-.9 1.5-2.1.4-1.7 1.6.5 1.4 2.3 3.2 1.7 3.3-.7.2-1.2-2.2-1.7 0-.3 1.1-1.3 1.8-1.9 2.5-.7-.3-1.3-.3-1.4.8-.3 1.8-.4 2.7 0 3.3.5.7-2.1 2.7 1.7 1.7s5.3.5 4.9-1.7c-.3-1.6-1-2.3-2.3-2.7q.4-.3.7-.6c1.6-1.5 2.1.6 3.3-1.6 1.2-2.1 3.3-1 1.6-3.3-1.6-2.4-1.2-2.5 0-3.3.7-.3 1-1 1.4-1.7h8.1c-.3.6 0 1.1.4 1.7 1.2 1.3 2.2 3.8 3.3 1.6 1.2-2.2 1.8-1.9 1.7-3.3h27.2v20c-.9 0-1.9-.2-2.4-.2s-3 1.4-1.7 1.7c1.4.4 2.3.8 1.7 1.6-.7.9-4.2 2.7 0 1.7q1.5-.3 2.4-.7v15.3H482.7v.3h-39.4V286h-41.6v247.5l-39.3-39.2v-99c.4-.1.8-.3 1.6 0a38.92 38.92 0 0 0 5 1.8c1.8.6 4.8-.9 3.3 1.5-1.5 2.5.8 1.4.8 1.4s-.4 3.3 2.5 1.9c2.2-.9 0-.9 0-1.6 0 0 1.4-.7 1.7 0 .4.7.9 1.2 3.3 1.6 2.3.6 2.4-1.1 3.3-3.3.8-2-.9-.6-1.7-1.6s-2.1-.7-4.9 0-.5-1 0-3.3-.2-1.5-1.7-1.7c-1.5-.1-1.9-1.1-1.6-3.3.2-2.2-2-3.1-3.3-4.9s-3 0-8.3 0V286H228.3v21.8c-1.3.4-2.9 1.9-1.3 1.7q.6-.2 1.3-.6v3.9c-1.2.1-2.3 1.6-1.3 1.6.8 0 .8.4 1.3.2v7.9c-1.2-.8-.5-.8-1.3-1.5-.9-.8.6-1.5 0-1.6-.7-.2-.3-.9-1.7 0-.8.5-1.1.4-1.6 0 .8-.6.6-1 0-1.7-.5-.7-.7 1.4-.3 1.7-.4-.2-.7-.2-1.4 0-1.7.5-2.5-2-3.3-3.3s-2.1.8-3.3 1.6c-1.1.8-1.4.7-1.7 1.7-.3.9 1.5.1 3.3 1.6s-.8.2-1.6 1.7-.2 2.2 0 3.3c.1 1.2 0 .6 0 3.3 0 2.6 1.6-.3 1.6 0 0 .4 1.4-.6 1.7-1.7.4-1.1.4-1 1.6-1.6 1.4-.7 1.3.5 3.4 1.6s-.9 1.8-1.7 1.7c-.8-.2-1.1 0-1.7 0-.4 0-.6 1.9-1.6 1.6s-.7 0-1.7 0c-.9 0 0 .7-1.6 0-.8-.3-1.4-.3-1.7-.3-.1-.4-.9-.9-1.6-1.3-1-.3-1.1.4-1.7 0-.4-.3 1.3-.9 1.7-1.7.5-.8-.3-1.1-1.7-1.6-1.2-.6-.9.5-1.6 0-.7-.6-.7-.9-1.7-1.7-.9-.8-1.2-1.2-1.6-1.6-.3-.3-1.8 1.3-3.3 1.6q-.6.2-.7.4-.4 0-1-.4c-1.5-.8-1.9 0-1.6-1.6.4-1.7.7-3.2 1.6-3.3 1-.2 2.2 1.5 2.5-1.3.5-3-1.6-2.3-2.5-2-.8.2-1.1 1.3-1.6 1.6-.6.4-1.7 0-1.7 0s-.4-1.6 0-1.6-.1-1.2-.1-1.5c-.3 0-1 0-1.5-.2-1-.3-1.3-.3-1.7 0-.3.4.2-1 0-1.6-.1-.7-1.1-.9-1.6 0-.6.8-.9 3.1 0 3.3.8.1-.7.5 0 1.6.6 1.1.4.4 0 1.7-.3 1.3.6 0 0 1.6-.7 1.7-2.5 2.9-1.7 3.3.8.6-1.5 1 0 1.7 1.5.6.8-1.1 1.7 0 .8 1.2.6.1 0 1.6-.7 1.5-2.7 2.4-1.7 3.3 1 1 .4 2.1 1.7 1.7 1.3-.3 1.6.7 1.6-1.7 0-2.3-1.8-3.1 0-3.3 1.8-.1 2.9 1.1 3.3 1.7.6.5.7.1 1.7 1.6.9 1.5-1.1 3.2 1.6 3.3 2.9.2 3.2 2.1 3.3 0 .2-1.6 0-2.6 0-3.1.2.4 1.1.5 1.7-.2.8-.8.8-.3 1.6 0 .9.3-.1 1.1-1.6 3.3s0 .7 0 1.7c0 .9.8.7 1.6 0 0 .4-1.1 1.6 0 1.6s2.1-.7 1.7 0c-.3.7-.8 1.1 0 1.7.8.5 2.5 1.8 1.6 1.6-.8-.1-1.1-1.1-1.6 0-.6 1.1-.7.9 0 1.7.4.5 1.2.5 1.8.4q0 .4-.2 1.2-.1 1.3 0 1.7c-.4 0-1.6.4-1.6.1-.6.4-1.5.9-1.7 1.5-.8-3 .9-1.6 0-3.3-.8-1.6-.6-.6-1.6-1.6s-1.1.4-1.7 0c-.3-.2.7 1.2 0 1.6-.7.6-1.2 2.1-1.6 1.7-.3-.3-1 .4-1.7 0 .7-.4.4-.2 0-1.7-.3-1.5.4-.3 0-1.6-.3-1.4 1.5-2.1 0-1.7-1.5.6-.8 1-1.6 1.7-.9.7-.7.7-1.7 1.6-.9 1-.8.9 0 1.7s1 1.9 1.7 1.6c1.5 0 2.5 1.5 3.3 1.7.8.1-.7 1.8 1.6 1.6q1 0 1.7-.1 0 0 0 .1c-.2 1.3-1.8 1.3 0 1.7 1.8.5 3.3 1.6 3.3 1.6s-1.8 2.9 0 1.7c1.8-1.1.5-.1 1.6-1.7q.6-.8.6-1.5c.1.3.4 0 1.1-.1 2.2-.8 3 1.4 3.3 0 .4-1.4-2.5 0-1.7-1.7.6-.8.6-1.2.3-1.5.4.4 1 .7 1.2.3.2.3.7.8 1.4.8 1.3-.2.6-1.6-.7-1.6q-.5 0-.7.1c0-.1 0-.5.2-1.4.5-2.7 1-2.3 0-3.3-.7-.6-.2-1.8-.4-1.9.1 0 .2 0 .4.3.5.7 1 .1 1.6 0 .7-.2-.8-1.1 0-1.7.9-.4 1.3.9 1.7 0 .4-.3.5-.9.8-1.5q.4-.1.7-.4 0 0 .1.3c.6 1.2-.4.4 0 1.6.6 1.4 1.4 3.2 0 3.3-1.2.2-.8.2-1.6 0-.8-.1-1.7 0-1.7 0v1.7c0 .5-3.3.7 0 1.6 3.3 1 2.4 2.9 3.3 1.7 1-1.1 1.7-.4 1.7-1.7v-1.6s1-1.8 1.5-1.8c-.3-.5-.8-1.5.2-1.5h1.6c.5 1-.7.4 0 1.6.7 1.4 1.2 1.5 1.7 1.7.5.1.8-.2 1.3 0v1.8c-.5.5-.4 1.5-1.3 1.5-1.2 0-2 .5-1.7 1.6.4 1.3-1.9.3 0 1.7s1.2.8 1.7 1.6c.5.9 1.3.6-.7 2.1-1.7 1.1-2.5-.4-2.9.3-.2-1.1-.4-2.2.3-2.4.9-.2 1.3 1.7 1.6 0 .4-1.6-.8-1.2-1.6-1.6-.9-.3-.7-1.7-1.7 0-1 1.6-1.5.1-1.7 1.6-.1 1.6-2.3 3.4 0 3.4q2 0 2.7.6c0 .7.2.6.7 2.7.6 2.7 0 2.7 1.6 3.3 1.7.5 2.5 1.2 1.7 1.6-.9.5-.7-1.4-1.7 0-.4.7-1.1.5-1.6.5q0-.1 0-.5c-.2-1.1 1.7-.4 0-1.6-1.8-1.2-.5-1.5-1.7-1.7-1.1-.1 0-1-1.7 0-1.6 1-2.4.7-1.6 1.7.8.9 1.6 1.6 1.6 1.6.7 1.1 1 2.1 1.7 1.7.4-.2.8-.3 1.4-.7q0 .4.3.7c1.5 2 2.6 1.3 3.3 1.6.6.4-1 .8 0 1.7.2.4.8.6 1.3.8v1c-1.6.6-3.8.5-3 1.5.8.9 1 .4 1.7 1.6q.2.8.8 1.1c0 .3 0 .7-.8.6-1.6-.6 0 .8-1.7 1.6-1.6.8.1-1.6 0-1.6-.8-.2-.7.1-1.6 1.6-.5.8-.2 1.1.2 1.5q-.1.2-.2.2c-1 .4-2 1.2-1.7 0 .4-1.1 0-1.7 0-1.7s-.7-.4-1.7 0c-.9.6-2.3 1-1.6 1.7s2.5 1.3 1.6 1.6c-.8.4-.8 1.4-1.6 1.7-.8.4-1.5-.8-1.7 0-.1.8-.4-.7-1.6 0-1.1.7-2.9 1.2-1.7 1.6 1.4.6.6 2.2 1.7 1.7 1.2-.6 1.6 0 1.6 0 .3.7.9.8 1.7 1.6.8.9 1.5 1.8 1.6 0 .2-1.8-.1.3 0-1.6.2-2-1.5-1 0-1.7 1.6-.7 1.7 0 1.7 0s.7-.1 0 1.7-2.9 3.3-1.7 3.3c1.4 0-.2.8 1.7 0s3.3.5 3.3-1.7.7-1.9 0-3.3c-.7-1.2-.3-.1 0-1.6.1-1 .5-.8.5-1 .3.2.5-1 1.2-.7.5.4.9-.1 1.3-.7v2.1c-.7-.4-1.5-.4-1.3.3.1.8-1.7 1.8 0 1.6h1.3v4.2c-.7-.2-1.3.1-1.3.8-.2 1.3 0 1.6 0 1.6 0 .9.6 1.3 0 1.7-.7.7-2.4.7-1.7 1.6.8 1 .7 3.1 1.7 1.7.9-1.1.2-2.1 1.3-3.2v23.4l-25.6-25.6c.8-.7 1.7-1.4 1.1-2.9-.7-1.8-1.1-2.2-3.3-1.6q-1.1.4-1.6.7L189 378v-92h-5.1c.1-.4.1-.6.1-1.3 0-1.1-1.6-1.4-1.6-1.7s1.2-2.3 0-1.6-2.8.9-1.7 1.6q.2.2.4.2c-.2 0-.5.1-.4 1.5q.2.8.2 1.3h-10.2c-.2-.5-.6-1.5.1-1.3.8.1-.8-1.8-1.7-1.7-.8.2 0 1.7 0 1.7s-.2.7-.1 1.3h-8.4c0-.4.1-.6.3-1.3.8-2.6 2.3-1.4 1.6-3.3-.6-2 .7-3.3-1.6-3.3-1.5 0-2.9-.6-3.3-1 1 .1 1.6 0 1.6-.7 0-.4.3-.8.3-1.1.7 1.1-.1 2.8 1.4 1.1 1.6-1.9 1.8-3.6 1.6-3.3-.1.4-.8-.7-1.6 0s-2.9.5-1.7 1.7c-.8-.2-1.5-.9-1.6 0-.2.8-3.5.6-1.7 1.6-.8.7-1.6.4-1.6 1.7s-.2.9 0 1.6c.1.7-.8.7-1.7 1.7-.8.9-2.7-1-1.6 1.6a3.93 3.93 0 0 1 .1 3h-11.5c.2-.9-.2-1.3-.2-1.3s-1.9-.6-3.3 0c1.7-.7 3-1 1.7-1.7q-.8-.2-1.3.3-.2-.1-.2-.1c.5.1 1.5-1.8 1.5-1.8s-.6-2.4-1.7-1.7-.1.6 0 1.7c.2 1.2-.3.8 0 1.6-1.4-.9-2.3-.8-1.6 0 .2.6.9.7 1.5.7-.6.7-.7 1.1 0 1-.6.4-.7.7-.7 1.3h-4.1c0-2 .2-2.2 0-3-.3-.8 0-1.6 0-1.6s-.7-.7-1.7 0q-.4.4-.8.5c.1-.4 0-.7-.8-.5q-.5 0-.9.1c.4-.3.4-1.5.9-1.8.8-.4-1.3-.4-1.7-1.6-.3-1.1-.4-.9-1.7-1.7-1.1-.8-.2-.1-1.6-1.6s-.7.5-1.7 1.6c-.9 1.1 1 1.5 1.7 1.7.7.1 1.9 1.9 3.3 3.3q.4.4.5.4c-.9.5-1.3 1.4-.5 1.2 1-.1 1.2.3 1.7 0-.3.8.9 2.4-1.7 1.7s-2.3-1-3.3 0c-1 .8-2.3.5-1.8 1.3H104c.3-.5.4-.9.7-1.3 1-1.1-.3-1.1-1.6-1.7-1.3-.4-.9 1.1-.2 3H97l-39.3-39.3h60.2c.2 1.3 0 1.6 0 1.6v1.7s-1.5-2.5-1.6-1.7c-.2.9.1.3-.7 1.5-.3.6-.3 1.2-.3 1.7-.7.3-.7 1.8-.7 1.8s.3 1.8 1.7 1.6c.7 0 1.2-.6 1.2-1.5.4.4 1.3.6 1.8.3q.1-.3.3-.4c.8-.7 1.2-1.4 1.5-1.1 1.1 1.1 1.5 3.3 1.8 3.7.8 2.3 1.9 1.1 2.6.8.7 0-.1.3.3 2.2.1 2.1-.7.6.4 2.7.7 1.2 2.6.2 3.3 0-1 .5-3.7 2.4-1.6 3.3.9.5 1.5 1.2 1.7 1.6q0 0-.1 0c-1.8.5-.8 2.2 0 3.3s2.5-.8 3.3-1.6c.7-.6-.3-1.3-1.6-1.7 1.6-1.1 1.8 0 1.6-1.6-.1-1.7-.1-.6 0-1.7.2-1.1 1.7 0 1.7 0v1.7c0 .2 2.7-.3 3.3 0 .5.2.4.5 0 1.6-.3 1.1-2.4 4.3 0 3.3 2.3-1 2.3-1.6 3.3-1.6-.9.6-.9 1.8 0 1.6.8-.1 2.2 1.4 1.6 0q-.3-.8-.4-1.4.1-.1.4-.2c1.7-1.3 1.4-3.1 1.7-3.3.4-.3 1.3 1.5 1.6 0 0 2.7-.4 1.5 0 3.3.6 1.8 1 1.6 1.7 1.6s2 1.1 0 1.7c-2 .5-3.6.8-1.7 1.6 2.1.8 3-.1 3.3 0 .4.2-1.2.7 0 1.7 1.4.9.8 1.6 1.7 0 .8-1.7.4-3.2 0-3.3-.3-.2-1.5-2 0-1.7 1.5.4 3.4-1.5 3.3 0-.2 1.5-1.5.8 0 1.7 1.5.8 3.1 1.5 3.3 0 .1-1.5 1.2-3.6 1.6-3.3.6.2.6 3 1.7 1.6 1.2-1.4 2.2-2.5 1.6-3.3-.4-.8.9-1.6-1.6-1.6s-3.2-.6-5-1.7-3.3-.4-3.3-1.6c0-.9-.3-1.6-.7-1.8q.3.1.7.1c2.1 0 1.5 1 1.7 0 .1-.3.4-.8.5-1.4 1.1 1.5 1.7 3.7 2.8 1.4 1.3-2.6.1-3.6-1.7-3.3-1.8.4-3.1.5-1.6 1.6-.8.7-2.6 1.4-2.4 1.6q-.4-.2-.9.1c-1 .7-.2-.4-1.7 1.7s0 .6-1.6 1.6c-.6.4-.9.4-1.1.4.4-1.1.9-1.9-.6-2-1.9-.3-2.9-2-3.3-1.7 0 0 .6-.7 0-1.7-.7-1.1 2.2-2.6 0-3.3-2.2-.6-5.9-2.4-6.6-1.6s-.8-.2-1.6 1.6c-.9 1.8-2.8-.5-3.3 0-.5.6-2-1.6-1.7-1.6.4 0 1.4-1.4 0-1.7-1.4-.2-1.8-1.2-1.6-1.6 0-.2.5-.3.8-.7.8 1.4.9 3 2.5 2.3.9-.2 1.8-.6 2.3-.8-.2.3-.2.8 1 .8 2.6.2 4.8 2.5 4.9 0 .2-2.4 1.1-3.4 1.7-3.3.5.2.6.2 1.6 0 1-.1 1 1 1.7 0 .6-.9 1.8 0 1.6-1.6h3.7c-.4.5-.4 1.2-.4 1.6.2 1.7 0 3.3 0 3.3s-.4-1.1-1.6 0c-1.1 1.3-2.1.7-1.7 3.3.6 2.7 0 2.7 1.7 3.3 1.6.7 3.4 2.5 4.9 0 1.5-2.4 2.6-3.1 3.3-3.3.7-.1-.3 1.3 1.7 0-.6.3-1 1 0 1.7 1.5 1 1.5-1.5 1.3-1.4-.3.3-.8-.4-1.2-.3 2.1-1.1 4.4.6 3.2-3.3-1.1-3.7 0-4.9 0-4.9h4.9c-1.2.1-1.6 1.6-1.6 1.6s-1.4.6-1.7 1.7-2.6.8 0 1.6c2.7.9 1 1 3.3 0 2.4-.9.9 0 1.7-1.6l1.6-3.3h6.7c-1.3 1.2 0 3.3 0 3.3l1.6 3.3s1.7-1.7 1.7-3.3c0-1.7-2 .8-1.7-1.7q.1-1.1 0-1.6H189V245c.5.6.9 1 3.3 1.7 2.3.7-.3-.8 0-3.3.4-2.5-1 0-3.3 0v-8.3c.8.7.8-.1 1.6 0 .6.2.8.3 1 .3-1.1.7-2.5 1.2-1 1.4 1.7.4 1 1.2 1.7 0 .6-1.1 1.5-2.5 0-1.7.5-.7.8-1.2 0-1.6-.9-.3-.9-1.4-1.7-1.7s-1.2-.4-1.6 0v-3.7q.6.3 1.6.4.8.2 1.4 0c-.4.3-.3 1.5.3 1.7.5.1.8-1.1 0-1.7q0 0-.2 0c.6-.3.3-1 .2-1.6-.2-1 0-2 1.6-1.7 1 .5 1 .2 2.1 1.4.4.8 1.9-2.4 1.2-3-.7-.7-1.1-1.7-1.9-1.2 0-.8-.3-1.6-.3-1.6s1.3 2.2 1.5 0c.4-2.5 1.3 1 2.4 1.1-.2.4.1.4 0 1.7-.2 1.3 1.3.8 1.6 1.6.6 1.4-.4-.1-1.5.2-.8.3-.8.8 0 2.8 1.1 1.8 2.6 1.3 3.3.2.7-1.5-1.6-2.9 0-2.5 1.4.3.8-1.4 1.5-.7 2.1 1.8 1.8.2 2.1.2 0 .1.3-1.7-.4-1.8-.7-.2 1-1.7-.3-2.4-1.2-.8-3.6 1.8-3 .6.4-1.3-1-1-2-.7 0-.3-.4-.8-.6-1.5-.7-1.8.5-2.6.9-2.6.9 0 .4 2.1 1.7 3.3s1.8-.2 3.4-1.5c.4-.2-.1-1.8-.1-1.8s.7-.3 1.5 1.8c.7 2 .7.9 2.2 1.7 1.4 1 3-.2 2.9-1.9-.2-2.3-2.3-1-3.3-3.6-.8-2.5-1.7.3-1.7.3s-.6-2.3 0-5c.7-2.6-1.6-1.6-1.6-1.6s-1 2.9-1.7 1.6c-.4-.9-1.8-1.6-2.6-1.7q.2 0 .3-.2c1.4-.5-1.4-2.5-1-3 .4-.2 1.1-.7 1.8-1.1.3.4.6.7 1.5 1.1 1.4.7 1.8.1 3.3 1.6 1.5 1.6-.1.9 0 1.7.2.8 1 0 1.7 0s2.6 1.8 3.3 1.6c.7-.1.7.9 1.6 3.4 1 2.4 1.4.6 3.3 0q0 0 .2 0c0 .5-.2 1.2-.2 1.6-.1 1.4 0 1.7 1.3 1.7-.6.2-.7 1.8.4 1.6 1.5-.1.8-1 0-1.6 1.6 0 2.2-1 3.3-1.7 1.2-.7 1.7-1.8 1.7 0s.5 1.1 0 3.3 1.5.8 3.3 0 0-3.3 0-3.3-.3-1.1 1.3-1.6v11.2c-.5-.5-.4-.9-1.3.3-1.2 1.5-.9 3.6 0 3.3.6-.1.8-1 1.3-1.5v16.5c-.5-.3-1.1-.4-1.3-.1-.9.7-1.7-.6-1.7 1.6s1 2.2 1.7 1.7c.5-.3.8-.4 1.3-1v1h134.1v-16.5c2.9-.7 3 .5 3.3-1.7.4-1.8-1.8-3-1.9-3.3-.4.3-.9.7-1.4 1.7V217l1.6.1c0 .4.2 1.5 1.7 1.5 1.6 0 1.6 1.7 1.6 1.7v1.6q0 1.5 1.7 0c1.2-1 1.2-1.4 0-3.3-1.1-1.9.5-1.1-1.7-1.6-2-.6 0-1.7 0-1.7s1.3-1.6 1.7-3.3c.5-1.7-1.7-1.7-1.7-1.7l-1.6 1.7s-.4-1 0-1.7c.5-.6-.8-1.9-3.3-1.6v-11.6c2.3.6 1.2 1.5 3.3 0 2.2-1.5 3.3.7 3.3-1.6s-.8-3.2-1.7-3.3c-.8-.2-.2.8-1.6 1.6-1.1.7-2.9-1.5-3.3-.6v-77h39.3v40.3l-1.3-.7s-3.5.7-1.7 1.7-1.2 2.6 1.7 1.6q.8-.1 1.3-.2v12c-1.5.3-5.1.5-3 1.5 2.2.9 2.1 3.1 3 1.9v36.9c-.3-.3-.6-.9-1.3-.9-1.3 0-3.6 1.3-1.7 1.7 1.4.4 2.5.1 3 .1v34.6h41.6V116.2h170.2v39.4H482.7v91.1zm-1.7 132.1h-5.1c.6-.8 1.1-1.6 1.8-1.6 1.7-.2 3.3 1.6 3.3 1.6zM189 116.2h39.1v31.4c-.6-.3-1-.6-1.1 0-.7 1-2.2.4-1.7 1.6.4 1.4 1.3 1 1.7 1.7.1.5.5.8 1.1.5v10.8c-.7-.6-.2-.4-1.1.2-1.4.7-1 2.1-1.7 1.7-.8-.3-.8 0-1.6 0 1.5-.3 3.1-1.4 1.6-1.7q-.5-.1-1.1 0 .3-.1.3-.2c-.4-2.5-2.1-.7-3.3-.7-1.8 0-4.5.4-8.7 1.1-4 .8.3-1.3.3-1.3s.9-2-3.6-.4c-1.2.6-1.5-1.5-2.6 1.3-1 2.6 1.9 1.8 3.8 1.9 1.8.1 3.3 0 3.3 0s-.3 1.5 1.7 1.7c1.9.1 4 .9 5.8-.7l1.8-1.7c-.2.4-.2.7.1.7-.8.1-1.8 1-1.1 1.7.7.6.8.8 2.1.5 2-.8 1.6.4 2.9-.5.5-.7.9-.9 1.1-1v15c-.6.1-.8.5-1.1.8-.7.6-.4 1-1.7 1.7-1.5.6-1.1.8 0 1.6.7.7 2.1.7 2.8.6v10.4c-.3 0-.8.7-1.1.6-.6-.2-.2.8 0 1.6 0 .7.4 2.2 1.1 2.1v6c-.3-.1-.7-.6-1-.9q0-1.4-.1-2.2c-.4-.8 0-2.5-1.7-1.7-1.8.9-3.7 1-3.3 0 .3-.9 1.7-.6 1.7-1.6-.2-1 1.1-2.9 0-3.3-1.3-.3-1.4.5-1.7 0-.5-.6-1.8-.8-1.6 0 0 .8-1.8 1.6-1.7 1.6 0 0-.4 1.4-.1 1.7-.7-.7-1.3-.7-3.2 0-2.2.7-2.3.5-1.7 0 1.3-1 .3-1.8 0-1.7-.1 0-.3.3-.5.7q-.4-.1-1.1-.7c-1.7-.9-.8.6-1.7 0-.6-.3-.9 0-1.9.2.7-.8 1.4-1.4 2.5-2 1.9-.8 1.5 1.4 2.1 1.2.5-.2 1.8 1.9 3.4.6 1.7-1.2 1.5-3.1 2.5-4.2 1.4-1.4.4-2.1-.4-2.4q0 0 .1 0c2.1-.7 2.9-2.2 1.7-1.6-.9.4-2.2 1.2-2.5 1.5q-.6 0-.6 0s-.6-1.7.7-2.2c.7-.3-.8-1.7-.8-1.7s-.5-.9-1.8-.9c.1-.2.7-1.1 0-1.7-.8-.4-.4 1.5-.1 1.7-1.1.1-1.9 1.3-1.9 1.3s-.3.6-2.7 1c-3.4.3-1.8-1.1-3.6-.4-.9.6-1.5 2.1-1.6 1.4-.4-.6-.8-.6-1.2-.6 0-.2-.3-.8-.5-1.1-.4-.4-.8 1-.5 1.5-.7.6-.7 1.4-.7 2.1.3 1.2.6 1.8-.4 2.2-1.2.5-1.4-1.6-1.4-1.6q0 0-.1-.2c.1-.5.3-1 .1-1.4-.4-.5-1.8-1.7-1.9-.9-.4.5-.4.9-.4 1.3q-.3-.1-.6-.4c-.2 0-.8.4-2.2.4-1.8-.1-.4-1.2-1.8-1.3-.5 0-2.2-2.1-3 0-.1.7-1 1.6-1 1.6s-.2 1.5.7 1.7c.3 0-.7 0-1.6.4v-36.9c.4.3 1.1.4 1.6.1.8-.6.8-.8.3-1.5-.4-.5 1-2.1-.3-1.8-.4 0-1.2.2-1.6.9zm-52.9 132.1c-.4 1.1-1.6 1.7-1.6 1.7q0-.2 0 0c-.4-.9-.9-.2 0-1.7.5-1.7.1-.4 0-1.7h1.6c.3 1.6.3.3 0 1.7zm-8.6-1.4c-.5-.1-1-.3-1.3-.3h2.2q-.5.2-.9.3zm-1.3-.3h-.1q0-.1.1 0zm-1.6 1.7c-.9-.1-2.2-1.5-1.7-1.7h3.2c-1 0-1 1.7-1.5 1.7zm72.6-33c-.4 1.2 0 0-1.6 0-1.8-.2.7-2 1.6-1.7.9.2.3.3 0 1.7zm-3.3 3.3c.2 1.3-1.2.1-1.6 0-.7-.3-.6-1.8 0-1.7.3 0 1.2.2 1.6 1.7zm-52.8 44.6c-.9.5-.9-2.1 0-1.7.7.4.7 1 0 1.7zm-6.6-1.7c-.6 1.1-.4 0-1.7 0-1.5-.1 0-1.9 1.7-1.6 1.5.1.3.4 0 1.6zm14.8-3.3c-1.6.4.2-1.9 1.7-1.6 1.2.1-.3 1.2-1.7 1.6zm64.7-53.5s-.4 3.3-2.4.7c-1.3-2-1.8-3.6.5-3.3 2.1.1 1.9 2.6 1.9 2.6zm-20.1 4s.9.9-1.6 1.6c-2.6.5.3-3.4 1.6-3.3 1.1 0 0 1.7 0 1.7zm1.7-6.6s-.4 2-3.3 1.6c-3.2-.4.1-2.6 3.3-3.3 2.9-.8 0 1.7 0 1.7zm-64.4 44.5h1.6c-.5 0-1.1.2-1.6 0zM227 362.3c-1-2.4-.2-3.3 0-3.3.1 0 .8.1 1.2.1v3.6c-.8.4-.7 1.2-1.2-.4zm.4-10.8c.1-.3.5-.6.8-.6v1.3c-.7 0-1.2.4-.8-.7zm-20.3-.8q-.4-.3-.6-.4.6-.6.6-1.2.2 0 .3-.2 0 .2 0 0c1.5-.4 3.3-.4 4.7-.1-.5.1-2.5 1.1-1.7 1.9-.3-.1-.8.2-1.6 0-.8-.1-1.1.5-1.7 0zm3.6.7c-.1-.3-.3-.5-.3-.7.3.2.3.5.3.7zm3-9c-.8.6-1.3.3-1.7 0q.1 0 .1 0c.8-.1.8.3 1.6 0zm13.4-6.4c-1.4.4-1.9.8-1.8 1.5.2.8.4 1.5 0 1.6-.5.2-1.6 0-1.6 0-.2-.2 0-.6 0-1.6s1.5-1.8.4-1.8c.7-.1 1.5-.8 2.9.1q.1 0 .1.2zm-16.7-.2c.6.3 2 .9 3.5 1.4q0 .1-.2.3c-.9 1.4-1.3 1.4-1.6 1.6-.4.3-2 .3-1.7 0 .3-.2-.6-.8 0-1.6s-.5-.7 0-1.7zm1.7 13.3c.1 0 .1-.3.1-.2q0 .2-.1.2zm-8.3-21.5c.9 0 1.3.5 0 1.6-.1.2-1.5 1.3-1.6 0-.3-1.1 1.5-.6 1.6-1.6zm0 3.1q.2.2 0 .2 0 0 0-.2zm24.4 25.8v1.9c-.1-.4-.3-.9 0-1.9zm382 22.3h1.2q-.6.1-1.2 0zM195.6 154.2c1.2-.6.9-1.7 0-1.7-1 0-1.4 2.2 0 1.7zm4.9-14.9c-1.6-.3-1.6-1.5-3.3 0-1.6 1.5-5.2 2.9-1.6 3.3 3.4.5 4.1-.8 4.9-1.7.9-.8 1.7-1.2 0-1.6zm21.5 3.3c-.4 1.1-.4 1.8 1.7 1.6 1.9-.1.9-3.1 0-3.3-1-.1-1.4.6-1.7 1.7zm-4.9-8.3c2 .3.4-1.5 0-1.6-.6-.2-2.2 1.3 0 1.6zm6.6-3.3c1.2 0 1.1-1.5 0-1.6-1.3-.2-1.4 1.6 0 1.6zm-13.3-3.3c-.5.9.5 1 3.3 0 2.8-.9.3-1.5-1.6-1.6-2-.2-1.2.8-1.7 1.6zm-4.9 1.7c2.2.1.4-2.6-1.7-1.7-2.2 1-.6 1.5 1.7 1.7zm4.9-5c1.2.6 1.2-1.5 0-1.6-1.2-.2-1.2 1.2 0 1.6zm10 0c.9.8 0-1.6 0-1.6s-1 .8 0 1.6zm4.9 9.9c1 .2 1.3-1.8 0-1.6-1.4.1-1.1 1.5 0 1.6zm-34.7 208.1c.2 1 .7.9 3.3 0 2.6-.8-.9-2-3.3-1.6-2.3.5-.1.7 0 1.6zm13.2-33c0 1.5 1.3-.8 1.7 0 .3.8.7 0 1.6 0 1 0 .9-.7 1.7-1.6.8-1-2.2-.2-3.3 0-1.2.1-1.7.1-1.7 1.6zm8.3 1.7c1.3 1.2 1.3-.7 1.6-1.7s-.9-.4-1.6 0c-.7.6-1.4.6 0 1.7zm4.8-1.1c-.2 1.2 1.9.5 5.1 1.1 3.2.5.4-1.8 0-1.7-.5.2-1.6-.7-2.6 0-1.1.6-2.2-.7-2.5.6zm-16.4-.6c1.4.7.3-1.8 0-1.6-.4.1-1.5.9 0 1.6zm-1.6 5c1 .4.4-2.4 0-1.7-.6.7-1 1.4 0 1.7zm14.8-66.1c1.8.1 0-2.5-1.6-1.7-1.7.9-.1 1.6 1.6 1.7zm6.7-13.2c-.7 1 .1 1.2-1.7 1.6-1.8.6-1.8 1.3-1.6 1.7.1.5 1.6 1 3.3 0 1.6-1 2.6-.3 1.6-1.7-1.1-1.2-1.1-2.6-1.6-1.6zm0 14.9c.8.6.9-1 0-1.7-1-.7-.9 1 0 1.7zm4.9 3.3c.4.6 1.3-1.6 0-1.7-1.4-.1-.5 1 0 1.7zm8.3 1.6c.4.2 1.5-1 0-1.6-1.5-.7-.6 1.5 0 1.6zm6.6 1.7c1.5.5.8-1.3 0-1.7-.9-.3-1.5 1.1 0 1.7zm-26.5 1.6c.9 0 .6-2.3 0-1.6-.6.6-.8 1.6 0 1.6zm-1.6 3.3c2.1.6 0-2.3-1.7-1.6-1.6.6-.5 1.2 1.7 1.6zm-3.3 6.6c.8 1.7 1.1-.7 3.3-1.6 2.1-1-1.8-2.4-3.3-1.7s-.8 1.7 0 3.3zm0 1.7c2.1-.9-.7-1.1-1.7-1.7-.9-.4-.5 2.5 1.7 1.7zm1.6 4.9c1.6.2.3-1.6 0-1.6s-1.5 1.5 0 1.6zm-6.6 3.3c-.1 1.8-1.3.6 0 1.7 1.3 1.2 1.2-.8 3.3 0s.9.8 1.7 0 .4-1.8 0-3.3c-.5-1.5-1.4.1-1.7 0-.4-.2-.4-1.8-1.6-1.7-1.4.2-1.5 1.5-1.7 3.3zm0 5c.3.8.7-.3 3.3 0 2.7.4-.1-1.7-1.6-1.7s-2.1.9-1.7 1.7zm3.3 4.9c1 .3.2-2.6 0-1.6-.1 1-.9 1.4 0 1.6zm-3.3 1.7c-.9 1.2 1.3.1 3.3 0 2-.2-.4-1.4-1.6-1.7-1.4-.2-.7.6-1.7 1.7zm14.9-5c1.7 0 .8-1.5 0-1.6-.8-.2-1.6 1.6 0 1.6zm-3.3-6.6c2.1.6 0-1.1-1.7-1.6-1.6-.6-.5 1.2 1.7 1.6zm5 19.9c.8.8 1.5-1.6 0-1.7-1.6-.1-.9.8 0 1.7zm4.9 3.3c-1.4-.3-3.7 2-1.6 1.6 1.9-.3 2.9-1.4 1.6-1.6zm-33 0c-1.4 1.3 0 .9 0 1.6s1.1.4 1.6 0c.5-.3.7-.1 1.7-1.6.9-1.6-.6-1.8-1.7-1.7-1.2.1-.4.4-1.6 1.7zm18.1 4.9c2-1.5 2.1.8 4.3-.3 1.5-1.1-.5-.8-4.3-1.3-3.8-.6-1.2 2.4 0 1.6zm-6.6-67.7c1.8.1.2-1.7-1.6-1.7s-.3 1.5 1.6 1.7zm-4.9 38c1 .5 1.5-1.1 0-1.7-1.5-.4-1 1.1 0 1.7zm3.3-3.3c.8.5.7-1.5 0-1.7-.7-.1-.8 1.1 0 1.7zm0-9.9s-.3 2.2 1.6 3.3c1.8 1.2 1.2-2.1 1.7-3.3.4-1.1-.4-1.3-1.7-1.7-1.3-.3-1.6 1.7-1.6 1.7zm-9.9-23.2c.8.3.9.7 1.6 0 .7-.6.2-1.6-1.6-1.6s-.9 1.4 0 1.6zm3.3-8.2c-1.5.4 0 .8 0 1.6 0 .9 1.8-.3 3.3-1.6 1.5-1.4-1.4-.3-1.7 0-.4.4-.1-.3-1.6 0zm4.9 0c.5.7.7-2 0-1.7-.6.3-.5 1 0 1.7zm-3.3 18.2c-.5 1.5 1.3-.6 1.7-1.7.3-1.1-1.2.1-1.7 1.7zm1.7 4.9c.4.4 1.1-1 0-1.6-1.2-.7-.6 1.3 0 1.6zm3.3 3.3c-1.5.2-.6 2.1 0 1.7.4-.3 1.5-1.8 0-1.7zm3.3-1.6c-1.2-.6-.7 2 0 1.6.7-.3 1.1-1.1 0-1.6zm-7.2 16.9c.3-1-1.2-1.8-1.1-.4.2 1.3.9.9 1.1.4zm-24.2 7.8c.7.6.8-2.4 0-1.6s-.7 1.2 0 1.6zm-11.6-3.3c.5.9 1 .3 1.7 1.7.7 1.3-.4 1.2 1.6 1.6 2 .6 1-1.8 1.7-3.3s-.5-.9-1.7-1.6-1.3.4-3.3 0c-2-.3-.5.8 0 1.6zm28.1 6.6c.5.6.7-1.8 0-1.6-.7.1-.5 1.2 0 1.6zm-8.2-29.7c-.3 2.6 0 .4 1.6 1.7 1.7 1.3 1.8-.9 3.3-1.7 1.4-.8-1.1-1.1 0-1.6 1-.6.8-.7 1.7 0 .8.6-.3.9 1.6 1.6 1.8.7 2.5 1.1 3.3 1.7.9.5 1.3-1.3 1.7-1.7.3-.3-2.1-1.5-1.7-1.6.3-.2-1.3-2-1.6-3.3-.4-1.3-3 0-5 0s.2.5 0 1.6c-.1 1.1-.7.7-1.6 0-1-.7-.3-.1-1.7 0-1.5.1-1.5.7-1.6 3.3zm13.9 1.5c.1 1.4-.6.7.9 1.8 1.4 1.1 1-.7 1.7-1.6.7-1-1.5-1-1.7-1.7-.1-.7-1.2.2-.9 1.5zm-35.4 6.8c1 .4.3-1.8 0-1.7-.4.2-1.1 1.4 0 1.7zm3.3 8.2c-.8 1.1 1.6 0 3.3 0s.1-1.5-1.7-1.6c-1.7-.2-.8.5-1.6 1.6zm6.6-4.9c-1.2-.6.1 1.8 1.7 3.3 1.5 1.5.4-.9 1.6-1.7 1.1-.8-.5-1.1-1.6-1.6-1.3-.6-.6.5-1.7 0zm1.7 6.6c-.7.8 0 .5 0 1.6s1.6 0 1.6 0-2.2 2.4 0 3.3c1 .6.7-1.5 1.7-1.6.9-.2 1.2-1.7 1.6-3.3.3-1.7-1.2-1.4-1.6-1.7-.6-.3-2.8.9-3.3 1.7zm-67.8-16.5c-2.3.1-3.3 1.6-3.3 1.6l-1.6 3.3s-2.4-.7-1.5 1.8c.8 2.5 3 3.9 4.4 3.3 1.6-.7 3.3-3.3 3.7-3.4.3-.2 0-1.7 0-1.7h1.6s.2.6 1.3.6c-.1.2-.1.5.4 1.1 1.6 2.2 2.6-.3 2.6-.3s0-.8-.5-1.2c.8-.2.9-.3 1.2-1.8.3-2.1 0-1.8-1.7-3.3-1.6-1.5-3.3-1.7-3.3-1.7-.4.7 0 1.7 0 1.7zm11.6 6.6s1.5-1.7 0-1.7 0 1.7 0 1.7zm8.3 0c.8.1 1.2-2.1 0-1.7-1.4.6-.9 1.5 0 1.7zm-1.7 6.6c-.8 1.5 3.3-.6 3.3-1.7s0-1.5-1.6-1.6c-1.7-.2-.9 1.8-1.7 3.3zm8.3 6.6c2.1 2.7 2.3-1.1 3.3-3.3.9-2.1-2.9-1.5-3.3-1.7-.6-.1-2.2 2.2 0 5zm-28.1-1.7c-.8 1-.3 1.1 1.6 1.7 1.8.5.9 1.6 1.7 1.6s1.3-.8 1.6-1.6.9-2.1 0-3.3c-.8-1.1-1.3-1.4-3.3-1.7s-.8 2.4-1.6 3.3zm34.7 0c.8.2 1.5-1.8 0-1.6-1.5.1-.9 1.5 0 1.6zm8.2 1.7c1 .1 1.1-1.1 0-1.7-1.2-.4-.9 1.5 0 1.7zm-51.2 0c.5.1 1.1-1.8 0-1.7-1.2.2-.5 1.5 0 1.7zm-3.3-3.3c1 0 .7-2.1 0-1.7-.7.6-.9 1.7 0 1.7zm-3.1-2.5c-.9 1.1.1 1 1.5.8 1.2-.1 1.1-1.6 0-1.6-1.2 0-.7-.2-1.5.8zm80.8-16.5c-.6 1.2.1 1 1.6.8 1.5-.1 1.1-1.5 0-1.6-1.2-.2-1.2-.3-1.6.8zm42.9-27.3c.3.2 1.1-2.4 0-1.6-1.2.8-.4 1.5 0 1.6zm-6.6 0c-1.4.6-.5 2.1 0 1.7.4-.3 1.3-2.1 0-1.7zm11.6-4.9c-1 .1.1 1.2 0 1.6-.2.6 1.6 2.1 0 1.7-1.7-.3-3.5 1.3-3.3 1.6.1.3-2.1.6 0 1.7 1.9 1.2 2.9.8 3.3 1.6.2.9.8 2.2 1.6 0s2.1-2.4 1.7-3.3c-.6-.8-1.4-1.5-1.7-1.6-.4-.2-1.1-2.4 0-1.7 1 .7 1.3.7 1.7 0 .2-.7.8-.9 0-1.6-.9-.7-2.4-.2-3.3 0zm4.9 3.3c-.1.4 1.1 1.2 3.3 0 2.1-1.1-.1-1.1 0-1.7.2-.4-2-.7-3.3 0-1.4.7.2 1.4 0 1.7zm-1.6 8.2c.5 2.1.1-.3 1.6 0s-.5-3.6-1.6-3.3c-1.3.3-.7 1.4 0 3.3zm-3.3 1.7c1.1.5.2-1.5 0-1.7-.4-.1-1.3 1.3 0 1.7zm-11.6 4.9c-1.1 1 .4 1.7 1.6 3.3 1.2 1.7 1.2-.5 1.7-1.6.4-1.1 1.3.5 1.6 1.6.3 1.3-1.2 1.4 1.7 1.7 2.8.4.4-1.4 0-1.7-.5-.2-1.1-.9-1.7-1.6s-1.5-.3-1.6-1.7c-.1-1.2 0-1.2-1.7-1.6-1.6-.3-.6.7-1.6 1.6zm42.9 16.6q.2 0 .3-.2c0 .8.7 1.7 2.1 1.7 2.6.3 2.3-2.7-.3-2.7q-.9-.1-1.2.3c-.2-.3-.4-.4-.9-.8-1.3-.7-.6 1.7 0 1.7zm8.3-1.7c.8 2.2 1-1.6 1.6-3.3.6-1.6-.5-.3-1.6 0-1.2.4-.8 1.1 0 3.3zm3.3 3.3c.3.5 1.5-1.2 0-1.6-1.5-.3-.4 1.2 0 1.6zm3.3 0c-1.1.4-.5 1 0 3.3.4 2.3 1.8-1.5 3.3-3.3s-1.4-.1-1.6 0c-.4.2-.7-.3-1.7 0zm8.3-1.6c1.5.4.3-1.2 0-1.7-.4-.4-1.5 1.4 0 1.7zm4.9-1.7c.5.8 1-2.3 0-1.6-1.1.6-.5.8 0 1.6zm1.7 3.3c.1 0-1 1.4-1.7 3.3-.7 2.1.8.7 1.7 1.7.8.9 2.7-1.8 3.3-1.7.4.2.7-2.6 0-3.3s-1.2-1.5-1.7-1.6c-.5-.2-1.8 1.6-1.6 1.6zm6.6 8.3c-1 1.2.8.7 0 1.6-.9 1 0 .3-1.7 1.7-1.6 1.3 1.7 1.5 3.3 3.3 1.7 1.8 2-2 3.3-3.3 1.3-1.4 0-1.4 0-3.3 0-2-1.5-1-3.3-1.7-1.9-.7-.7.6-1.6 1.7zm33-11.6c1.5.4.2-.8 0-1.6-.1-.9-1.5 1.3 0 1.6zm-120.6-66.1c1.7.2.3-2.3-1.6-1.6-2.1.7 0 1.5 1.6 1.6zm-4.9-4.9c-.8 1.8.9.5 3.3 1.6 2.3 1.3 1.8-2.3 1.6-3.3-.1-.9-.4-1.5-1.6-1.6-1.4-.2-2.5 1.5-3.3 3.3zm19.8 1.6c1.7-.3 1.1-1.9 0-1.6-1.2.4-1.7 1.9 0 1.6zm5-8.2c1.8.4.5-1.7 0-1.7-.7 0-1.8 1.4 0 1.7zm6.6 8.2c1.1.2 1.9-.9 0-1.6-2.1-.7-1.3 1.5 0 1.6zm0-13.2c1.8-2.3-1.4-.3-1.7 0-.4.3-.1 2.4 1.7 0zm3.3-1.6c2.4.4-.7-1.4-1.7-1.7-1.1-.3-.8 1.4 1.7 1.7zm-3.3 4.9c1.2.7 1.1-1.5 0-1.6-1.3-.2-1.4.9 0 1.6zm-14.9-6.6c2.8-.7.3-.8-1.7-1.6-2-.9-1.2 2.3 1.7 1.6zm-14.9 3.3c-.8 1.8-.7.7 0 5s.9.5 5 0c4.1-.6 1.1-1.4 1.6-3.3.5-2 .9-2.4-1.6-3.3-2.5-1-1-.7-3.3-1.7-2.4-1-.8 1.5-1.7 3.3zm6.6-8.2c1.4 1.8.5-2.8 0-3.3-.5-.6-1.5 1.5 0 3.3zm360.1 234.5c2.9.4 1.1-3.4-1.6-3.3-2.9.1-1.4 3 1.6 3.3zm43 8.3c-1.6.8-5.1 4.5-1.7 4.9 3.5.6 3.2-5.8 1.7-4.9zm32.3-3.3c.3.1 1 .1 2.3 0 5.7-.7 6.5-4.8 3.3-3.3-1.6.8-4.1 1.8-5.1 2.6.2-.6-.3-1.1-1.5-1-2.6.5-4.8 4.3-1.6 3.3 1.2-.3 2.1-1 2.6-1.6zm12.3-5c-2.9 1.4-2.7 5.1 0 3.3 2.6-1.8 2.7-4.7 0-3.3zm8.2 1.7c1.3 1.2 2.3-3.5 0-3.3-2.3.1-1.4 2.1 0 3.3zm31.4-198.2c2.9.1 1.3-4-1.7-3.4-3 .7-1.3 3.2 1.7 3.4zm-3.3 9.9s2.3-3.5 0-3.3c-2.3.1 0 3.3 0 3.3zm3.3 1.6c-2.9 0-4.3 4.3-1.7 3.3 2.7-1 4.5-3.3 1.7-3.3zm0-33c3.6.7 1-3.6-1.7-3.3-2.6.4-2 2.6 1.7 3.3zM805.1 250c2.6.1 2.1-4.5-1.7-3.4-3.8 1.3-1 3.2 1.7 3.4zm34.7 8.2c3.7.4 2-3.1-1.7-3.3-3.8-.1-2.2 3 1.7 3.3zM815 276.4c-1.2 2.3-.7 5.8 1.6 3.3 2.4-2.5-.5-5.7-1.6-3.3zm-11.6-112.3c2.6 1.5 1.3-3.6-1.6-3.3-3.1.4-1 1.8 1.6 3.3zm5 1.6s-2.4 4.3 0 3.3c2.3-1 0-3.3 0-3.3zm1.6 6.6c-2 .8-2.2 4.4 0 3.3 2.1-1.1 2-4.1 0-3.3zm-19.8 5c1.9.7 1.9-3.3 0-3.3-2 0-2 2.6 0 3.3zM912.4 212s.3 2.4 5 3.3c4.5.8 2.7-1.7 4.9-5 2.1-3.3.2-4-1.6-4.9-1.8-1-3.2 1.5-6.6 3.3-3.5 1.8-1.7 3.3-1.7 3.3zm13.2-18.2c3.6 1.6 4-3.2 5-5 0 0-1-.9-6.6 0-5.6 1-2.1 3.3 1.6 5zm-3.3 41.3c2.8.8 1.3-3.2-1.6-3.3-3-.2-1.2 2.5 1.6 3.3zm29.8-89.2c1.8 5 4.8.1 3.3-1.7s-5.1-3.3-3.3 1.7zm-23.2-5c3 .7 1.3-3.3-1.6-3.3-3 0-1.4 2.7 1.6 3.3zm38-18.1s-5.3 1.6-.9 3.1.9-3.1.9-3.1zM762.1 271.4c-.5 2.4 3.3 1.7 3.3 1.7s-2.8-4-3.3-1.7zm-24.8 57.8c2 .3 3-3.6 0-3.3s-2 3 0 3.3zm-11.5 41.3c-1.4 2.7 2.3 7.3 3.3 3.3s-2.1-5.9-3.3-3.3zm6.6 3.3c-1.5.6-4.7 4.3-1.7 3.3 2.9-.9 3.2-3.7 1.7-3.3zm-156.9 16.5c-3.5-.9-8.7 2.7-5 3.4 3.6.6 8.4-2.4 5-3.4zm-4.3 5.1c-2.3 1.1-5.2 1.7-4 4.9 1.1 3.1 2.5 2.7 3.2-.2.4-1.8 3.6-5.6.8-4.7zm111.6-142.1c2.7.8 1.3-2.8-1.6-3.3-3-.6-1 2.4 1.6 3.3zm3.3-18.2s-2.3 4.8 0 3.3c2.4-1.5 0-3.3 0-3.3zm39.7 47.9c5.4.1 1.8-4-1.7-3.3-3.4.7-3.8 3.1 1.7 3.3zm23.5 1.5s2.5 1.9 7.9.1c4.4-1.5-.7-3.1-3.3-3.3-2.7-.1-4.6 3.2-4.6 3.2zM369 132.7c1.3.5 1-1.5 0-1.7-1.1-.1-1.3 1.1 0 1.7zm5-6.6c-1.2.7 0 1.6 0 1.6s1.1-2.3 0-1.6zm8.2 0c-1.2.5.3.7-1.6 1.6l-3.3 1.7c-1.5.7-3.3.4-1.7 1.6 1.7 1.4 3.2 2.1 5 3.3 1.8 1.4 1.2 2.7 3.3 1.7 1.9-1 1.6.7 3.3-1.7 1.6-2.3 4.5.7 4.9-2.6.5-3.3 1.2-4.4-1.6-4-2.9.6-3-.9-5 1.7s-2.4 1.9-3.3 1.6c-.8-.3-2.2.2 0-1.6 2.1-1.8 1.7-3.3 1.7-3.3s-.6-.6-1.7 0zm-16.5 1.6c0 1.8.8.9 3.6-.7 2.9-1.5-.4-3.3-1.9-2.6s-1.7 1.5-1.7 3.3zm5 38s-.6 1 1.6 1.7c2.1.6 2.8 1.9 3.3 0 .5-2-1.6-2.9 0-3.3 1.7-.3 3.5-1.5 1.7-1.7-1.8-.1-3.3 0-3.3 0s1.2-.4 0-1.6c-1.4-1.2-3-1-3.3-1.7-.4-.7-1.7-1.8-1.7 0s2 2.3 0 3.3-4.5-.7-3.3 1.7c1.1 2.3.4 3.9 1.7 3.3 1.1-.7 2.9-4.5 3.3-3.3.3 1.2 0 1.6 0 1.6zm-1.7-8.2c4-.3 0-1.5-1.6-1.7-1.7-.1-2.4 1.9 1.6 1.7zm13.2-1.7c.9 1 2.1-1.8 0-1.6-2.2.1-.8.6 0 1.6zm8.3 1.7c1.1.6 1.2-1.2 0-1.7-1.4-.4-1.2 1 0 1.7zm4.9 6.6c2.5.5.3-1.8-1.6-1.7-2.1.2-.8 1.1 1.6 1.7zm1.7-3.3c2.8-.2.4-1.2-1.7-1.7-2.1-.4-1.2 1.8 1.7 1.7zm-1.7-9.9c-.8.6-2.8 2.7-1.6 3.3 1.1.5 3 1.5 3.3 0 .1-1.6 1.1-1 1.6 0 .5.9 2.5 2.6 1.7 0-.8-2.7-.8-1-1.7-3.3-.8-2.4-.8-.2-1.6-3.4-.8-3.1.3-.9-1.7-1.6s-3-4.8-3.3-1.7c-.4 3.2-1.9 5 0 5 1.8 0 4.2 1 3.3 1.7zm5-1.7c1.3.1.4-1.5 0-1.7-.5-.1-1.4 1.6 0 1.7zm-9.9-6.6c1-.2 1-2.3 0-1.7-1 .7-1 1.8 0 1.7zm0-5c.8.3 1.1-1.9 0-1.6-1.2.4-.8 1.3 0 1.6zm-6.6 31.4c.8.3 1.1-1.9 0-1.6-1.2.4-.8 1.3 0 1.6zm-18.2 3.3c-.8 1.5-.7 2.2 2.1 5.5 3 3.2 2.5-1.2 4.5-3.8s-.4-1.5 0-3.3c.3-1.8-1.1-1.7-3.3-1.7-2.3 0-2.5 1.8-3.3 3.3zm14.9 16.5c-1.2.3-2.4 2.1-1.7 3.3l1.7 3.3c.4 1 0 4.7 1.6 3.3 1.7-1.2 2-2.4 1.7-3.3-.4-.8 1.6-.5 1.6-1.6s2-3.3 0-3.3-3.8-2-4.9-1.7zm8.2-16.5c1.1.2 1.3-1.1 0-1.6-1.3-.6-1.2 1.5 0 1.6zm-14.8 6.6c-.7.7-1.4 1.8-1.7 3.3-.4 1.5 1.1 2.7 3.3 5 2.1 2.3 1.7-.2 3.3 0 1.7.1.3-2 0-3.3-.4-1.4.3-1 1.7-1.7 1.2-.6-.9-2.3-1.7-3.3-.8-.9-1.2-1.9-3.3-1.6-2.2.4-1.1.9-1.6 1.6zm6.6 5c-.9 1.8 0 1.3 1.6 1.6 1.7.3.5-3 0-3.3s-.8-.1-1.6 1.7zm-3.2-12.4c2.2.4 1.8-1.8-.1-2.5-2.1-.7-2.1 2.2.1 2.5zm9.8 20.6s-1.2 1-1 4.3 2.1.6 4.3-1c2.1-1.5-.4-4.4-1.7-4.9-1.3-.4-1.6 1.6-1.6 1.6zm-13.2 0c1.1.2 1.1-1.6 0-1.6-1.2 0-1.2 1.5 0 1.6zm-8.3 14.9c2.1.5.8-4.3-1.6-3.3-2.5 1-.6 2.9 1.6 3.3zm3.3-19.8c2.2 1 .4-2.9-1.6-3.3-2.2-.3-.7 2.3 1.6 3.3zm5 23.1c2.6.2.4-1.9-1.7-1.6-2.2.4-1.1 1.5 1.7 1.6zm4.9-3.3c-.8-.7-1.2 2.3 0 1.7 1.1-.7.8-1 0-1.7zm14.9-4.9c1 .5 1-2.5 0-1.7s-1 1.1 0 1.7zm-1.7-11.6c.5 1.1 1.3-.2 1.7-1.7.3-1.5.3-1.8-1.7-1.6-2 .1-.5 2.2 0 3.3zm-4.9 26.4c1.6-.4 1.1-1.9 0-1.6-1.2.4-1.7 2.2 0 1.6zm3.3 9.9s-.4.7 1.6 0-.5-1.5-1.6-1.6c-1.2-.2 0 1.6 0 1.6zm6.6 5c.4.7 1.8-1.5 0-1.7-1.8-.1-.5 1 0 1.7zm-11.6-3.3c1.7.5.5-1.5 0-1.7-.5-.1-1.6 1.1 0 1.7zm-4.9 3.3c2.3-.2.8-1-1.7-1.7-2.5-.6-.7 1.8 1.7 1.7zm11.5 1.6c-2-.3-3.8 1.8-1.6 1.7 2.1-.2 3.6-1.4 1.6-1.7zm-1.6 6.6c1.2 1.7 2.9-.2 4.9 0 2 .3 2.1-.1 3.3-1.6s-1.6-1-3.3-1.7c-.8-.3-1.3.2-1.5.9 0-.3 0-.7-.1-.9-.4-.3-1.7 1.7-1.7 1.7s-.9-1.4-1.6-1.7-1.4 1.7 0 3.3zm-19.8-11.5c.9-.7 1.5-2.1 0-1.7-1.5.6-1 2.4 0 1.7zm1.6-1.7c.8.3 2.5-.9 0-1.6s-.8 1.3 0 1.6zm3.3 0c1.1.9 1.7-1.1 0-1.6-1.6-.6-1.2.8 0 1.6zm0-3.3c2.4 0 2.6-1.5 3.3-1.6.7-.2-.4-2.8-1.6-1.7-1.4 1.1-4 3.3-1.7 3.3zm3.3-4.9c1 .1 1.3-1.8 0-1.7-1.3.2-.9 1.5 0 1.7zm0-5c2.1-.1 1.3-.3 1.7-1.6.3-1.3 2.5-1.5 0-1.7-2.5-.1-7 .5-5 1.7s1.1 1.8 3.3 1.6zm0-11.5s2 1.8 3.3 1.6c1.3-.1 1.1-.3 1.7-1.6.4-1.3.9-1.6-1.7-1.7s-3.3 1.7-3.3 1.7zm-3.7-1.2c2.1.3 4.2.6 3.3-2.3-.5-2.9-1.8-2.9-2.9-3.2-1.2-.2-2.6-2.3-3.3 0-.8 2.7 1.7 3.3 1.7 3.3s-.6 1.8 1.2 2.2zm-83.8 72.9c1.2 1.1 1.2-3.1 0-2.4-1.4.7-1.4 1.1 0 2.4zm-74.3 115.9c.1.2 1.5-1.7 0-1-1.6.7 0 .8 0 1zm-2.9-11.2q-.3.1-.4.3c-1.7 1.5.1 1.3 1.5 1.6-.7 0-.7 1 .1 1.7 1 .7.8-1.4 0-1.7 1.3.3 1-.8 1.7-1.6.5-.8.2-1 1.6-1.7 1.3-.6-1.2-3-1.6-3.3-.6-.3-.9-1.1-1.7 0s-.4.6 0 1.7c.3 1.2.1-.2 1.7 1.6.8 1 .1.9-.9 1 0-.4-.4-1-.8-1-.7 0-1.8.9-1.2 1.4zm-1.1-2.2c-.3-.3-.9-.7-1-.8.7.5.4-.7.1-2 .2 0 .7-1.3 1.6-1.3q.4 0 .8.1c-1.7.9-1.8 1.4 0 1.7 1.1.1 1.5-1.3.8-1.7q0-.1 0-.1v-1.7s.3-1.2 1.7-1.6c1.2-.3.5-.8 0-1.7-.7-.8-.4-.4-1.7 0-1.4.6-.4-2.3-1.6-1.6-1.4.7-2.4 1.5-1.7 3.3.3 1.3.1.9 0 1.6-1.2.2-3.7 1.7-1.7 1.7.6 0 1.3-.2 1.7-.6q0 .3 0 .6 0 .1 0 .4s-.4.1-1.1.1c-1.5-.4-1.8 1.7-1.8 1.7-.1 0-1.6-2.1-2.2-2.1-1.5-.3-1.2 1.4-2.6.9 0-.5-.3-1.2-.6-1-.6.1-.9 1-.1 1.5 0 1 .4 2.5 1.4 1.9 1.4-.4 1.9.7 2 1.5.2.9.6 1.4 1.7 1.7-1.5-.4-.5 1.3 0 1.6.4.3 1.3-1.1.1-1.6.9.4.6-.8 1.5 0 1 .8.9-.4 1.7 0 .8.5 1.5-1.7 1.7-1.7.9.2.9-1.6 0-1.6-.6 0-.9.5-.7.8zm-1-.8q-.1-.3 0 0zm1.7 7.8c1.1.7.1-1.1 0-1.2-.2-.2-1.3.4 0 1.2zm-1.7-2.9c-.7.2-2.6 1.3-.5 1.3 2.2 0 1.2-1.4.5-1.3zm-5-11q-.1 0-.1.2.1 0 .1-.2zm-.1.2c-.2 0-1.1.1.1.9 1.2.9 0-.7-.1-.9zm13.4 2.6s.5 0 .1 2.5c-.3 2.4 1.7 1.3 3.2 1.2 1.6-.3 0-1.4 0-2.1 0-.6-1.3-.8-1.7-1.6-.5-.8.4-1 0-1.7-.5-.7-1.6 1.7-1.6 1.7zm-1.4-.3c1.8.8 1.4-1.8-.3-1.4-1.6.6-1.4.7.3 1.4zm-23.4 8.5c1.8 1.3 1.6-3.4 0-3.3-1.7.2-1.8 2.2 0 3.3zm16.5-23.1c1.3.4 1.1-1.6 0-1.6-1.2 0-1.4 1.3 0 1.6zm3.3 5c1.9.9 1.7-1.1 1.7-3.3 0-2.1-1.7 0-1.7 0s-.7-.3-1.6 0c-1 .4-.4 2.3 1.6 3.3zm-6.6 9.9c1.1 1.9 0-1.1 1.6-1.7 1.7-.4-.1-1.6-1.6-1.6s-1.2 1.3 0 3.3zm185-11.6c-3.9-.8-6.3-1.5-6.6 1.7-.4 3.1-2.6 7.3 0 6.6s2.6-1.8 4.9-3.3c2.4-1.5 2.1 1.2 5 0 2.8-1.1 1.6-3.3 1.6-3.3s-1.2-.9-4.9-1.7zm-6.6 44.6c-.7 1.5 3.3 3.3 3.3 3.3s1.9-1.6 4.9-1.6 1.3-1.5 1.7-3.3c.3-1.8-2.6-4-5-3.3-2.3.6-4.2 3.4-4.9 4.9zm0 31.4c.1 1.6 3.4 1.6 6.6-1.7 3-3.3-2.2-3.5-3.3-3.3-1.2.3-3.5 3.3-3.3 5zm-1.7 1.6s-2.6 4.6 0 3.4c2.7-1.2 4-2.5 0-3.4zm11.2 56.4c0-.5-.3-1-1.3-1.8 0 0-4.8 4.5-1.6 3.3q1-.3 1.6-.7c-1.3 1.5-.4 3.7 3.3 4 4.6.4 1.8-6.1-1.6-5q-.3 0-.4.2zm66.5-347.1c3.9 2.4 4.4-5.7 1.6-4.9-2.9.8-5.6 2.6-1.6 4.9zm-10 10c-.1 3.9 4 1.3 8.3 1.6 4.3.4 1.9-4.1 1.7-8.2-.4-4.2-3.5-1-8.3 0-4.8.9-1.5 2.6-1.7 6.6zm0 9.9c3 1.2 1.8-4 0-3.3-1.7.6-3 2.2 0 3.3zm0 3.3c-3.8.8-3.8 6.6 0 4.9 3.8-1.6 3.8-5.8 0-4.9zm3.4 4.9c-3.1-.3-3.9 4-1.7 3.3 2.1-.7 4.6-3 1.7-3.3zm251 57.8c3.8-.4-.7-3.9-3.3-3.3-2.6.7-.5 3.9 3.3 3.3zm-3.3-4.9c2.3 1 .2-4.1-1.6-3.3s-.7 2.3 1.6 3.3zm-3.3 3.3c-2.3.7-5.1 4-1.6 3.3 3.4-.7 1.6-3.3 1.6-3.3zm-6.6 0q-.4.1-.7.4c0-1.5-1.6-3.6-2.6-2.1-1.4 2.2-1.2 3.9 1.5 3.3q.6 0 1-.4c0 1 .8 2.1.8 2.1s1.9-4 0-3.3zm-470.9 87.5q0 0 .2 0-.2 0-.2 0z"/><path d="M291.5 1062.5l-3.5-3.8s-6.6-52.6-10.4-109.7c.8-.3 2.2-1.2 3.4-2.1 2.1-1.5-1.1-1.2-3.7-1.5-1.5-22.2-2.5-45-2.5-65.4l-.7-486.9c1.5.3 3.5 0 3.6-1.2.2-1.3-2.1-1.5-3.6-1.2q0-4.8 0-9.9 0 .7.3 1.2c1.4 2.5 2.1 1 1.7 0-.3-.9 1.6-2 4.9 0s2.1-3 0-3.3c-1.9-.4-3.3-1.6-3.3-1.6s-.4-.4-.3-1c-.4.8-.9 1-1.3 1 0 0-1.8 1.5-2 3.4q0-4.3 0-8.5c.5.1.9-.7 2-1.5 1.8-1.3 0-4.3 0-6.6 0-2.4 2.3-.7 1.6-3.3-.7-2.7-1.6-1.7-1.6-1.7s-.2 1-2 1.5q0-5.8 0-11.3.2 0 .3-.1c3-1.7 3.9-2.2 5-1.7 1.2.6 1.6 3.3 1.6 3.3s1.8 0 1.7-1.6c-.2-1.7-1.7-3.3-1.7-3.3s0-1.5-3.3-1.7c-1.5-.1-2.7-.8-3.6-1.3L274 253c1.4.5 3.9-1.6 3.7-3.1 0-1.4-2.3-1.7-3.7-1q0-3.3 0-5.6c.4.3 1-.4 2.1 0 2.2.7 2 1.1 1.6 0-.3-1.2 2.1-2.2 5-3.3 3-1.1 4.3-3.3 4.3-3.3 0-.2.6-3.5-3.9.8 0 0-1.4 1.7-2.5-3.8-.5-3.2-2.7-1.7-6.5-1.7q0-1 0-2.1c1.3 0 2-.2 2-1.5 0-1.6.5-1 1.6-1.6-.3 1.8-.4.9 1.7 3.3 2.2 2.3 1.6.4 3.3 0 1.6-.6 1.5-2.1 1.6-5 .2-3-1.2-3.1-3.3-1.6-1.9 1.5.7.9-1.6 1.6-.2-3.3.5-1.3 1.6-3.3 1.2-2 1.4-.5 1.7-3.3q0-.8 0-1.6.4.4.4.8.3-.4 1.2-.8c3.2-1.7 5-1.7 5-1.7s-.5.1-1.7 3.3c-1.1 3.2-3.4 5.3 0 5 3.5-.4 5 0 5 0s1.2 4.5 1.6 1.6c.6-3 1.5-3.3 0-4.9-1.5-1.7-2.7-3.2 0-3.3 2.9-.2 4.7.1 3.3-1.7-1.2-1.8-1.8-2.2-3.3-3.3-1.5-1.2-3.1-.4-3.3-1.7-.1-1.3 0-.9-1.6-1.6-1.7-.7-1.7-1.7-1.7-1.7s-.1-.5-.4-.9c1.9.9 2.9 2.1 2.1-.7-1.1-4-1.8-5.1 0-6.6s-.5-2.9 1.6-3.3c2.2-.6 1.8-.7 1.7-1.7-.2-.9 1.6-1.6 1.6-1.6-1.5-1.4-1.8-1.8-3.3 0s-2.3 4.4-3.3 3.3c-.9-1.2-1.2 2.5-1.6 0-.3-2.5 0-.2 1.6-3.3 1.7-3.2 3.7-2.6 1.7-5-2-2.3-3.6-.8-3.3 0 .4.8-.2 2.1-1.7 3.3-1.5 1.1-1.1 1.8-1.6 3.3-.3 1.3.8 2.8-1 3.2-1.4-.3-2.8-1.1-4-2.5q0 .3 0 1c-.3 2.5-1.1 1.8-1.6 0-.3-1.2.5-1.8 1.2-1.7q-.7-.9-1.2-2.3c-.2-.7-2.5-2.3-4.6-3q0-1.3 0-2.9c1.4.3 3.3 1.2 4.6 3.3 1.5 2.1 2.3-.6 1.6-3.3s-4.4-2.4-6-1.8l.8-29.8c.8-.6 1.8-2 1.9-3.1.2-1.5-.8-1.8-1.8-1.2l1.4-34.3c.3-5.1 3-30.6 4.5-45.3 1 0 2.4-1 2.5-1.8.2-1-1.1-2-2.1-1.7q.3-3 .5-4.8 0-.1 0-.3c.9 0 2.3-.2 3.3.2 2.6.8 3 1 3.3-1.7.4-2.6-1.3-3.1-5-3.3-1.1 0-1.8 0-2.1.2q-.6-2.4-2-4.4c1.8-.6 3.8-1.5 4.1-2.4.6-1.2-3.3-.9-5.2.3q-.4-.3-.6-.7c-2.6-3.7-3.9-9.9-3.4-15.4.8-.3 1.6-.5 2.6-.7 2.9-.7 1.8.8 3.3 1.7 1.5.8 2.6 1.6 3.3 0 .7-1.7-.7-1.7-1.6-3.3 0 0-1 .6-5 0-1.1-.2-1.8-.2-2.5-.2.4-2.5 1.3-4.6 2.2-6.4 2.7-4.6 6.6-11.6 17.5-11.6q0 0 .2 0c10.7 0 14.8 7 17.3 11.6 2.6 4.5 3.2 11.8 1.7 18-1 0-1.7.1-3.3.1-2.4 0-4.2-1.2-1.7-1.6 2.5-.6 3 2.1 3.3 0 .4-2.2-.7-2.9-1.6-3.3-1-.6-1 .4 0-1.7.9-2.2 4.6-2.6 1.6-3.3-2.9-.7-2.8-1-5 0-2 1 .4 2.1-1.6 3.3-1.9 1.1-3.6 1.8-5 0-1.2-1.8-1.9-2.2-3.3-3.3q0 0-.1-.1c3.3 0 4.1.9 5.1.1 1.2-.8 1.2-.5 0-1.6-1.1-1.3-1.7-1.7-1.7-1.7s1.5-.4 0-1.6c-1.5-1.4-2.3-1-3.3 0q-1.5 1.5-3.3 0c-1.2-1-1.2-2.9-3.3-1.7-1.9 1.1-4.9 3.3-4.9 3.3s-1.8.3-1.7 1.7c.2 1.2-1.9 1.9 3.3 1.6 2.5-.1 3.3 0 4.2 0-.7 1.1-1.3 2-.9 3.3.7 1.8-1.2 1.7 1.7 3.3 3 1.7-.2 2.6 3.3 1.7 3.4-1 4.3-2.4 4.9 0 .7 2.3-3.3.8-1.6 3.3 1.6 2.5 3.3 1.6 3.3 1.6s-1-1.5 1.6 0c2.7 1.5-.6 1.5 1.7 1.7 2.3.1-.3.3 5-1.7q1.5-.5 2.4-.9-.8 2.2-1.9 3.8-.5.7-1 1.5c-1.1-.2-2.7-.6-2.9.6-.1 1.6 1.3.4 2.5 0-1.6 3.1-2.9 6.6-2.6 10l4.3 41.9c-1 .3-2.4.1-2.5.9-.1 1.3-2.3 3.3 0 3.3 1 0 2-.1 2.9-.5.3 3.7.5 6.6.5 8 0 0 .3 2.5.4 6.4-1.3.5-1.8.9-2.1 2.7-.5 2.3-3.8-2.2-1.7 1.6 2.2 3.7 1.7 5 1.7 5l-1.7 1.6s-2.6-3.1-3.3-1.6-3.3 1.9 0 3.3c3.3 1.2 1.4 2.4 3.3 1.6 2-.8 3.3 0 3.3 0s-3.2-.5-1.6 1.7c1.3 1.8 1.7 2.7 2.8 2.1l.6 18.1c-.8.3-1.8 1.2-1.8 1.2v3.3c0 1.3 1 1.2 2 .3l.6 27c0 5.2-.1 9.2 2.4 10.3 4.9 2.5 11.5 3.3 22.6 4.2.5 0 11.2.2 18.7 1.9 10.4 2.2 15 6.2 15.8 6.9 2.3 2.2 3 6 3.8 8.1 1.8 4.5-10.6-2.4-21.2-5.1-2.6-.7-11.3-2.2-12.8-2.5-7.1-1.2-21.3-2.2-23.2-1.9-2.4.4-3.9 1.1-5.4 2.7-4.4 5-3.2 23.3-3.2 23.3v77.1c-.8.5-1.6 2-1.7 3-.2 1 .8 1.4 1.7 1.1l-.2 231.7c-.3-.6-1.2-2.6-1.5 0-.5 2.7 1.5 1.3 1.5 3.3l-.3 326.3c-.4 74.6-13.2 178.7-13.2 178.7l-3.7 3.8-.2.1zm-14-686.4q.1-.1.1-.2 0 .1-.1.2zM271 214.3q-.1-.2-.1-.4.1-.2.3-.3c1.9-1.7 3.3-1.7 3.3-1.7s-1.7 0 0-1.6c1.3-1.4 2 1.5 2.8 1.8-.6.1-2 .7-1.2 1.5q.3.1.3.1c-1.4.4-2.9.7-3.6 1.5q-.3.6-.6 1-.5-1.1-1.2-1.9zm-5.4-2.6c-.7-.3-3 0-5.8.1-.3-1-1.3-1.5-1.9-1.5-.8 0-1.6-1.7-1.6-1.7l-1.7-1.6s.4-3.6-1.6-1.7c-2 2-3.5.6-3.3 3.3 0 1.3 0 2.7.2 3.9l-7.6.9c-.3 0-1 .2-1.8.3.6-.8.9-1.8.9-1.8s.3-2.7-1.6-1.6c-1.8 1.1-4.3 0-3.3 1.6.5.9.4 1.8.4 2.5-2.2.6-4.7.8-6.2 1.1.4-.8.8-2.2.8-3.6-.1-2.4-1.2-1.6-1.6 0-.3 1.7-.2 2.5-1.7 1.7-1.4-.8-1.1-1.7-3.3-1.7-2.1 0-.3 1.7 1.7 3.3q.8.7 1.5 1c-10.2 3-21.5 9.2-19.7 4.8.8-1.9 1.4-5.9 3.8-8.1.9-.7 5.3-4.6 15.9-6.9 7.4-1.6 18.1-1.8 18.5-1.8q4.2-.4 7.6-.7c.4.7 1.3 1.5 2.1 1.8 1.9.9 1.4.7 3.3 1.7 2 1-.8 1.3 1.7 1.6 1.8.3 2.3-.9 2.8-.6q.2 0 .5.6c.6 1.4 1.2 2.7 1.5 3.1q-.2 0-.5 0zm2.3-8c1.6 2.5 1.6 3.3 1.6 3.3s-1.4.5-2.5 1.3c-.9-.3-2.1-.2-.8-1.7.5-.6-.4-3.2-1.6-4.7q1.6-.5 3.1-1.2c-.3.8-.7 1.6.2 3zm16.3 1.6c-.3 2.2-1.5 3.3-1.5 3.3l-1.6 1.7-3.3 1.6c1.2-.8-1-.6 0-3.3 1-2.6 1.3-.8 1.6-3.3 1.5-.3 2.9-.1 3.2 0q.5 0 1.6 0zm-11.4-4.9c-1.4-1.7 2.7-1.8 3.3 0 .7 1.8-1.8 1.6-3.3 0zm28.1 1.6c-2.2.3-3.5 1.5-1.7 5 1.9 3.4 6.5.1 6.6-3.3.3-3.5-2.6-2-4.9-1.7zm-11.6 28.1c.6 2.6 1.7 1 1.7-1.6 0-2.7-2.1-1-1.7 1.6zm-10.5-14.7c1 0 1.7 0 2.1.1-.9 2.9-1.9 6.1-3.1 4.7-1.3-1.5-3.1-1.5-1.7-3.3.6-.5 1.9-1 2.7-1.5zm-25.8-6.8s.5-.3 1.6 1.7q.7 1 1.1 1.6-1.9.2-3.5.3c1-2.1.8-3.6.8-3.6zm-6.6 1.7s.7-4.7-1.7-3.3c-2.2 1.3-.8 4.8 0 4.9.9.2 1.7-1.6 1.7-1.6zm-6.9-3.2c-.2 2.4 1.6 1.5 1.9-.1 0 0-1.8-2-1.9.1zm-4.7-.1c0-2-3.3-.3-4.9 0 0 0 2.2 1.9 4.9 3.3 2.9 1.4 1.7-1.7 1.7-1.7s-1.7.3-1.7-1.6zm-.6 5.8c-1.5 1.9 2.3.8 2.3.8.5-1.9-1-2.6-2.3-.8zm46.9 25.6s-4.6 2.3-3.3 0c1.3-2.4 3.8-2.4 3.3 0zm16.5-16.5s2.9 3.4 3.3 0c.5-3.5-3.3 0-3.3 0zm-19.8-31.4c-.6 2.4 3.5.8 3.3-1.7s-2.7-.8-3.3 1.7zm14.8-29.8c-.3 1.8 0 5 0 5s-.3.3 1.2 1.4c-.6.8-1.3 1.4-2.8.2-2.8-2.3-1.8-.8-3.3-1.6-1.4-.8-.2 2.2-1.7 3.3-1.4 1.1-.6.8-4.9 0s-3.5-.8-6.6 1.7c-3.1 2.4-.3 1.6 3.3 1.6h3.3s-1.3 1.5-1.7 5c-.3 3.4 3.7-.2 5-1.7s3.3-3.3 3.3-3.3h3.3s-.3 2.5 0 5c.4 2.4 3.1.8 4.9 0 1.9-.9-1.1-1.2-1.6-3.3-.5-2.2 1.3-.9 1.6-1.7.3-.5-.3-5.1 1.4-2.8 1.5 2.3.3-1.5.3-2.2-.2-1.8.5-.6-1.7-1.6q-.5-.3-.9 0c-.3-1.5-1-3.6-.7-5 .5-2.4-1.3-1.8-1.7 0zm-11.5 19.9c.2 2.7-2 5.1 0 4.9 2-.1-.3-1.9 1.6-1.6 2.1.4 4 1.6 3.3 0-.6-1.7-1.6-3.3-1.6-3.3s-3.5-2.8-3.3 0zm23.1-21.5c-1.1 3.3 2.9.8 3.3 0 .5-.8-2.1-3.3-3.3 0zm-31.4 19.8c-1.2 1.5 3.3 1.7 3.3 1.7s2.9 0 1.7-1.7c-1.1-1.6-3.6-1.5-5 0zm9.9-13.2s-1.1.3 0-1.7c1.2-1.9 1.9-.2 3.3-1.6 1.5-1.4.4-1-3.3-1.7-3.6-.6-1.2-.5-3.3 1.7-1.9 2.2.7 3.4 1.7 4.9.4.6.8.9 1.5.9 1.2.3 2.3-.2 1.8-.9-.6-.9-1.7-1.6-1.7-1.6zm23.1-1.7c-1.1 1.7-4.9 4.2-3.3 5 1.7.8 3.3 1.9 3.3 0s3.6-1.7 3.3-3.3c-.1-1.7-2-3.3-3.3-1.7zm-29.7-9.9s-1.2 1.8-1.6 3.3c-.3 1.5 3.5 1.5 3.3 0s-1.7-3.3-1.7-3.3zm5-8.2c-2.5.1-1 2.3 0 4.9 1 2.7 4.8 0 4.9-1.6.3-1.7-2.5-3.5-4.9-3.3zm9.9 0c-.2-1.5-3.6-4.8-3.3-1.7.4 3.2-2.6 5.8 0 5 2.7-.8 3.5-1.8 3.3-3.3zm-1.7-6.6c-.3 2.4 2.9.5 3.3-1.7.6-2.2-2.9-.8-3.3 1.7zm-1.6-8.3c-1.1-.5-.6 0 0 3.3.7 3.3 1.2.8 1.6-1.6.6-2.5-.4-1.2-1.6-1.7zm-8.3 3.3c1.2 0 4 1.7 3.3 0-.6-1.6-4.4 0-3.3 0zm26.4 14.9c1.7.5 3.3.7 3.3-1.7 0-2.3-.2-3.4-1.6-1.6-.8 1.1-1.9 1.9-2.1 2.6-.5-.7-1.5-1.7-2.9-2.6-2.4-1.8-2.6.7-1.6 3.3 1.1 2.6 4.9 0 4.9 0zm-4.9 6.6c.5-1.7 1.5-1.1 0-3.3-1.4-2.2-1.1-1-5-1.7-3.7-.7-8.2-2.6-6.6 0 1.7 2.7 0 3.3 0 3.3s2.2-2.6-1.6-1.6-6.6 1.6-6.6 1.6-6.4.2-1.7 1.7c4.8 1.5 4 3.1 8.3 1.6 4.4-1.5 2.3-1.5 4.9-1.6 2.8-.2 2.5 1.3 5 1.6s3.3-1.6 3.3-1.6zm0-11.6c.5-1.6 0-.8 0-4.9 0-4.2-.6-5.7-5-5-4.2.7-3.4 1.8-1.6 3.3 1.9 1.5.4 3 1.6 5 1.4 1.9 3.3 3.3 3.3 3.3s1.3 0 1.7-1.7zm-1.7-62.7c.3 2.6 2.2 1.5 1.7 0-.4-1.5-1.8-2.7-1.7 0zm0-6.6c-1.1 1.3 3.6 1.1 3.3 0-.1-1.2-2-1.4-3.3 0zm-4.9-3.4c-.2 1 1.2 1.8 1.6 0 .6-1.7-1.4-.9-1.6 0zm-6.6-4.9c-.6 2.6-1.4.3-1.7 3.3-.1 3 4.7-2.3 5-5 .4-2.6-2.6-.9-3.3 1.7zm6.6-18.2c-2.6.7-3.1.3-1.7-1.6 1.5-2 1.5-.3 1.7-3.3s-1.1-1-3.3 0c-2.1.9-.5.6-1.7-1.7-1.1-2.3.6-1-3.3-3.3-3.7-2.3-1.1.8 0 3.3 1.2 2.5 2.4 1 0 3.3-2.2 2.4-1.6 1.8-3.3 5-1.6 3.1 3.9 3 3.3-1.7-.3-2.7 1.4-.7 1.7 1.7.4 2.2 1 1.1 3 3-1.1.1-2 1-2.2 2.5-.3 2.1 2 .5 4.1 1.1 2.2.5 3.3-.3 3.3-1.7 0-.5-.9-1.1-2.1-1.6 1-.8 1.8-2.6 2.1-3.3.6-1.4 1.1-2.4-1.6-1.7zm-14.9-6.6c-.3 2.8 3.3.8 3.3-1.6 0-2.5-2.9-1.2-3.3 1.6zm1.7-13.2c.2-1.1-1.7-1.6-1.7 0 0 1.7 1.5 1.1 1.7 0zm1.6-5s2.1.9 1.7 0c-.3-.8-1.7 0-1.7 0zm6.6 38c.6 2 2.9 1.7 1.7 0-1.1-1.6-2.1-1.9-1.7 0zm6.6-1.6s2.2.8 1.7-1.7c-.4-2.4-1.7 1.7-1.7 1.7zm3.3 4.9c-.5 2.8 4.2.6 3.3-1.6-.8-2.2-2.6-1.1-3.3 1.6zm-1.6 3.3c-.3 1.4 1.3 1 1.6 0 .4-.9-1.2-1.3-1.6 0zm1.6-18.1s-.8-.7-1.6 1.6c-.8 2.4 2.9.3 3.3-1.6.5-2-1.7 0-1.7 0zm-4.9 79.3c0 3.3 2 .6 1.6-1.7-.3-2.3-1.6-1.6-1.6 1.7zm-1.7-3.3c.6-2.5-.8-3.9-1.6-1.7s1.2 4.1 1.6 1.7zm3.3-3.3c.7 3.9 2.1 1.6 1.7-1.7-.3-3.3-2.2-2.3-1.7 1.7zm0-6.7c-.8 3.1 2.9 1.2 3.3-1.6.6-2.8-2.4-1.4-3.3 1.6zm-1.6-9.9c-1-.8-2.1 1-1.7 3.3.6 2.4 2.5.3 3.3-1.6.9-2-.5-.8-1.6-1.7zm-11.6-1.6c-1.9 0-.4 1.1 1.7 3.3 2.2 2.2 1.9 0 1.6-1.7-.1-1.6-1.2-1.6-3.3-1.6zm-4.9 3.3c0 2.5 1.6 0 1.6 0 0-2.2-1.6-2.5-1.6 0zm23.1 18.2c-1 1.5 3 3.3 3.3 0 .4-3.3-2.2-1.6-3.3 0zm-1.7-6.7c-1.4 2.5 3.1 2.2 3.3 0 .4-2.1-1.8-2.4-3.3 0zm5 3.4c.7 3 2.2 0 1.6-1.7-.4-1.7-2.2-1.4-1.6 1.7zm1.6-3.4c.3 2.2 2.8.6 1.7-1.6-1-2.2-1.8-.5-1.7 1.6zm0-4.9c.9 3.2 2.5.5 1.7-1.7-.8-2.1-2.5-1.5-1.7 1.7zM308 134l2-2.2q0 1.3.2 2.2c-1.2-.2-2.2 0-2.2 0zm-15.4 66.4c.3 2.2 2.5 0 1.7-1.7-.8-1.6-1.8-.5-1.7 1.7zm0 8.2c.6 2.4 1.9.7 1.7-1.6s-2.1-.7-1.7 1.6zm1.2-21.4s1.8.5.5-1.7 1.9-1.6 0-3.3c-1.8-1.6-2-4.9-3.3-1.6s-2.5 1.8 0 4.9c2.5 3.2 2.8 1.7 2.8 1.7zm7.1 0c.2-1.7 0-.6-1.7-1.7-1.6-1.1-1.4-.7 0-3.3 1.5-2.6 2.2-4.7 1.7-6.6-.4-1.9-2.5-4.4-3.3-1.6-.8 2.7 1.3 5.6 0 6.6-1.3.9-2-1.7-1.7 1.6.4 3.3-1.8 5 0 5 1.9 0 4.8 1.6 5 0zm-40.2 15.5q1.2-.1 2.2-.5c-.1 3-.6 1.6-2.2.5zM304.2 316c-.4 1.7 1.9 1 1.6 0-.1-1-1.1-1.7-1.6 0zm-5-1.7c-2-.5.4 1.8 0 3.4-.3 1.5 2.4 2.4 3.3 1.6 1.1-.8-.2-1.6 0-3.3 0 0-1.1-1.1-3.3-1.7zm3.3 10c-2.6-1.7-.4 1.3-3.3 3.3-2.7 1.9 1.3 2.4 3.3 3.3 2.2.8 2.8-1.7 3.3-3.3.7-1.7-.5-1.7-3.3-3.3zm-16.5 28c.4 2.5 2.1 1.4 1.7 0-.3-1.3-2-2.4-1.7 0zm5 0c-1.1 0-.5 2.2 0 3.3.5 1.3 4.4 1.7 3.3-1.6-1-3.3-2.1-1.7-3.3-1.7zm3.3 8.3c-2.8-1.8-1.3 2.2 0 5 1.3 2.7 3.1.2 3.3-1.7s-.4-1.5-3.3-3.3zm-3.3-13.2c-1.1 3.1 2.3 1.1 3.3 1.6 1.1.6 4.1-.1 3.3-1.6s-5.4-3.2-6.6 0zm9.9-6.6c-2.8.5-1 1.1 1.6 3.3 2.8 2.2 3.7-.8 3.3-3.3-.2-2.5-2-.6-4.9 0zm4.9 14.8c0 1.7 2.1 1 1.7 0-.3-.9-1.7-1.6-1.7 0zm-18.1 1.7s-1.1 1-3.3 3.3c-1.3 1.5-1.8.8-1.8.7 0 .1.1.3.1.9.3 2.4 2.4.7 5 0 2.7-.6 2.2-.9 1.6-3.3-.4-2.3-1.6-1.6-1.6-1.6zm-6.6 8.3c-1-1.7-1.8 1.5-1.7 4.9.3 3.5-1.9.7-1.6 3.3.2.8 1.2 1.5 1 2.1q.3-.7.6-2.1c.6-2.5 1.7 0 1.7 0s1.9-1.8 1.6-4.9c-.1-3.2-.6-1.7-1.6-3.3zm-6.9 15q0 .1 0 .4 0-.3 0-.4zm23.4 4.8c-1 1.6 2.5 1.1 3.3 0s-2.2-1.7-3.3 0zm6.6 4.9c-.6 2.5 2.9 0 3.3-1.6.5-1.7-2.6-.8-3.3 1.6zm-3.3 5c.5 1 2.3 1.9 1.6 0-.5-2-2-1-1.6 0zm-6.6-95.8c-.8 1.6 1.1.7 1.6 0 0 0-.8-1.7-1.6 0zm-11.6 29.7c-.6-1.9-1.8-1.8-4.9-1.6-3.1.1-2.9 0-1.7 1.6 1.4 1.7.8.8 1.7 3.3.8 2.5 1.6 1.8 1.6 3.3s-2.7 4.4 0 3.3c2.9-1.1 3.9 1.7 3.3-1.6-.4-3.3 0-5 0-5s.7-1.2 0-3.3zm6.6 11.6c.6 2.5 2.5.8 1.7-1.7s-2.1-.8-1.7 1.7zm-6-.2c-3.9.7-2.2 1.8.2 2.4 2.5.4 5.2.3 4.2-.6-1-.8-.6-2.6-4.4-1.8zm14.3-16.3c0 2.3 1.2.8 1.6-1.7.6-2.5-1.6-.7-1.6 1.7zm-8.3-10c-2.2-.8-2.9-.1-3.3 1.7-.3 1.8 1.7 1.7 1.7 1.7s-.2.1 0 3.3c.2 3.3.5-.2 1.6 3.3 1.2 3.4 1.1 2.1-1.6 1.6-2.6-.5-3.1-2.3-3.3 0s1.3 1.7 3.3 5 1.2 1.3 3.3 1.6c2.2.3 2.5-2.3 3.3-3.3s-3.3-1.6-3.3-1.6v-1.7s.7-.5 3.3 0c2.7.5 1.2-.8 0-1.6-1.1-.9-1.8-.9-3.3-3.3-1.4-2.5 0-1.7 0-1.7s2.7-1.4 1.6-3.3c-.9-1.9-.9-.8-3.3-1.7zm-4.9 5c.5 2.2 1.6 2.5 1.6 0s-2.1-2.2-1.6 0zm-8.3 1.9c.8 4.2 2.9-.2 3.3-1.9.6-1.6-4.1-2.2-3.3 1.9zm13.2 117s-1.2 2.9-1.6 5c-.3 1.9 2 3 1.6 1.6-.3-1.5 1.9-2.7 1.7-4.9-.2-2.4-1.7-1.7-1.7-1.7zm-3.3 8.3s-.3 0 0 3.3c.4 3.3 1.7-1.4 1.7-3.3 0-2.1-1.7 0-1.7 0zm-8.2 9.9c-.3 1.6 1.9 1.6 1.6 0-.1-1.7-1.2-1.7-1.6 0zm6.6 57.8c0 1.1 1.9 1.8 1.6 0-.1-1.9-1.6-1.2-1.6 0zm-5-5c0 .9 2.2.9 1.7 0-.5-.8-1.7-.8-1.7 0zm-1.6 5c-.3 1 2 1 1.6 0-.3-1.1-1.2-1.1-1.6 0zm1.6 16.5c-.1 1.4.8 2.5 1.7 0 .8-2.5-1.4-1.5-1.7 0zm-3.3 5v3.3c0 1.2 2.1-.4 1.7-3.3-.3-3-1.7 0-1.7 0zm16.5-10.1s1.1 2 1.7 0c.7-1.9-1.1-.6-1.7 0zm-3.3 5c.4 2.5 2.9 1.7 3.3 0 .6-1.6-1.4-.7-1.6-3.3s-2 .8-1.7 3.3zm5 13.2c-.3 1.8 2.2 0 1.6-1.6-.4-1.7-1.2-.2-1.6 1.6zm4.9 1.7c.6 1.5 2.4 0 1.7-1.7-.6-1.6-2.1.2-1.7 1.7zm1.7-5s2 2.5 1.6 0c-.2-2.5-1.6 0-1.6 0zm3.3 5c-.8-1.4-2.1.9-3.3 3.3-1.1 2.3 3.3 1.6 3.3 1.6s1.6-1.6 1.6-3.3c0-1.6-.8-.3-1.6-1.6zm-23.1 78.9c.2 4 2 2.3 1.6 0-.3-2.3-1.8-4-1.6 0zm19.8 6.6c.2 2.6 2 1 1.6-1.6-.2-2.7-1.8-1-1.6 1.6zm-5 6.6c-.1 1 .7 1.7 1.7 0 1.1-1.6-1.4-.9-1.7 0zm-13.2-42.9c-.3 1.1 1.7 0 1.7 0s-1.3-1.1-1.7 0zm21.5 71.8c-1.3-.8-.4.3-1.7 3.3-1.1 3 3.6 0 3.3-1.6-.1-1.7-.2-.8-1.6-1.7zm-8.3-4.9c0-2.3 0-1.8-1.6-1.7-1.7.2-.6 2-1.7 3.3-.9 1.3-1.4 0-1.6 1.7-.2 1.6.8 1.1 0 1.6s-2.1 1-1.7 5c.6 4 1.4.3 3.3 0 2.1-.4 3.7-2.5 3.3-5-.3-2.4 0-2.6 0-4.9zm-11.5 16.5c1.2-2-.3-5.8-1.7-3.3-1.2 2.5-.8 2.1 0 3.3.8 1.1.6 2 1.7 0zm-5 9.9c-.3 2.4 2.1 1.5 1.7 0-.3-1.5-1.3-2.3-1.7 0zm3.3 5c-.3 2.1 1.2 2.9 1.7 0 .5-3-1.3-2.2-1.7 0zm16.5 18.1c-1.1.3-.8 2.1 0 5 .9 2.8 1.5-1.2 1.7-3.3.2-2.2-.4-2-1.7-1.7zm3.3 23.2c-.5 1.8 1.1 1.1 1.7 0 .7-1.2-1-1.8-1.7 0zm-8.2 3.3s2.3.9 1.6 0c-.5-1-1.8-1.5-1.6 0zm0 6.6c.5 2.9 2 .1 1.6-1.7-.3-1.8-2.1-1.3-1.6 1.7zm-8.3-8.3c-1.9 2.1 3.2 1.5 3.3 0 .3-1.5-1.2-2.2-3.3 0zm6.6 29.4c-1.9-.9-1.2 2.1 0 4.9 1.4 2.9 2.9-.6 3.3-3.3.6-2.6-1.2-.8-3.3-1.6zm-3.3 6.6c-.1 1.5 2.1 1.5 1.7 0-.3-1.4-1.4-1.4-1.7 0zm1.7 143.6c-.2 2.1 2.3.7 1.6-1.6-.5-2.4-1.4-.6-1.6 1.6zm1.6 23.2c-.1 1.6 1.1 1.6 1.7 0 .7-1.7-1.4-1.7-1.7 0zm8.3 8.2c-.8 3.3 3.7.8 3.3-1.6-.3-2.5-2.5-1.7-3.3 1.6zm-9.9 6.6c-2.8 3.3 5.5 2.4 4.9 0-.4-2.3-2.1-3.3-4.9 0zm-8.3-1.6c.3 1.2 2.5 1.8 1.7 0-.9-1.8-1.8-1.4-1.7 0zm18.2 1.6c-1.1 1.7 3 1 3.3 0 .4-.9-2.1-1.6-3.3 0zm-1.7 5c-2.6 2.5.7 3.3 3.3 4.9 2.8 1.7 1.4-1.3 1.7-3.3.4-2-2.2-4.1-5-1.6zm-9.9 6.6c-2.2 0-.1 2.5 1.7 4.9 1.9 2.5 3.7-2.1 3.3-4.9-.3-2.9-2.6 0-5 0zm-1.6 4.9c-.3-1.3-2.3-1.6-6.6-1.6s-.2.8 1.6 1.6c1.9.9 1.4 2.1 3.3 5 2.1 2.8 2.5 0 3.3-1.7.9-1.6-1.2-2-1.6-3.3zm-3.3 10c-.5-1.4-3.6-3.4-3.3-1.7.4 1.7 1.6 3.3 1.6 3.3s2.2-.4 1.7-1.6zm0 4.9c-1 1.8 2.8.3 3.3-1.6.5-2.1-2.3-.2-3.3 1.6zm3.3-6.6c.5.8.4 1.7 3.3 1.7 3 0 3.3 1.7 4.9 0 1.7-1.8 2.9-3.1 1.7-5-1.1-2-1.3-4.5-3.3-1.7s-1.1 2.8-3.3 3.3c-2.1.5-3.8.9-3.3 1.7zm6.6 21.5c.5 2.9 2.2.3 1.6-1.7-.4-2-2.1-1.3-1.6 1.7zm-5 9.9c-1.8 3.4 2.9.7 3.3-1.7.6-2.3-1.4-1.8-3.3 1.7zm1.7 4.9c0 1.8 2 1.2 1.6-1.6-.3-2.9-1.6-.2-1.6 1.6zm-6.6 0c-2.3 1.7 1.2 1.5 3.3 3.3 2.2 1.8 1.5-.9 1.6-3.3.3-2.3-2.6-1.6-4.9 0zm3.3 8.3c1 1.6 1.5 1.8 1.6 0 .3-1.8-2.6-1.7-1.6 0zm1.6 11.6c-.3 1.1.6 3.1 1.7 0 1.2-3.2-1.3-1.3-1.7 0zm-6.7-829.2c-1.3 0 .1 0 .1 0q0 0-.1 0z"/></g></svg>