<svg xmlns="http://www.w3.org/2000/svg" width="100%" viewBox="0 0 900 900" height="150" xmlns:v="https://vecta.io/nano"><path d="M289 901H1.041V1l299.725.401c-.819.8-2.318 1.485-3.842 1.545-4.97.196-9.949.164-15.374.148l-34.448 1.917c-8.512.562-17.101.773-25.498 2.121-19.373 3.109-38.429 7.624-56.88 14.503-17.822 6.644-35.123 14.276-51.094 25.404L90.642 64.033 66.58 88.096l-18.934 25.966-8.017 13.991-11.06 22.089c-3.346 8.741-6.373 17.301-9.481 26.252l-8.544 36.792c-.814 4.573-1.313 8.92-1.751 13.273L6.1 253.46l-1.002 25.01-.998 43.955-1.001 20.047.002 35.989v32.006L3.1 447.468v43.995l.008 36.982.004 8.025v18.985l-.001 11 1 16.016-.005 25.955c.253 3.166.76 5.901.859 8.65.19 5.305.149 10.619.135 16.354l2 20.026 1.999 19.983 2.839 18.033 4.999 22.984 5 17.978 14.047 34.042 13.051 22.891 14.052 19.055 16.952 18.947c3.212 3.05 6.165 5.932 9.378 8.486l18.677 14.572 30.031 18.012c5.737 2.679 11.309 5.039 17.218 7.561 4.077 1.588 7.732 3.317 11.572 4.384l39.491 10.538 34.021 4.99c5.92.746 11.402 1.71 16.921 2.029 9.744.564 19.514.689 29.265 1.154.825.039 1.594 1.246 2.389 1.911zM616 1h285l-.316 243.862c-.827-1.088-1.339-2.976-1.78-5.294-.921-7.994-1.582-15.619-2.985-23.105-1.978-10.554-4.507-21.006-6.852-31.907l-4.024-13.809c-5.002-18.159-13.065-34.926-23.02-51.213-.656-1.289-1.32-2.198-1.905-3.154-10.674-17.432-23.335-33.192-39.141-46.738-4.747-4.252-9.229-8.355-13.989-12.106-18.849-14.85-39.419-26.784-62.002-34.918-10.442-3.761-21.31-6.339-32.345-9.637-.612-.389-.842-.737-1.12-.78-11.413-1.765-22.79-3.852-34.257-5.148-12.043-1.36-24.172-1.958-36.714-2.962l-22.493-1.184C617.334 2.86 616.684 1.663 616 1zm285 651v249c-93.021 0-186.042 0-279.867-.223-.565-.701-.325-1.179.378-1.706l23.913-.177 22.982-2.143 5.176-.754 25.82-4.095c5.488-1.218 10.568-2.507 16.054-3.84l22.984-6.998c4.379-1.395 8.547-2.362 12.318-4.164l32.589-16.106 26.065-17.886 20.98-19.855c2.487-2.274 4.82-4.334 6.721-6.737l18.296-23.434 16.015-27.015c3.569-7.739 7.181-15.176 9.99-22.906 2.964-8.159 5.161-16.596 8.024-25.12 1.685-7.087 3.04-13.965 4.477-21.247l3.552-21.796c.688-6.761 1.028-13.281 1.438-20.217.746-1.138 1.42-1.859 2.095-2.581z"/><path fill="#ffbf01" d="M206.001 890.835l-39.089-10.457c-3.839-1.067-7.495-2.796-11.498-4.711 1.075-1.917 2.161-3.817 3.796-4.692 7.375-3.946 14.774-7.897 22.413-11.285 8.782-3.895 17.688-7.612 26.788-10.665 13.502-4.529 27.182-8.544 40.866-12.503 7.33-2.121 14.83-5.185 22.246-5.165 17.094.046 33.817-3.822 51.096-2.776 15.998.969 31.811 1.497 47.199 6.366 9.168 2.901 18.596 5.102 27.526 8.592 7.554 2.952 14.916 6.755 21.728 11.163 11.382 7.364 23.467 14.01 32.04 24.977 5.186 6.634 10.051 13.519 14.931 20.534-.101.424-.072.606-.044.787-11.688 0-23.375 0-35.532-.402-1.017-2.449-1.07-4.841-2.21-6.476-2.842-4.077-5.665-8.437-9.439-11.532-5.429-4.453-11.859-7.659-17.569-11.802-10.58-7.675-23.055-11.121-35.027-15.381-7.331-2.608-15.678-2.262-23.513-3.575-15.92-2.669-31.727-1.207-47.536.89-3.589.476-7.298.612-10.724 1.654-9.973 3.036-19.811 6.511-29.741 9.692-4.71 1.509-9.934 1.956-14.182 4.256-10.308 5.581-20.221 11.902-30.191 18.089-1.703 1.057-2.902 2.927-4.335 4.422z"/><path fill="#842cf4" d="M47.959 113.898c6.103-8.555 12.205-17.11 19.096-25.793l28.157.878c7.294.292 14.584.908 21.877.929l40.311-.458c6.883-.16 13.782-.553 20.626-1.287 7.245-.777 14.4-2.515 21.653-3.072 17.587-1.352 34.804-3.601 51.181-11.039 15.688-7.126 32.149-12.275 45.601-24.022 8.183-7.147 18.012-12.395 24.563-21.481.949-1.316 2.303-2.449 3.685-3.327C333.761 19.475 337.073 9.668 342 1c8.021 0 16.042 0 24.528.39-4.184 9.71-8.149 19.459-13.666 28.233-5.879 9.348-13.247 17.757-19.911 26.616-1.072 1.425-1.517 3.523-2.845 4.518-5.264 3.943-10.875 7.421-16.143 11.359-5.113 3.821-9.963 7.993-15.175 12.367l-45.261 2.631c-10.732.837-21.507 2.107-32.041 4.264-21.463 4.395-41.717 12.203-60.772 23.477-4.103-.292-7.879-.342-11.654-.365-1.635-.01-3.271.063-4.905.045-7.397-.083-14.802-.434-22.19-.223-12.222.35-24.43 1.379-36.651 1.52-11.207.129-22.424-.506-33.633-.895-1.25-.043-2.479-.678-3.718-1.038z"/><path fill="#7f2ff7" d="M341.531 1c-4.458 8.668-7.77 18.475-16.823 24.225-1.382.878-2.736 2.011-3.685 3.327-6.551 9.086-16.38 14.334-24.563 21.481-13.451 11.747-29.912 16.896-45.601 24.022-16.377 7.439-33.594 9.687-51.181 11.039-7.253.558-14.408 2.296-21.653 3.072-6.844.734-13.742 1.127-20.626 1.287l-40.311.458c-7.293-.02-14.583-.636-21.877-.929l-27.845-1.016C74.705 80.029 82.519 72.1 90.931 64.29c3.334.649 6.048 1.434 8.808 1.663l26.782 1.908c7.272.566 14.527 1.788 21.797 1.853 12.728.113 25.475-.166 38.188-.807 8.909-.449 17.814-1.502 26.642-2.809 5.062-.75 9.899-3.255 14.956-3.746 17.306-1.683 31.242-10.83 44.925-20.147 7.623-5.191 13.991-12.199 21.089-18.194C301.448 17.82 305.808 9.812 309 1h32.531z"/><path fill="#ffcd00" d="M289.469 901c-1.264-.665-2.033-1.872-2.858-1.911l-29.265-1.154c-5.519-.319-11-1.283-16.893-2.375 1.361-2.06 2.987-3.871 4.893-5.312 7.441-5.627 15.261-10.338 24.638-12.375 6.926-1.504 13.975-3.414 20.268-6.549 4.903-2.443 9.574-3.875 14.974-4.453 13.069-1.4 26.05-2.948 38.946 1.072.912.284 2.002-.065 2.981.077 8.451 1.228 17.187 1.547 25.261 4.02 8.632 2.643 16.656 7.294 24.914 11.136 7.636 3.553 10.654 10.702 13.672 17.825H289.469z"/><path fill="#a316ef" d="M514 1l52.53.407c-.514 3.71-1.302 7.086-2.515 10.302-3.389 8.983-6.842 17.852-13.942 24.9-4.879 4.843-8.918 10.531-13.36 15.819-1.867 2.222-3.805 4.383-6.021 6.721l-24.153 15.999c-3.115 2.176-5.708 5.099-9.002 7.755-15.822.024-31.181-.024-46.465-.399 1.409-1.75 2.666-3.258 4.09-4.585 7.114-6.628 14.89-12.665 21.276-19.927 10.543-11.991 20.728-24.386 29.978-37.383C510.354 15.076 511.555 7.595 514 1z"/><path fill="#9c1af2" d="M513.531 1c-1.976 6.595-3.177 14.076-7.115 19.609-9.251 12.997-19.435 25.392-29.978 37.383-6.386 7.263-14.162 13.3-21.276 19.927-1.424 1.327-2.681 2.834-4.553 4.657-19.228.35-37.918.302-56.532-.074 3.997-3.538 7.94-6.723 11.837-9.963 8.021-6.669 16.557-12.831 23.881-20.196a218.99 218.99 0 0 0 22.144-26.088C457.467 18.601 463.802 11.033 465 1h48.531z"/><path fill="#8f25f2" d="M299.033 84.127c4.966-4.018 9.816-8.19 14.929-12.011 5.268-3.937 10.88-7.416 16.143-11.359 1.328-.995 1.773-3.093 2.845-4.518 6.664-8.859 14.032-17.268 19.911-26.616 5.518-8.773 9.483-18.523 14.135-28.233a1326.7 1326.7 0 0 1 56.535.024c-1.46 5.062-2.765 10.119-5.477 14.255-3.311 5.049-7.788 9.335-11.786 13.93-5.49 6.31-10.295 13.457-16.658 18.715-12.352 10.208-25.608 19.32-38.432 28.963-2.205 1.658-4.125 3.693-6.614 5.626l-45.531 1.224z"/><path fill="#7a32f8" d="M308.556 1c-2.748 8.812-7.108 16.82-14.436 23.01-7.098 5.995-13.466 13.003-21.089 18.194-13.684 9.317-27.619 18.464-44.925 20.147-5.057.492-9.895 2.997-14.956 3.746-8.829 1.308-17.734 2.36-26.642 2.809-12.713.641-25.46.92-38.188.807-7.27-.064-14.525-1.287-21.797-1.853l-26.782-1.908c-2.76-.229-5.474-1.013-8.498-1.801 7.163-5.827 14.615-11.397 22.695-16.867l53.57 4.598c4.748.344 9.621-1.099 14.375-.785 16.639 1.098 32.768-1.297 48.591-6.223 2.831-.882 5.961-1.588 8.243-3.314 10.968-8.292 21.836-16.733 32.435-25.489 4.319-3.568 10.302-6.049 10.85-12.907l14.924-.219c1.524-.06 3.023-.745 4.304-1.545C303.371 1 305.741 1 308.556 1z"/><path fill="#c800d5" d="M898.834 239.999c.512 1.888 1.023 3.776 1.85 5.332.316 13.023.316 26.377-.152 40.2-13.937-.575-27.417-1.504-40.873-2.704-8.208-.732-16.38-1.877-24.567-2.846l-16.567-2.189c-1.453-15.081-2.548-29.918-3.22-44.765l20.996 1.961 33.955 3.097 28.577 1.913z"/><path fill="#ffc600" d="M411.468 901c-3.487-7.123-6.505-14.272-14.141-17.825-8.258-3.842-16.281-8.493-24.914-11.136-8.075-2.473-16.811-2.792-25.261-4.02-.979-.142-2.069.208-2.981-.077-12.896-4.02-25.876-2.473-38.946-1.072-5.4.579-10.071 2.01-14.974 4.453-6.293 3.136-13.342 5.045-20.268 6.549-9.378 2.037-17.197 6.748-24.638 12.375-1.906 1.441-3.532 3.253-5.315 5.24-11.094-1.267-22.159-2.879-33.627-4.572 1.03-1.575 2.229-3.445 3.932-4.502 9.97-6.187 19.883-12.508 30.191-18.089 4.248-2.3 9.472-2.747 14.182-4.256l29.741-9.692c3.426-1.043 7.135-1.178 10.724-1.654 15.809-2.097 31.616-3.559 47.536-.89 7.835 1.313 16.182.967 23.513 3.575 11.972 4.26 24.448 7.706 35.027 15.381 5.71 4.142 12.14 7.349 17.569 11.802 3.774 3.095 6.597 7.455 9.439 11.532 1.14 1.635 1.193 4.027 1.741 6.476-6.021.402-12.042.402-18.531.402z"/><path fill="#9520f1" d="M345 82.831l6.177-5.554c12.824-9.643 26.08-18.755 38.432-28.963 6.363-5.258 11.168-12.405 16.658-18.715 3.998-4.595 8.476-8.881 11.786-13.93 2.711-4.135 4.016-9.193 5.945-14.255C437.354 1 450.708 1 464.531 1c-.729 10.033-7.064 17.601-12.593 25.254a218.99 218.99 0 0 1-22.144 26.088c-7.324 7.365-15.86 13.527-23.881 20.196l-12.301 10.036c-16.564.352-32.588.304-48.612.256z"/><path fill="#f6008a" d="M901 525l-.432 44.531c-6.85-.291-13.414-.434-19.657-1.925-18.181-4.343-36.23-9.243-54.344-13.868-1.748-.446-3.596-.502-5.469-1.203l.448-43.503c12.861 3.207 25.235 6.912 37.846 9.433 13.755 2.75 27.73 4.403 41.609 6.535z"/><path fill="#cf00cd" d="M818.884 278.036l16.209 1.946 24.567 2.846L900.533 286c.467 13.688.467 27.375.003 41.531-5.409.147-10.361-.088-15.297-.511-22.173-1.901-44.411-3.349-66.141-9.486l-.214-39.499z"/><path fill="#ffb900" d="M466.173 899.97l-15.06-20.291c-8.573-10.967-20.658-17.613-32.04-24.977-6.812-4.407-14.174-8.21-21.728-11.163-8.93-3.49-18.358-5.692-27.526-8.592-15.388-4.869-31.202-5.397-47.199-6.366-17.279-1.046-34.002 2.822-51.096 2.776-7.416-.02-14.916 3.044-22.246 5.165l-40.866 12.503c-9.101 3.053-18.006 6.77-26.788 10.665-7.639 3.388-15.038 7.339-22.413 11.285-1.634.875-2.72 2.774-4.133 4.529-5.646-2.033-11.218-4.392-16.883-7.422 1.078-2.016 1.987-3.906 3.465-4.621 9.649-4.664 19.243-9.531 29.203-13.443 10.769-4.23 21.824-7.812 32.926-11.095 13.549-4.007 27.243-7.546 40.942-11.021 7.543-1.913 15.156-3.956 22.86-4.747 14.687-1.509 29.464-2.129 44.195-3.241 1.109-.084 2.145-1.143 3.587-1.821 1.123-.024 1.875.024 2.794.415 5.508 1.058 10.844 1.81 16.19 2.479 6.733.843 13.572 1.154 20.188 2.539 8.267 1.731 16.345 4.359 24.523 6.53 6.882 1.826 14.136 2.739 20.615 5.491 13.74 5.837 27.091 12.551 38.519 22.516 5.827 5.081 12.376 9.374 17.929 14.719 5.702 5.487 10.751 11.69 15.753 17.85 2.14 2.634 3.439 5.951 4.684 9.013L468 901s-.5 0-.757-.249c-.442-.558-.713-.735-1.069-.781z"/><path fill="#fc0074" d="M901 593l-.455 40.531c-6.996-.515-13.536-2.316-20.076-2.316-14.245 0-27.272-5.321-40.827-8.266-6.929-1.506-13.656-3.937-20.545-6.414l1.43-41.452 9.389 2.888c14.611 4.318 29.082 9.251 43.901 12.673 8.774 2.026 18.103 1.651 27.183 2.356z"/><path fill="#d600c3" d="M819.168 317.999c21.659 5.673 43.897 7.121 66.07 9.022 4.936.423 9.888.658 15.297.979.464 13.354.464 26.708.107 40.591-3.428.163-6.5-.197-9.569-.569l-56.576-6.843c-4.85-.57-9.742-.772-14.973-1.387-.357-14.094-.357-27.943-.357-41.793z"/><path fill="#a80ff1" d="M531.002 59l5.711-6.572c4.442-5.287 8.48-10.975 13.36-15.819 7.1-7.048 10.554-15.917 13.942-24.9 1.213-3.216 2.001-6.592 2.984-10.302C583.021 1 599.042 1 615.531 1c1.153.663 1.803 1.86 2.527 1.908 7.341.478 14.694.769 22.472 1.535-.391 1.801-1.011 3.36-2.068 4.523-3.195 3.515-6.844 6.649-9.792 10.348-5.099 6.397-9.803 13.108-15.111 19.687-5.223.345-10.054.391-14.777 1.134-3.513.553-7.944 1.014-10.078 3.287-3.569 3.803-7.626 4.268-12.025 4.554-13.81.9-27.312 2.643-39.183 10.797-1.506 1.035-4.298.197-6.495.227z"/><path fill="#ed0095" d="M901 524.531c-13.879-1.663-27.854-3.316-41.609-6.066-12.611-2.521-24.985-6.226-37.917-9.898-.74-12.847-1.026-25.206-.967-37.482 2.477.968 4.533 2.205 6.752 2.68l46.914 9.779 16.008 3.216c3.571.617 7.21.84 10.819 1.239v36.531z"/><path fill="#dc00b9" d="M819.882 360.036c4.873.371 9.766.573 14.615 1.143l56.576 6.843 9.569 1.038c.357 10.294.357 20.648-.109 31.472-14.802 1.64-28.724-.967-42.711-3.678-12.464-2.416-25.1-3.94-37.729-6.321l-.212-30.496z"/><path fill="#fe8a00" d="M614 901c-11.354 0-22.708 0-34.555-.425-2.107-5.2-3.32-10.16-5.419-14.711-4.366-9.463-8.6-19.074-13.987-27.958-7.756-12.79-19.563-21.852-31.11-31.065-3.025-2.414-5.307-5.758-7.467-8.749l42.524.16c.911 1.639 1.686 3.006 2.703 4.161 3.727 4.233 7.534 8.394 10.952 12.667-4.529 4.268-4.784 11.972-.982 16.091 7.289 7.895 14.831 15.586 21.679 23.85 4.746 5.726 8.636 12.185 12.637 18.489 1.42 2.236 2.04 4.979 3.025 7.491z"/><path fill="#e600aa" d="M901 432l-.427 29.531c-6.099-.531-11.758-1.61-17.445-2.514l-34.319-5.352c-9.587-1.661-19.099-3.763-28.713-6.133-.024-10.152.022-19.84.474-29.528l19.65 4.907c13.698 3.145 28.003 2.311 41.582 6.89 5.968 2.012 12.773 1.542 19.198 2.199z"/><path fill="#de00af" d="M901 431.531c-6.425-.188-13.23.282-19.198-1.73-13.579-4.578-27.884-3.745-41.582-6.89-6.45-1.481-12.831-3.262-19.722-5.371-.431-9.157-.383-17.85-.335-26.543 12.56 1.918 25.196 3.442 37.66 5.857 13.987 2.711 27.909 5.318 42.711 4.146.466 10.02.466 20.041.466 30.531z"/><path fill="#ff9702" d="M520.998 818.165c2.623 2.917 4.906 6.262 7.931 8.675 11.547 9.213 23.354 18.275 31.11 31.065 5.387 8.884 9.621 18.495 13.987 27.958 2.099 4.551 3.312 9.511 4.95 14.711-6.33.425-12.685.425-19.54.052-2.215-3.943-3.689-7.653-5.684-11.059-8.852-15.111-16.374-31.185-31.369-41.769-8.652-6.107-16.959-12.706-25.358-19.168-4.414-3.396-8.69-6.972-12.565-10.54l36.537.073z"/><path fill="#e700a1" d="M820.165 447.996l28.644 5.669c11.406 1.976 22.884 3.534 34.319 5.352L900.573 462c.427 8.354.427 16.709.427 25.531-3.609.069-7.248-.153-10.819-.77-5.361-.926-10.678-2.114-16.008-3.216l-46.914-9.779c-2.219-.476-4.274-1.713-6.821-3.145-.368-7.907-.32-15.266-.273-22.625z"/><path fill="#f80082" d="M901 592.531c-9.08-.236-18.408.139-27.183-1.887-14.819-3.422-29.29-8.356-43.901-12.673-3.023-.893-6.02-1.873-9.459-3.352-.05-7.567.331-14.593.711-21.62 1.802.237 3.65.292 5.398.739l54.344 13.868c6.243 1.491 12.807 1.634 19.657 2.393.432 7.354.432 14.709.432 22.532z"/><path fill="#ff9e00" d="M483.997 818.165l13.029 10.467c8.398 6.461 16.705 13.061 25.358 19.168 14.995 10.584 22.517 26.658 31.369 41.769 1.995 3.406 3.47 7.116 5.216 11.059l-90.499.373c2.242-.433 4.953-.866 8.553-1.285l11.403-.032 26.017.026 27.8.083c-1.398-3.099-2.057-5.512-3.42-7.423l-23.699-32.58c-.674-.919-1.583-1.737-2.537-2.367l-33.524-22.041c-1.386-.912-2.666-1.987-4.058-2.888l-17.094-11.022c-1.416-.932-2.612-2.196-3.446-3.38l29.533.074z"/><path fill="#fd006d" d="M819.167 616.999c6.818 2.013 13.546 4.445 20.475 5.95 13.555 2.945 26.581 8.267 40.827 8.266 6.54 0 13.081 1.8 20.076 2.784.455 5.688.455 11.376.455 17.532-.674 1.189-1.349 1.911-2.487 2.964-4.059-.18-7.671-.599-11.248-1.222l-23.467-4.268-30.084-6.023c-5.286-1.209-10.372-3.295-15.618-5.444l1.07-20.54z"/><path fill="#fe8300" d="M614.438 901c-1.423-2.512-2.043-5.255-3.463-7.491-4.002-6.303-7.892-12.763-12.637-18.489-6.849-8.263-14.39-15.954-21.679-23.85-3.802-4.119-3.547-11.823 1.32-16.025 6.19 4.688 12.183 8.93 17.073 14.195 11.012 11.856 16.301 27.171 23.557 41.273 1.324 2.573 1.652 5.657 2.44 8.506-.24.478-.48.956-.384 1.658-1.706.223-3.747.223-6.227.223z"/><path fill="#ff9702" d="M466.044 900.213c.486-.197.756-.02.948.538.007.249-.493.249-.743.249-.278-.181-.307-.363-.206-.787z"/><path fill="#7635f9" d="M281.551 3.094c-.098 6.928-6.081 9.409-10.4 12.978-10.599 8.756-21.467 17.197-32.435 25.489-2.283 1.726-5.412 2.433-8.243 3.314-15.824 4.927-31.952 7.322-48.591 6.223-4.754-.314-9.627 1.128-14.375.785-17.663-1.278-35.297-2.965-53.249-4.744 15.343-11.228 32.644-18.86 50.466-25.504 18.452-6.878 37.508-11.394 56.88-14.503 8.397-1.348 16.985-1.559 25.498-2.121l34.448-1.917z"/><path fill="#ef235b" d="M3.168 490.996l.328-43.444c2.764-.102 5.056.33 7.362.422l32.287 1.177a962.37 962.37 0 0 1 42.762 3.311c.023 14.155-.024 27.845-.528 41.536l-43.056-1.965-20.376-.971c-6.255-.171-12.519-.056-18.779-.066z"/><path fill="#c90eb3" d="M4.17 321.991l1.365-43.523c27.774-.46 55.041-.46 82.377-.001-.643 13.482-1.357 26.506-2.528 39.53-4.77.034-9.092-.107-13.393.128L4.17 321.991z"/><path fill="#ffb500" d="M315 818.167c-1.07.606-2.106 1.665-3.215 1.749-14.731 1.112-29.508 1.732-44.195 3.241-7.704.791-15.317 2.834-22.86 4.747l-40.942 11.021c-11.102 3.284-22.157 6.865-32.926 11.095-9.96 3.913-19.553 8.779-29.203 13.443-1.478.714-2.387 2.605-3.63 4.301-9.981-5.442-19.89-11.234-29.766-17.641 3.461-2.757 6.645-5.6 10.368-6.887 6.852-2.369 14.131-3.484 21.029-5.741 9.106-2.98 17.874-7.039 27.045-9.765 13.641-4.054 27.545-7.21 41.258-11.034 5.129-1.43 10.034-3.661 15.456-5.598 1.657.249 2.884.764 4.143.86l54.051 3.989c9.898.631 19.832.684 29.746 1.1 1.228.052 2.429.732 3.642 1.12z"/><path fill="#a517dc" d="M10.887 212.961l8.658-36.569c15.964-.728 31.39-1.013 46.812-1.423 7.396-.197 14.785-.671 22.18-.943 6.772-.249 13.547-.394 20.35-.194-4.664 13.316-9.356 26.241-14.472 39.168-1.734.16-3.041.407-4.357.462l-32.172 1.224c-8.84.193-17.688-.037-26.532-.01-6.877.021-13.892 1.815-20.468-1.716z"/><path fill="#e91971" d="M85.837 451.998l-42.692-2.846c-10.751-.592-21.526-.748-32.287-1.177-2.305-.092-4.597-.524-7.292-.886-.443-12.111-.49-24.135-.038-36.623 6.964-.13 13.427.389 19.896.493 10.098.162 20.21-.216 30.3.115 10.714.351 21.41 1.263 32.184 2.394l-.07 38.531z"/><path fill="#b312cf" d="M10.544 213.185c6.919 3.307 13.934 1.514 20.811 1.493l26.532.01c10.728-.234 21.449-.781 32.172-1.224 1.316-.054 2.623-.302 4.426-.053-.835 8.379-2.219 16.342-3.466 24.326-.742 4.751-1.269 9.536-2.37 14.296l-82.48.97 2.623-26.545c.439-4.353.937-8.699 1.751-13.273z"/><path fill="#da0f96" d="M3.171 377.995l.382-35.525a2437.08 2437.08 0 0 1 82.359 0c.022 12.484-.025 24.506-.531 36.528-9.345.004-18.233.115-27.118-.013l-55.092-.99z"/><path fill="#ffae00" d="M223.004 811.169c-5.007 1.866-9.912 4.097-15.041 5.527l-41.258 11.034c-9.171 2.726-17.939 6.784-27.045 9.765-6.898 2.257-14.177 3.372-21.029 5.741-3.723 1.287-6.908 4.13-10.507 6.571-6.36-4.442-12.609-9.106-18.71-13.957-3.213-2.555-6.166-5.436-9.112-8.704 2.918-2.303 5.494-4.842 8.544-5.7 9.86-2.774 19.885-4.965 29.862-7.314l23.791-5.44 25.253-5.714c5.13-1.221 10.194-2.718 15.67-4.039l39.582 12.231z"/><path fill="#f53044" d="M3.099 491.461c6.329-.454 12.592-.569 18.847-.398 6.796.186 13.583.653 20.376.971l43.125 2.429c.478 12.489.43 24.514-.036 36.537l-20.223-1.874c-7.236-.452-14.494-.636-21.745-.745l-40.267-.379-.076-36.541z"/><path fill="#fe8a00" d="M35.949 766.107l-13.615-33.754c3.435-1.088 6.508-2.141 9.615-2.257l65.961-2.173c3.411-.116 6.808-.631 10.523-.795 5.863 9.11 11.414 18.054 16.675 27.347-1.851.74-3.395 1.357-4.977 1.479-5.929.459-11.886.585-17.804 1.144l-60.475 6.034c-2.05.22-3.939 1.947-5.903 2.975z"/><path fill="#e21383" d="M3.1 378.46c18.435-.127 36.798.263 55.163.526 8.885.127 17.773.016 27.188.477.481 11.49.434 22.515.387 33.541l-32.114-1.93c-10.09-.331-20.202.048-30.3-.115-6.47-.104-12.932-.624-19.826-.957-.474-10.359-.522-20.718-.498-31.542z"/><path fill="#981de7" d="M108.859 173.442l-20.321.585-22.18.943-46.73 1.032c2.569-8.56 5.596-17.119 9.387-25.852 6.892-.498 13.015-.968 19.146-1.112 6.986-.164 13.983.108 20.968-.078 7.389-.196 14.767-.798 22.155-1.053 5.589-.193 11.199.087 16.779-.218 6.269-.343 12.516-1.109 18.744-1.352l-17.948 27.106z"/><path fill="#ff9702" d="M35.982 766.472c1.931-1.392 3.82-3.119 5.871-3.339l60.475-6.034c5.918-.559 11.875-.686 17.804-1.144 1.582-.122 3.125-.739 5.235-1.221 5.923 5.988 11.298 12.068 16.407 18.429-1.641.788-2.978 1.535-4.398 1.76-6.36 1.009-12.778 1.676-19.11 2.827-12.069 2.194-24.01 5.735-36.16 6.649-11.241.846-22.423.999-33.218 4.642l-12.906-22.569z"/><path fill="#c00dc1" d="M6.1 253.46a2428.49 2428.49 0 0 1 82.499-.964c.031 8.82-.363 17.166-.757 25.513-27.266 0-54.532-.001-82.235 0-.151-8.03.136-16.06.493-24.549z"/><path fill="#ff5122" d="M4.174 607.997c-.045-8.355-.09-16.711.328-25.524 5.53-.13 10.595.393 15.668.49l65.722 1.474c.359 8.475.647 16.518.478 24.561l-82.195-1.001z"/><path fill="#fc5b13" d="M4.105 608.422a2612.44 2612.44 0 0 1 82.335 1.021c.816 8.15 1.104 15.854.954 23.558-27.701 0-54.964 0-82.228 0l-.203-15.93c-.098-2.749-.605-5.484-.859-8.65z"/><path fill="#fe7c02" d="M16.885 714.041c-1.633-7.381-3.265-14.762-4.498-22.581 11.646-.784 22.898-.994 34.136-1.513 10.278-.475 20.534-1.411 30.812-1.895 5.82-.274 11.663-.048 17.575.345 2.123 7.783 4.166 15.175 5.735 22.575l-36.567 1.075-47.194 1.994z"/><path fill="orange" d="M183.039 798.886l-15.287 4.092-25.253 5.714-23.791 5.44c-9.977 2.349-20.002 4.54-29.862 7.314-3.05.858-5.627 3.397-8.686 5.384-5.824-5.889-11.382-11.995-16.913-18.743 2.39-1.789 4.644-3.527 7.132-3.978 8.433-1.528 16.993-2.358 25.418-3.918 7.459-1.381 14.787-4.706 22.203-4.802 11.537-.148 22.18-3.244 32.983-6.35 3.287-.945 6.7-1.451 10.379-2.009l21.675 11.855z"/><path fill="#9221ec" d="M126.836 145.998c-6.256.582-12.503 1.347-18.772 1.691-5.58.306-11.19.025-16.779.218l-22.155 1.053c-6.985.186-13.982-.086-20.968.078-6.131.144-12.254.614-18.826.931 3.027-7.263 6.499-14.517 10.63-21.665 2.624.302 4.59.667 6.556.67l64.921-.017c5.631-.027 11.26-.817 16.889-.815 4.902.002 9.803.626 14.563 1.294l-16.058 16.562z"/><path fill="#ff9e00" d="M161.039 786.882c-3.355.707-6.768 1.213-10.055 2.158-10.803 3.106-21.446 6.202-32.983 6.35-7.416.095-14.744 3.42-22.203 4.802-8.426 1.56-16.986 2.39-25.418 3.918-2.488.451-4.743 2.189-7.268 3.667-4.754-5.811-9.344-11.952-14.08-18.414 10.649-3.964 21.832-4.117 33.073-4.964 12.15-.914 24.091-4.456 36.16-6.649 6.332-1.151 12.75-1.817 19.11-2.827 1.42-.225 2.757-.972 4.75-1.703 6.716 4.404 12.815 9.033 18.914 13.662z"/><path fill="#d30da3" d="M85.842 342.007l-82.218-.001c-.168-6.382.118-12.766.475-19.582l67.892-4.299c4.301-.235 8.623-.095 13.463.336.481 8.158.434 15.852.388 23.546z"/><path fill="#fd6a09" d="M9.167 673.002c-.712-6.367-1.425-12.734-1.61-19.551 13.734-.472 26.947-.252 40.146-.583l41.202-1.445 1.099 8.107c.594 4.159 1.218 8.315 1.371 12.471l-82.207 1z"/><path fill="#fd620e" d="M88.834 651.003l-41.132 1.866c-13.199.331-26.412.111-40.076.134-1.17-6.383-1.882-12.767-2.527-19.576a2586.49 2586.49 0 0 1 82.365.025c.795 6.151 1.083 11.851 1.37 17.552z"/><path fill="#8f25f2" d="M143.035 129.118c-4.902-.349-9.803-.974-14.705-.975-5.63-.002-11.258.787-16.889.815l-64.921.017c-1.966-.004-3.932-.368-6.233-.816 2.125-4.812 4.585-9.372 7.359-14.096 1.553.197 2.782.831 4.032.875 11.209.389 22.426 1.024 33.633.895 12.221-.141 24.429-1.171 36.651-1.52 7.388-.211 14.793.14 22.19.223 1.635.018 3.27-.055 4.905-.045 3.775.024 7.551.073 11.496.672-5.727 5.026-11.622 9.491-17.518 13.957z"/><path fill="#fe3c30" d="M3.182 554.998c-.047-6.023-.095-12.045.386-18.532 11.269.245 22.004 1.098 32.754 1.607 6.075.288 12.187-.226 18.264.041a508.15 508.15 0 0 1 31.305 2.352c.024 5.82-.023 11.178-.527 16.535l-33.101-1.664-49.081-.339z"/><path fill="#fe8300" d="M16.935 714.452c15.681-1.083 31.409-1.816 47.144-2.406l36.885-.894c2.915 5.385 5.036 10.597 7.157 15.809-3.403.33-6.8.845-10.211.961l-65.961 2.173c-3.108.116-6.18 1.169-9.668 1.865-2.031-5.648-3.663-11.373-5.346-17.508z"/><path fill="#fe7305" d="M9.097 673.435c27.319-.767 54.569-1.101 82.346-1.014 1.481 5.475 2.434 10.529 3.387 15.584-5.833-.001-11.676-.227-17.495.047-10.278.484-20.534 1.42-30.812 1.895l-34.187 1.083c-1.403-5.715-2.356-11.438-3.239-17.595z"/><path fill="#fe4727" d="M85.821 584.004l-65.652-1.041c-5.073-.096-10.138-.62-15.598-.954-.772-5.039-1.153-10.073-1.071-15.472 2.259-.09 4.053.403 5.853.424l22.778.058 53.762 1.443-.072 15.542z"/><path fill="#fe422f" d="M85.823 568l-53.691-.981c-7.591-.116-15.186.032-22.778-.058-1.8-.021-3.594-.514-5.782-.876-.438-3.451-.485-6.815-.461-10.634 16.432-.363 32.797-.459 49.152-.115 10.888.229 21.763 1.087 33.171 2.117.481 3.818.434 7.182.388 10.546z"/><path fill="#fe3336" d="M85.82 540.003l-31.234-1.889c-6.077-.266-12.189.247-18.264-.041-10.751-.509-21.486-1.362-32.684-2.07-.504-2.373-.552-4.747-.531-7.561 13.49-.322 26.913-.262 40.335-.062 7.251.108 14.509.293 21.745.745 6.615.413 13.204 1.232 20.291 2.32.438 3.151.39 5.855.343 8.558z"/><path fill="#ae0aef" d="M613.998 39c4.87-6.579 9.575-13.29 14.673-19.687 2.949-3.7 6.598-6.833 9.792-10.348 1.057-1.163 1.677-2.722 2.517-4.451 12.112.58 24.241 1.178 36.284 2.538 11.467 1.295 22.844 3.383 34.257 5.148.277.043.508.391 1.094 1.163-8.807 26.129-19.679 50.767-38.025 71.641l-10.038 2.898c-2.615.074-4.79.21-6.943.053l-38.85-2.89-39.684-1.561c4.194-5.385 8.298-10.457 12.44-15.498 2.905-3.536 5.18-8.539 8.935-10.235 8.535-3.855 9.261-12.411 13.548-18.77z"/><path fill="#b504ed" d="M665.002 87.829c3.059-.939 6.119-1.879 9.965-2.843 2.935-.877 5.111-1.665 7.224-2.595 5.415-2.382 11.086-4.167 16.804-2.008 4.362 1.647 7.629.71 11.068-1.82.888-.653 2.378-.696 3.584-.673 4.907.096 9.933 1.077 14.685.309 5.424-.877 10.496-3.833 15.914-4.871 8.703-1.668 17.29-.711 25.896 1.993 8.277 2.601 16.792 2.919 25.33-.359 4.533-1.74 9.623-2.037 14.466-2.958l11.176-2.053c15.668 13.236 28.329 28.996 39.003 46.428.586.956 1.249 1.865 1.613 3.394-3.354 1.995-6.445 3.392-10.156 5.068-.5-.246-1.942-1.523-3.439-1.59-5.924-.266-11.865-.16-17.799-.179l-33.199-.095c-4.602-.013-9.226.256-13.802-.096-10.161-.781-20.299-1.874-30.802-2.865-22.167-15.119-46.173-24.751-72.336-29.09-5.096-.845-10.132-2.055-15.195-3.097z"/><path fill="#ba02e8" d="M752.89 120.042l30.446 2.839c4.576.352 9.2.083 13.802.096l33.199.095c5.935.019 11.875-.087 17.799.179 1.497.067 2.939 1.345 3.439 1.59l10.185-4.71c10.218 15.689 18.282 32.455 23.284 50.615 1.237 4.491 2.643 8.937 3.601 13.811-10.071-.425-19.771-1.269-29.473-2.089l-15.682-1.279-28.551-3.06c-5.337-.521-10.703-.738-16.37-1.257-7.339-15.957-17.249-29.79-29.336-42.038-5.153-5.222-10.879-9.879-16.344-14.793z"/><path fill="#b205f1" d="M820.977 69.641c-3.588.993-7.317 1.656-11.038 2.363-4.844.92-9.934 1.217-14.466 2.958-8.538 3.278-17.052 2.96-25.33.359-8.606-2.704-17.193-3.661-25.896-1.993-5.419 1.038-10.49 3.994-15.914 4.871-4.752.768-9.778-.213-14.685-.309-1.207-.024-2.696.02-3.584.673-3.439 2.53-6.706 3.467-11.068 1.82-5.719-2.159-11.389-.374-16.804 2.008-2.113.93-4.289 1.717-6.813 2.588 17.559-20.848 28.431-45.487 37.597-71.432 10.7 2.732 21.569 5.309 32.011 9.07 22.583 8.134 43.153 20.068 62.002 34.918 4.76 3.75 9.242 7.854 13.989 12.106z"/><path fill="#c201df" d="M798.884 177.037c5.353.354 10.719.571 16.056 1.092l28.551 3.06c5.217.53 10.456.838 15.682 1.279l29.525 2.495c2.716 10.493 5.244 20.944 7.222 31.499 1.403 7.486 2.064 15.111 2.985 23.105-9.597-.197-19.133-.712-28.648-1.482l-33.955-3.097-21.341-2.179c-.863-1.864-.753-3.563-1.087-5.17-3.59-17.282-7.799-34.386-14.991-50.603z"/><path fill="#ff1148" d="M889.106 718.05c-2.532 8.316-4.729 16.753-7.693 24.912-2.808 7.73-6.421 15.167-10.363 22.834-11.708-3.982-22.97-7.53-33.699-12.281-14.373-6.364-28.333-13.66-42.411-20.923 2.058-4.606 4.311-8.747 6.003-13.106l9.304-24.448 27.374 8.7c8.485 2.73 16.88 5.78 25.461 8.166s17.341 4.125 26.023 6.147z"/><path fill="#ff4517" d="M783.002 860.832l-32.244 16.069c-3.77 1.801-7.939 2.769-12.384 3.809-1.596-2.111-2.741-3.91-3.872-5.717-5.073-8.112-10.984-15.831-15.018-24.431-6.427-13.701-11.584-27.977-24.07-37.784-1.304-1.024-1.82-3.052-2.345-4.689l38.064-12.914c6.106 7.193 12.254 13.92 17.914 21.036 7.012 8.815 13.604 17.963 20.411 26.943l13.544 17.68z"/><path fill="#fe1c38" d="M794.882 732.958c14.137 6.896 28.097 14.192 42.47 20.556 10.729 4.751 21.991 8.299 33.389 12.454-4.761 8.965-9.894 17.857-15.767 26.904-13.015-.509-22.903-7.93-34.052-11.799-10.729-3.723-21.029-8.734-31.37-13.499-4.712-2.171-9.069-5.111-13.448-8.009 2.053-2.704 4.108-5.004 5.854-7.518l12.924-19.089z"/><path fill="#fd6a09" d="M698.994 891.832l-25.412 4.165c-1.585.258-3.181.448-5.251.396-4.081-13.265-11.351-24.329-18.894-35.245-1.969-2.849-4.408-5.449-5.944-8.508-4.626-9.216-9.856-17.826-17.767-24.771-3.224-2.831-5.192-7.094-7.298-10.777 8.799-.453 17.165-.833 25.6-.867 3.528 3.589 6.962 6.858 10.45 10.069 8.025 7.387 17.555 13.686 23.77 22.363 9.292 12.975 16.947 27.291 20.746 43.175z"/><path fill="#ff3721" d="M783.347 860.795c-4.862-5.855-9.404-11.727-13.889-17.643l-20.411-26.943c-5.661-7.115-11.808-13.843-17.745-21.343 5.524-3.704 11.053-6.808 16.896-9.765 2.26 1.682 4.301 3.111 6.137 4.768 8.231 7.433 16.615 14.715 24.545 22.46 10.274 10.035 20.169 20.458 30.227 30.713l-25.76 17.752z"/><path fill="#fc5b13" d="M692.713 808.164c.882 1.562 1.398 3.59 2.702 4.614 12.485 9.808 17.643 24.083 24.07 37.784 4.034 8.6 9.945 16.319 15.018 24.431 1.13 1.808 2.275 3.606 3.48 5.763-7.329 2.657-14.724 4.96-22.675 6.974-3.499-5.663-6.26-11.147-9.429-16.385-4.375-7.231-8.822-14.442-13.669-21.359-5.869-8.375-10.28-17.825-18.806-24.289-4.265-3.233-7.631-7.653-11.034-11.73l30.345-5.804z"/><path fill="#fe2f26" d="M809.412 842.908l-30.533-30.579c-7.93-7.745-16.314-15.027-24.545-22.46-1.835-1.657-3.877-3.087-5.989-5.083 5.759-5.276 11.685-10.091 17.779-14.605l16.369 13.481 45.151 35.835c1.075.859 1.61 2.392 2.395 3.612l-20.628 19.798z"/><path fill="#fe7305" d="M617.995 817.163c2.539 3.611 4.507 7.874 7.731 10.705 7.911 6.946 13.141 15.555 17.767 24.771 1.536 3.059 3.975 5.659 5.944 8.508 7.543 10.916 14.814 21.98 18.491 35.331-7.311 1.063-14.696 1.767-22.505 2.021-.659-1.912-.487-3.619-1.195-4.796-6.228-10.358-12.313-20.823-19.044-30.851-5.619-8.371-11.962-16.264-18.157-24.234-2.808-3.613-6.097-6.847-9.051-10.352-3.067-3.639-5.993-7.398-8.517-11.177l28.536.073z"/><path fill="#fe272e" d="M830.392 823.053c-1.138-1.163-1.673-2.697-2.747-3.555l-45.151-35.835c-5.449-4.332-10.802-8.784-16.234-13.784 3.212-3.737 6.459-6.872 9.705-10.006 4.518 2.591 8.875 5.532 13.587 7.703 10.341 4.765 20.641 9.776 31.37 13.499 11.149 3.869 21.037 11.289 33.748 11.962-5.55 7.776-11.473 15.591-17.556 23.279-1.901 2.403-4.234 4.463-6.721 6.737z"/><path fill="#fe7c02" d="M588.995 817.163l8.981 11.105c2.954 3.505 6.243 6.739 9.051 10.352 6.195 7.971 12.539 15.864 18.157 24.234 6.731 10.028 12.816 20.493 19.044 30.851.708 1.177.536 2.884.773 4.74-7.675.456-15.351.517-23.49.627-1.251-2.8-1.58-5.885-2.904-8.457-7.256-14.102-12.545-29.417-23.557-41.273-4.89-5.265-10.884-9.507-16.714-14.279-4.115-4.255-7.922-8.417-11.649-12.649-1.017-1.155-1.792-2.522-2.459-4.519 8.401-.728 16.584-.729 24.766-.73z"/><path fill="#fe045d" d="M897.117 675.038c-1.04 7.051-2.08 14.101-3.636 21.556-10.634-1.202-20.824-2.457-30.847-4.523-8.647-1.782-17.173-4.262-25.625-6.85-8.033-2.46-15.901-5.46-23.758-8.62 1.028-6.466 1.972-12.535 3.278-18.527 5.859 1.904 11.253 4.177 16.874 5.467 12.046 2.764 24.174 5.21 36.335 7.424 9.073 1.652 18.25 2.736 27.38 4.073z"/><path fill="#fe0165" d="M897.467 674.798c-9.48-1.096-18.656-2.18-27.729-3.832-12.16-2.214-24.289-4.659-36.335-7.424-5.62-1.29-11.015-3.563-16.942-5.891.282-6.885.994-13.269 1.705-19.653 5.176 1.69 10.262 3.776 15.548 4.985 9.966 2.279 20.039 4.098 30.084 6.023l23.467 4.268c3.577.623 7.189 1.042 11.177 1.639.052 6.604-.287 13.124-.975 19.885z"/><path fill="#fe0955" d="M813.168 676.999c7.94 2.763 15.808 5.763 23.841 8.223 8.452 2.588 16.978 5.068 25.625 6.85 10.023 2.066 20.213 3.321 30.764 4.927-.921 6.878-2.275 13.756-3.961 20.843-9.013-1.814-17.774-3.552-26.354-5.938s-16.975-5.436-25.461-8.166l-27.319-9.116c.74-6.198 1.802-11.91 2.865-17.622z"/><path fill="#fd620e" d="M661.997 814.162c3.773 3.883 7.139 8.302 11.404 11.536 8.526 6.464 12.937 15.914 18.806 24.289 4.847 6.917 9.294 14.128 13.669 21.359 3.169 5.237 5.93 10.722 9.024 16.429-4.93 1.622-10.011 2.91-15.499 4.129-4.207-15.955-11.862-30.271-21.154-43.246-6.215-8.678-15.745-14.977-23.77-22.363-3.488-3.21-6.922-6.479-10.21-10.419 6.024-1.036 11.876-1.374 17.729-1.712z"/><path d="M662.367 813.968l-18.168 1.559c-8.606.731-16.972 1.112-25.771 1.565-9.79.023-19.147-.025-28.969-.001l-25.256.433c-14.256.403-28.267.448-42.742.567-12.488.025-24.512-.023-37.001.001-10.154.024-19.843-.025-30.46-.072l-20.503.917-56.956.157c-5.037-.411-9.616-1.017-14.197-1.041-14.781-.077-29.564.06-44.346.115-.752-.048-1.504-.096-2.627-.072-1.585-.317-2.786-.997-4.014-1.048l-29.746-1.1-54.051-3.989c-1.259-.096-2.486-.611-4.143-.86l-39.997-12.16-22.058-11.908-18.973-14.092c-5.726-6.137-11.101-12.217-16.734-18.555l-17.223-27.255-6.994-15.984c-2.362-7.573-4.405-14.964-6.529-22.748l-3.008-15.974-1.898-12.892-1.099-8.107-1.003-17.972-1.004-24.008-1.006-25.007.002-15.974-.001-11.008-.001-16.989.006-9.018.007-36.985.003-42 .001-38.995.002-34.005.003-36.991v-24.01l2-39.993 1.163-25.962 1.944-14.769 3.889-24.328 13.98-39.575 17.919-27.497 16.086-16.9 17.988-14.022c18.886-11.834 39.14-19.642 60.603-24.037 10.535-2.157 21.31-3.427 32.041-4.264 14.973-1.168 30.008-1.554 45.261-2.631l45.776-1.579h48.974 56.996l47.467.072 81.001.856 39.759 1.235c12.965.681 25.898 1.942 38.85 2.89 2.154.158 4.329.021 6.943-.053 5.513.969 10.548 2.179 15.644 3.024 26.163 4.339 50.169 13.971 72.336 29.09 5.822 4.94 11.547 9.597 16.701 14.819 12.086 12.248 21.996 26.08 29.336 42.038 7.505 16.381 11.714 33.486 15.304 50.767.334 1.607.224 3.306.665 5.179l3.987 44.974c.406 13.255.453 26.266.572 39.742l.427 42.257c.405 10.255.453 20.266.57 30.74l-.003 27.007.004 29.993-.004 23.006 1.001 38.006.006 43.991-1.001 22.008-1 41.992-1 21.004-1.997 20.036-2.849 19.028-3.325 17.948-8.982 24.935c-1.693 4.358-3.945 8.5-6.003 13.106l-12.983 19.457c-1.746 2.514-3.801 4.814-5.854 7.518l-10.014 10.013-18.058 15.06-16.905 9.934-38.058 13.515-30.702 5.879M222.03 457.914v12.932l3.288 22.928c1.618 6.407 3.237 12.815 4.735 20l3.223 10.957 8.709 21.064 13.014 24.959c3.318 4.784 6.636 9.567 10.012 15.054l9.214 11.91 25 26.005 19.957 15.953c10.973 6.637 21.56 14.056 33.015 19.719 15.396 7.611 31.36 14.25 48.541 16.905 15.775 2.438 31.566 4.948 47.44 6.509 7.97.783 16.164-.21 24.214-.897 6.25-.533 12.435-1.837 19.509-2.893l23.876-5.045 18.095-5.967 18.899-8.009c1.094-.63 2.188-1.261 4.012-1.994l27.892-16.183 21.128-16.827c3.414-3.294 6.829-6.588 10.857-10.161 1.277-1.272 2.645-2.466 3.814-3.83l13.251-15.229 14.951-20.955c2.81-4.922 5.62-9.845 9.046-15.099 2.443-5.204 4.886-10.407 7.971-15.969 2.806-7.901 5.611-15.802 9.067-24.092 1.764-7.518 3.528-15.036 5.985-22.991l4.225-30.601-.999-38.914-2.999-20.965-8.959-31.995-12.257-28.895-15.759-26.041-19.232-24.947c-4.904-4.674-9.639-9.543-14.757-13.97-5.81-5.025-11.962-9.654-18.236-15.074-12.148-9.873-25.546-17.683-40.442-24.427-9.767-3.929-19.281-8.747-29.351-11.616-26.908-7.667-54.286-11.514-82.487-9.43-15.901 1.175-31.555 3.156-46.89 7.284-18.466 4.972-36.359 11.492-53.364 21.92-2.098 1.181-4.312 2.198-6.274 3.573l-20.717 14.426-18.977 16.226-17.005 18.005c-2.795 3.577-5.59 7.154-8.995 11.045l-1.511 2.474c-3.599 5.718-7.202 11.433-11.446 17.45l-7.459 13.456-7.019 15.026c-2.648 7.428-5.296 14.857-8.607 22.684l-6.198 27.468c-.286 3.06-.572 6.12-1.248 9.913l-1.788 19.981c-.197 2.098-.542 4.182-.961 7.148.38 3.042.761 6.084.999 10.044m508.634-207.082c6.647-6.418 12.182-13.526 14.527-23.55 3.932-12.191 3.357-24.062-1.021-36.208-7.79-21.613-28.4-34.761-49.86-34.96-15.18-.141-28.622 4.693-39.796 15.7-10.791 10.63-16.052 23.247-16.485 39.058l4.969 22.896c4.833 9.885 11.518 18.204 21.121 23.767 11.535 6.682 23.695 9.929 37.31 7.613 11.104-1.888 20.896-5.645 29.234-14.317z"/><path fill="#aa10ee" d="M579.076 83.503c-26.765.041-53.456-.245-80.611-.602 2.367-2.654 4.96-5.577 8.075-7.753 7.822-5.463 15.879-10.589 24.153-15.999 2.507-.179 5.299.658 6.805-.377 11.871-8.154 25.373-9.896 39.183-10.797 4.4-.287 8.456-.751 12.025-4.554 2.134-2.274 6.565-2.735 10.078-3.287 4.722-.743 9.554-.789 14.777-1.134-3.849 6.359-4.575 14.915-13.11 18.77-3.754 1.696-6.03 6.699-8.935 10.235l-12.44 15.498z"/><path fill="#ffb500" d="M318.166 818.51c14.614-.397 29.397-.535 44.178-.457 4.581.024 9.16.63 14.324 1.361 2.028 1.131 3.398 2.127 4.928 2.567 6.363 1.83 12.973 2.976 19.114 5.351 7.072 2.734 13.55 7.015 20.635 9.705 12.893 4.896 22.279 14.848 33.238 22.455 7.216 5.01 13.284 11.983 18.942 18.839 5.43 6.581 9.669 14.146 14.431 21.279l-10.499.05c-2.135-3.076-3.434-6.393-5.574-9.027-5.003-6.159-10.052-12.362-15.753-17.85-5.553-5.345-12.102-9.638-17.929-14.719-11.428-9.965-24.779-16.679-38.519-22.516-6.479-2.753-13.734-3.665-20.615-5.491-8.178-2.171-16.256-4.799-24.523-6.53-6.616-1.385-13.455-1.696-20.188-2.539-5.346-.669-10.682-1.421-16.19-2.479z"/><path fill="#ffae00" d="M488.424 899.683c-5.23-7.206-9.469-14.771-14.899-21.353-5.658-6.857-11.725-13.83-18.942-18.839-10.959-7.608-20.346-17.559-33.238-22.455-7.085-2.691-13.563-6.971-20.635-9.705-6.141-2.375-12.751-3.521-19.114-5.351-1.53-.44-2.9-1.436-4.471-2.496 18.552-.378 37.23-.437 56.449-.196 3.388 2.142 6.316 3.872 9.068 5.846 9.548 6.849 19.212 13.555 28.484 20.762 6.403 4.977 12.845 10.153 18.166 16.209 6.75 7.683 12.612 16.191 18.394 24.66 2.663 3.9 4.227 8.55 6.289 12.86l-25.553.058z"/><path fill="orange" d="M514.442 899.709c-2.527-4.393-4.091-9.043-6.754-12.943-5.783-8.468-11.644-16.977-18.394-24.66-5.321-6.057-11.763-11.233-18.166-16.209-9.273-7.207-18.936-13.913-28.484-20.762-2.753-1.974-5.68-3.704-8.605-5.898 6.293-.639 12.664-.926 19.499-1.143 1.761 1.182 2.958 2.446 4.373 3.378l17.094 11.022c1.392.902 2.672 1.976 4.058 2.888l33.524 22.041c.954.63 1.863 1.449 2.537 2.367l23.699 32.58c1.363 1.911 2.022 4.324 3.42 7.423-9.848 0-18.592 0-27.8-.083z"/><path fill="#fe3336" d="M584.048 642.111c-9.088 5.297-18.176 10.594-27.868 15.681-5.147-2.245-9.631-4.427-14.243-6.288l-43.949-17.631c-8.312-3.558-16.116-8.285-24.255-12.269-5.355-2.621-10.688-5.739-16.397-7.103-18.383-4.391-36.94-8.047-55.42-12.035l-24.733-5.509c-10.062-2.135-20.235-3.795-30.213-6.26-15.456-3.819-30.745-8.313-46.188-12.19-8.661-2.175-17.465-3.815-26.25-5.45-6.51-1.211-13.093-2.025-19.644-3.016-4.301-8.082-8.602-16.164-12.54-24.609 13.488 2.459 26.617 5.267 39.74 8.107l29.089 6.414 53.482 13.69c1.42.361 2.968.222 4.812.342 16.5 10.813 33.91 18.751 53.081 22.144 10.457 1.851 21.083 2.899 31.678 3.751 5.205.418 10.512-.435 15.884-.394 2.24 1.505 4.241 3.125 6.52 3.799 9.205 2.72 18.571 4.907 27.732 7.757 7.874 2.449 15.583 5.445 23.308 8.35l53.824 20.464c.993.381 1.707 1.487 2.551 2.256z"/><path fill="#db01b5" d="M644.115 319.958c5.214 8.446 10.427 16.892 15.286 25.683-9.988-2.583-19.649-5.426-29.25-8.458-25.172-7.949-50.656-14.583-76.728-18.902-6.36-1.053-12.563-3.023-18.905-4.221-8.612-1.627-17.277-2.989-25.945-4.291-1.812-.272-3.737.212-6.007.296-16.863-5.231-33.62-8.754-50.986-8.009-8.861.38-17.697 1.359-26.818 1.813-1.838-.763-3.402-1.707-4.967-1.708-7.878-.009-15.771-.023-23.632.43l-51.451 3.386c-8.56.528-17.185.312-25.698 1.213-14.973 1.585-29.874 3.835-44.827 5.626-2.039.244-4.201-.549-6.307-.862 2.795-3.577 5.59-7.154 9.144-10.856l10.66-1.102 42.993-4.969c6.066-.812 11.934-3.257 18.003-3.875l65.402-5.899c.495-.044.996-.079 1.492-.056l59.71 2.869c10.716.638 21.386 2.029 32.08 3.039 5.611.53 11.303.56 16.831 1.537 12.721 2.248 25.39 4.815 38.033 7.48l43.306 9.599c12.93 3.125 25.727 6.802 38.582 10.235z"/><path fill="#c201df" d="M638.176 209.995c.286-14.935 5.548-27.552 16.338-38.182 11.173-11.007 24.615-15.841 39.796-15.7 21.46.199 42.07 13.347 49.86 34.96 4.378 12.146 4.953 24.017.404 36.565-7.983-.605-15.422-1.19-22.695-2.623-10.012-1.973-19.811-5.085-29.856-6.818-17.888-3.086-35.892-5.504-53.847-8.202z"/><path fill="#d203c1" d="M592.041 265.882c6.003 4.801 12.156 9.43 17.966 14.456 5.118 4.427 9.853 9.296 14.37 14.316-2.038.183-3.727.19-5.333-.171-9.053-2.035-18.036-4.409-27.139-6.176-8.298-1.611-16.709-2.663-25.086-3.843-17.882-2.519-35.712-5.679-53.68-7.233-18.296-1.583-36.727-1.757-55.107-2.142-8.791-.184-17.599.685-26.404.871-10.911.231-21.842-.086-32.736.432l-61.649 3.667c-11.043.762-22.039 2.178-33.074 3.094-3.401.283-6.859-.111-10.291-.194 6.123-5.321 12.246-10.643 19.045-15.765 2.975.385 5.306.915 7.566.699l38.598-3.967 65.413-5.771a571.96 571.96 0 0 1 48.872-1.017c21.015.452 42.011 1.837 63.008 2.953 4.792.255 9.588.854 14.325 1.641l34.368 5.897c2.185.329 4.638-1.119 6.967-1.747z"/><path fill="#d602bb" d="M293.573 283.09c3.736-.047 7.193.346 10.595.064l33.074-3.094 61.649-3.667c10.894-.518 21.825-.201 32.736-.432 8.805-.187 17.613-1.055 26.404-.871 18.38.385 36.811.559 55.107 2.142 17.968 1.554 35.798 4.715 53.68 7.233 8.378 1.18 16.788 2.232 25.086 3.843 9.103 1.767 18.087 4.142 27.139 6.176 1.606.361 3.295.354 5.368.517 6.81 8.085 13.198 16.17 19.644 24.607l-38.523-9.883c-14.37-3.473-28.838-6.549-43.306-9.599l-38.033-7.48c-5.528-.977-11.22-1.007-16.831-1.537-10.695-1.01-21.365-2.402-32.08-3.039l-59.71-2.869c-.495-.023-.997.013-1.492.056l-65.402 5.899c-6.068.618-11.936 3.063-18.003 3.875-14.297 1.913-28.656 3.357-42.993 4.969-3.295.371-6.601.654-10.351.967 5.013-5.922 10.475-11.833 16.242-17.875z"/><path fill="#ce04c5" d="M591.906 265.573c-2.194.937-4.647 2.386-6.832 2.056-11.491-1.731-22.901-3.994-34.368-5.897-4.737-.786-9.533-1.386-14.325-1.641l-63.008-2.953a571.96 571.96 0 0 0-48.872 1.017c-21.838 1.402-43.62 3.718-65.413 5.771l-38.598 3.967c-2.26.216-4.591-.314-7.215-.75 6.339-5.036 12.97-9.868 19.689-14.574 1.963-1.375 4.176-2.392 6.779-3.265 3.326.63 6.215 1.504 8.955 1.168 7.57-.928 15.045-2.631 22.618-3.517 7.403-.867 14.886-1.027 22.323-1.634l38.563-3.248c10.554-.669 21.146-.75 31.723-1.034l26.862-.532c7.106.055 14.207.698 21.312 1.045 9.116.445 18.232 1.081 27.352 1.176 4.172.044 8.355-1.008 12.533-1.562 14.241 6.417 27.639 14.227 39.923 24.409z"/><path fill="#fe4727" d="M298.952 623.111l-24.569-25.943c6.521.142 12.962.427 19.229 1.618 10.269 1.952 20.433 4.462 30.629 6.791l62.16 14.35c24.43 6.13 48.837 12.439 72.982 19.591 13.16 3.898 25.772 9.662 38.601 14.661l35.122 13.872c-5.776 1.974-11.553 3.949-17.843 5.539-1.779-1.125-2.963-2.106-4.323-2.569-20.731-7.064-41.26-14.852-62.305-20.819-16.34-4.633-33.313-7.066-50.043-10.278-4.701-.903-9.584-.843-14.303-1.676l-34.261-6.51-31.641-6.529c-6.4-1.143-12.953-1.427-19.437-2.097z"/><path fill="#c906cb" d="M551.656 241.001c-3.851.718-8.034 1.769-12.206 1.726-9.121-.095-18.236-.732-27.352-1.176-7.105-.347-14.206-.99-21.312-1.045-8.952-.069-17.909.291-26.862.532-10.577.285-21.169.365-31.723 1.034-12.871.816-25.706 2.198-38.563 3.248-7.437.607-14.92.768-22.323 1.634-7.573.886-15.049 2.59-22.618 3.517-2.741.336-5.629-.538-8.595-1.224 16.14-10.681 34.034-17.201 52.499-22.172 15.335-4.129 30.989-6.109 46.89-7.284 28.201-2.084 55.578 1.763 82.487 9.43 10.069 2.869 19.583 7.687 29.678 11.78z"/><path fill="#ed0095" d="M683.83 428l.694 38.506c-3.436-.526-6.527-1.261-9.4-2.501l-34.527-15.141c-7.163-3.004-14.582-5.393-21.863-8.121-5.873-2.201-11.71-4.496-17.633-7.175-.93-5.512-1.418-10.696-2.734-15.662-2.217-8.363-4.959-16.587-7.095-24.86l34.664 13.097 54.089 20.839c1.219.468 2.534.684 3.805 1.017z"/><path fill="#fe3c30" d="M254.944 570.397c6.495.635 13.078 1.448 19.588 2.659 8.785 1.635 17.589 3.275 26.25 5.45l46.188 12.19c9.977 2.465 20.151 4.125 30.213 6.26l24.733 5.509 55.42 12.035c5.709 1.364 11.042 4.481 16.397 7.103 8.139 3.984 15.943 8.711 24.255 12.269 14.507 6.21 29.31 11.725 43.949 17.631 4.613 1.861 9.096 4.043 13.878 6.34-.854.892-1.948 1.522-3.719 2.027-8.037-3.167-15.221-6.766-22.789-9.144-21.343-6.706-42.071-15.274-64.268-19.438-16.583-3.111-32.768-8.298-49.199-12.281l-67.784-16.02-38.193-9.505-30.469-7.045c-4.709-.956-9.62-.92-14.44-1.334l-10.01-14.707z"/><path fill="#de00af" d="M502.962 310.117c1.873-.136 3.798-.62 5.61-.348 8.668 1.302 17.333 2.664 25.945 4.291 6.342 1.198 12.545 3.168 18.905 4.221 26.073 4.319 51.556 10.953 76.728 18.902l29.288 8.81c4.453 9.403 8.514 18.8 12.21 28.59-8.106-1.924-15.906-4.064-23.572-6.61-6.747-2.241-13.218-5.365-20.029-7.345l-52.237-14.381c-6.872-1.802-13.947-2.829-21.236-4.343-15.126-14.386-32.775-24.049-51.612-31.786z"/><path fill="#e300a5" d="M554.881 342.038c6.982 1.38 14.057 2.407 20.929 4.209l52.237 14.381c6.812 1.98 13.283 5.104 20.029 7.345 7.666 2.546 15.466 4.687 23.621 6.995 3.366 10.4 6.32 20.809 8.817 31.618-6.611-1.496-12.853-3.15-18.898-5.346-8.578-3.117-16.947-6.808-25.521-9.937l-43.009-15.164c-4.15-1.405-8.603-1.915-13.016-3.145l-25.189-30.956z"/><path fill="#ff5820" d="M491.041 679.111c-6.214.961-12.398 2.266-18.649 2.799-8.05.687-16.244 1.681-24.214.897-15.874-1.56-31.664-4.071-47.44-6.509-17.181-2.655-33.145-9.294-48.541-16.905-11.455-5.663-22.042-13.082-32.724-20.044 5.385.335 10.493.9 15.569 1.677l28.418 4.564 19.561 3.383c6.051.963 12.306 1.1 18.169 2.704l84.859 23.952c1.845.53 3.336 2.294 4.992 3.483z"/><path fill="#fe422f" d="M264.983 585.456c4.791.062 9.701.026 14.411.982 10.212 2.073 20.34 4.578 30.469 7.045l38.193 9.505 67.784 16.02c16.43 3.984 32.615 9.17 49.199 12.281 22.197 4.164 42.925 12.732 64.268 19.438 7.568 2.378 14.753 5.977 22.456 9.171-5.734 2.804-11.811 5.456-18.272 8.129l-35.505-13.85c-12.829-4.999-25.441-10.763-38.601-14.661-24.144-7.152-48.551-13.46-72.982-19.591-20.622-5.175-41.428-9.614-62.16-14.35-10.196-2.329-20.36-4.839-30.629-6.791-6.268-1.191-12.708-1.476-19.367-1.927-3.276-3.523-6.255-7.286-9.264-11.402z"/><path fill="#de00af" d="M267.575 312.113c2.41.156 4.573.949 6.612.705l44.827-5.626c8.513-.901 17.138-.685 25.698-1.213l51.451-3.386c7.861-.453 15.754-.439 23.632-.43 1.565.002 3.129.945 4.761 2.043-13.12 2.823-25.442 7.663-37.465 13.293-4.816 2.255-9.375 5.061-14.383 7.361-8.45-.377-16.614-1.095-24.678-.49-15.181 1.14-30.295 3.133-45.454 4.601l-34.516 2.881c-4.347.309-8.735.045-13.105.043l10.803-17.149c.515-.818 1.008-1.649 1.816-2.631z"/><path fill="#fd2b3e" d="M584.362 641.965c-1.158-.623-1.872-1.729-2.865-2.11l-53.824-20.464c-7.725-2.905-15.434-5.901-23.308-8.35-9.162-2.849-18.528-5.037-27.732-7.757-2.28-.674-4.28-2.294-6.154-3.992 15.2-2.53 29.491-6.926 43.672-12.11 5.166 2.493 10.074 4.855 15.13 6.839l35.704 13.746c13.473 5.523 26.759 11.5 40.127 17.279l-20.749 16.918z"/><path fill="#ef028a" d="M225.172 409.992c2.018-8.877 4.036-17.754 6.853-26.822 5.605-.123 10.421.184 15.214-.033l39.29-2.119 25.308-1.068c3.423-.114 6.855.053 10.227.459-4.35 10.786-8.644 21.206-13.406 31.617-4.775.142-9.089.54-13.387.404l-70.099-2.438z"/><path fill="#fd2b3e" d="M369.114 573.957c-1.488-.093-3.036.046-4.456-.315l-53.482-13.69c-9.634-2.388-19.384-4.313-29.089-6.414l-39.789-8.483c-3.282-6.784-6.152-13.554-8.643-20.688 5.171.018 10.032.009 14.742.849l66.537 12.293c6.999 1.323 13.934 2.988 21.051 4.806 2.285 2.78 4.203 5.483 6.587 7.68l26.542 23.961z"/><path fill="#ff5122" d="M491.472 679.064c-2.086-1.143-3.577-2.906-5.422-3.436l-84.859-23.952c-5.864-1.603-12.118-1.741-18.169-2.704l-19.561-3.383-28.418-4.564c-5.076-.777-10.185-1.342-15.718-1.994-6.993-5.097-13.546-10.204-20.236-15.616 6.348.364 12.901.648 19.3 1.791 10.597 1.893 21.08 4.42 31.641 6.529l34.261 6.51c4.72.833 9.602.773 14.303 1.676 16.73 3.212 33.702 5.644 50.043 10.278 21.045 5.967 41.574 13.755 62.305 20.819 1.36.464 2.544 1.444 3.93 2.499-7.576 2.043-15.273 3.771-23.4 5.546z"/><path fill="#ef028a" d="M601.17 433.993l17.563 6.749c7.281 2.728 14.7 5.117 21.863 8.121 11.588 4.86 22.99 10.159 34.527 15.141 2.873 1.24 5.964 1.975 9.331 2.965-.986 9.914-2.348 19.805-4.289 29.657-2.314-1.005-3.982-2.119-5.792-2.912l-46.355-20.17-26.083-11.048-.765-28.504z"/><path fill="#c800d5" d="M638.103 210.434c18.029 2.259 36.032 4.677 53.921 7.764 10.044 1.733 19.844 4.845 29.856 6.818 7.272 1.433 14.712 2.018 22.513 2.98-1.545 9.311-7.081 16.418-14.289 22.704-7.742-2.009-14.87-4.133-22.119-5.69-6.951-1.493-14.074-2.175-21.041-3.61-10.545-2.172-20.991-4.82-31.537-6.99-4.09-.842-8.335-.932-12.509-1.365l-4.795-22.61z"/><path fill="#fb1858" d="M648.044 575.115c-4.773 6.886-9.545 13.772-14.987 20.726-1.142-.088-1.637-.198-2.084-.408l-55.34-26.055c-7.054-3.233-14.489-5.636-21.691-8.771 6.114-7.102 12.169-13.851 18.606-20.575 3.682 1.089 7.119 1.849 10.255 3.274 9.073 4.125 18.062 8.439 27.013 12.824l38.228 18.984z"/><path fill="#ed0095" d="M322.12 380.043c-3.428-.039-6.86-.207-10.283-.093l-25.308 1.068-39.29 2.119c-4.793.217-9.61-.09-14.883-.166 2.181-7.437 4.829-14.866 8.087-22.63l64.614-4.394c6.234-.369 12.504-.122 18.743-.441 5.448-.279 10.875-.958 16.169-1.146l-17.851 25.684z"/><path fill="#f60972" d="M221.173 446.995l.819-6.273c.626-6.658 1.196-13.321 2.378-20.263 2.052-.01 3.506.43 4.979.507l41.009 2.054 22.789 1.512c4.557.264 9.126.32 13.746.881-.982 8.802-2.021 17.192-3.516 25.583-8.235-.114-16.034.073-23.788-.432-6.918-.45-13.763-2.086-20.68-2.452-12.563-.665-25.156-.776-37.736-1.118z"/><path fill="#fd1f4f" d="M553.884 560.96c7.261 2.781 14.695 5.185 21.75 8.418l55.34 26.055c.447.211.942.32 1.776.546-3.845 5.058-8.026 10.069-12.274 15.023-1.17 1.364-2.537 2.558-4.307 3.671-1.125-.687-1.679-1.384-2.401-1.716l-52.447-23.913c-9.854-4.295-20.101-7.689-29.892-11.724l9.355-6.607 13.101-9.751z"/><path fill="#f60972" d="M674.111 520.047c-2.806 7.901-5.611 15.802-8.981 23.619-5.573-2.602-10.585-5.114-15.59-7.64l-21.125-10.638c-5.494-2.651-11.05-5.213-16.72-7.456-7.196-2.846-14.536-5.33-21.754-8.348 2.782-8.446 5.503-16.514 8.574-24.51l34.633 15.798 40.963 19.175z"/><path fill="#f3077e" d="M674.436 519.852l-41.288-18.98-34.69-16.201c-.091-1.55.336-2.605.52-3.702l2.907-18.009 26.134 10.585 46.355 20.17c1.809.793 3.478 1.907 5.446 3.131-1.531 7.776-3.295 15.294-5.383 23.007z"/><path fill="#fb1858" d="M225.172 493c-1.047-7.384-2.095-14.769-2.652-22.574 2.784-.098 5.091.147 7.367.561l45.82 8.508c11.143 2.354 22.09 5.633 33.297 8.845 2.057 6.118 3.942 11.891 5.411 17.663-11.805-2.086-23.142-4.549-34.598-6.171-18.174-2.573-36.427-4.584-54.646-6.832z"/><path fill="#e700a1" d="M580.17 373.304c4.314.921 8.767 1.431 12.917 2.836l43.009 15.164c8.574 3.129 16.943 6.821 25.521 9.937 6.045 2.196 12.287 3.851 18.827 5.753 1.433 6.723 2.48 13.44 3.456 20.582-1.341.091-2.657-.125-3.875-.593l-54.089-20.839-34.978-13.267c-4.062-6.644-7.425-13.108-10.787-19.572z"/><path fill="#fd1f4f" d="M225.245 493.387c18.147 1.861 36.4 3.872 54.573 6.445 11.456 1.622 22.793 4.085 34.76 6.498 3.232 5.764 5.886 11.2 8.116 16.642-6.886-1.383-13.304-3.051-19.822-4.088-7.313-1.164-14.699-2.046-22.087-2.517-7.665-.488-15.392-.022-23.052-.544-9.208-.628-18.376-1.858-27.561-2.827l-4.928-19.61z"/><path fill="#ca01cf" d="M642.948 233.406c4.124.07 8.369.161 12.459 1.003l31.537 6.99c6.966 1.435 14.089 2.118 21.041 3.61 7.249 1.557 14.377 3.681 21.81 5.827-7.468 8.668-17.26 12.424-28.364 14.312-13.615 2.315-25.775-.931-37.31-7.613-9.603-5.563-16.288-13.882-21.171-24.129z"/><path fill="#fd244a" d="M531.148 577.554c10.07 3.8 20.317 7.193 30.172 11.488 17.611 7.676 34.989 15.889 52.447 23.913.722.332 1.276 1.03 2.094 1.855-3.228 3.593-6.643 6.887-10.404 10.208l-40.473-17.252c-11.797-4.836-23.832-9.088-35.704-13.746-5.056-1.984-9.964-4.346-14.959-7.148 5.596-3.514 11.212-6.417 16.827-9.32z"/><path fill="#e700a1" d="M340.114 354.045c-5.436.502-10.864 1.181-16.312 1.46-6.239.319-12.509.072-18.743.441l-64.446 4.058c1.785-4.784 4.013-9.569 6.846-14.68 7.88-.661 15.156-.997 22.431-1.331l24.313-1.13 60.76-3.501-14.849 14.682z"/><path fill="#e600aa" d="M355.111 339.04l-60.908 3.824-24.313 1.13-22.272 1.005c1.934-4.268 4.315-8.536 7.016-12.954 4.691-.148 9.079.116 13.426-.193l34.516-2.881 45.454-4.601c8.064-.606 16.227.113 24.537.803-5.691 5.002-11.574 9.435-17.456 13.868z"/><path fill="#f80c6c" d="M589.882 509.962l21.814 7.97c5.67 2.243 11.225 4.804 16.72 7.456 7.1 3.426 14.086 7.086 21.125 10.638l15.269 7.818c-2.201 5.467-4.643 10.671-7.715 15.887-7.971-3.834-15.226-7.861-22.673-11.494-17.115-8.348-33.817-17.705-52.481-22.637l7.941-15.639z"/><path fill="#f91064" d="M581.883 525.962c18.721 4.571 35.423 13.927 52.538 22.275 7.447 3.633 14.702 7.659 22.365 11.659-2.489 5.075-5.299 9.998-8.425 15.069l-38.545-18.835-27.013-12.824c-3.135-1.426-6.573-2.186-10.223-3.613 2.867-4.82 6.085-9.275 9.303-13.731z"/><path fill="#fd244a" d="M230.113 513.385c9.245.58 18.413 1.81 27.621 2.438 7.661.522 15.388.056 23.052.544 7.388.47 14.773 1.353 22.087 2.517 6.518 1.037 12.935 2.706 20.128 4.254 4.764 6.395 8.798 12.631 12.831 18.868l-20.898-4.497-66.537-12.293c-4.71-.84-9.571-.831-14.795-1.212-1.471-3.409-2.51-6.819-3.489-10.618z"/><path fill="#f91064" d="M308.832 487.994c-11.034-2.867-21.981-6.146-33.124-8.5-15.195-3.21-30.536-5.725-45.82-8.508-2.276-.414-4.584-.659-7.297-.983-.467-4.031-.514-8.06-.034-12.548 15.833 1.375 31.156 3.073 46.438 5.085 12.305 1.62 24.56 3.621 36.907 5.891l2.929 19.562z"/><path fill="#f80c6c" d="M305.833 467.993l-36.837-5.452-46.367-5.544c-.836-3.043-1.217-6.085-1.526-9.564 12.651-.096 25.243.015 37.807.68 6.917.366 13.762 2.001 20.68 2.452 7.754.505 15.553.318 23.859.868 1.146 5.811 1.765 11.186 2.385 16.561z"/><path fill="#f3077e" d="M306.837 425.002l-13.69-.469-22.789-1.512-41.009-2.054c-1.473-.077-2.926-.517-4.784-.873-.109-3.145.177-6.205.535-9.683l70.171 2.02c4.298.136 8.612-.262 13.335.011-.312 4.47-1.041 8.516-1.769 12.561z"/><path d="M306.893 425.414c.672-4.457 1.4-8.502 2.181-12.963l12.99-32.042 17.907-26.051 14.991-14.996 17.936-13.936c4.817-2.869 9.375-5.675 14.192-7.93 12.023-5.63 24.345-10.47 37.739-13.038 9.054-1.043 17.89-2.022 26.751-2.402 17.366-.745 34.123 2.778 50.986 8.009 19.233 7.79 36.883 17.453 52.009 31.838l25.497 31.09 10.501 19.872c2.835 8.452 5.578 16.676 7.794 25.04 1.316 4.965 1.804 10.15 2.734 15.662l.835 28.93-2.957 18.472c-.183 1.096-.611 2.152-.868 3.63l-8.168 24.985-8.001 16.016-9.743 14.068-18.256 20.939c-4.422 3.607-8.763 6.894-13.159 10.104-2.984 2.179-6.047 4.251-9.355 6.607l-17.298 9.252c-14.161 5.796-28.452 10.191-43.764 12.402-5.627.471-10.934 1.324-16.139.906-10.595-.852-21.221-1.9-31.678-3.751-19.17-3.393-36.581-11.331-53.081-22.144l-26.897-23.988c-2.384-2.197-4.303-4.9-6.587-7.68l-12.559-19.184c-2.961-5.601-5.615-11.037-8.432-16.8l-5.988-17.991-3.102-19.907-2-17.001 2.989-26.018z"/></svg>